<svg width="32" height="32" viewBox="0 0 32 32" fill="none" xmlns="http://www.w3.org/2000/svg">
<path d="M10.04 32L21.96 32C27.5049 32 32 27.5049 32 21.96V10.04C32 4.49506 27.5049 0 21.96 0H10.04C4.49506 0 0 4.49506 0 10.04L0 21.96C0 27.5049 4.49506 32 10.04 32Z" fill="url(#paint0_linear_1_326)"/>
<g filter="url(#filter0_d_1_326)">
<path d="M14.0432 8C16.2691 8 19.3417 8 21.5676 8C22.4006 8 22.9058 8.50383 22.9058 9.33447C22.9058 10.4374 22.9058 11.5404 22.9058 12.6298C22.9058 12.9157 22.9058 12.9157 22.6327 12.9157C21.8953 12.9157 20.3112 12.9157 19.5602 12.9157C18.891 12.9157 18.3721 13.297 18.2083 13.8826C18.1536 14.046 18.14 14.223 18.14 14.4C18.14 15.6664 18.14 17.7362 18.14 19.0026C18.14 19.2068 18.0717 19.2613 17.8669 19.2613C14.3437 19.2613 10.8068 19.2613 7.28364 19.2613C6.53257 19.2613 6 18.7302 6 17.9813C6 15.3532 6 11.9081 6 9.26638C6 8.53106 6.53257 8 7.26999 8C9.53684 8 11.79 8 14.0432 8ZM14.6441 17.1643C14.5075 17.1643 14.3573 17.1643 14.2208 17.1643C14.2208 17.1643 14.1935 17.1643 14.1798 17.1643C13.9886 17.1643 13.8521 17.2868 13.8521 17.4638C13.8521 17.6272 13.975 17.7498 14.1661 17.7634C14.4802 17.7634 14.7943 17.7634 15.1084 17.7634C15.3132 17.7634 15.4361 17.6409 15.4361 17.4775C15.4361 17.3004 15.2996 17.1779 15.0947 17.1779C14.9445 17.1779 14.7943 17.1779 14.6441 17.1779V17.1643Z" fill="white"/>
<path d="M19.724 18.9345C19.724 17.7634 19.724 16.5787 19.724 15.4077C19.724 14.8902 19.9835 14.6179 20.5024 14.6179C21.5949 14.6179 23.3292 14.6179 24.408 14.6179C24.9269 14.6179 25.1863 14.8902 25.1863 15.4077C25.1863 17.7634 24.5445 20.1328 24.5445 22.4885C24.5445 22.9924 24.8313 23.9592 24.326 23.9592C23.2336 23.9592 21.7041 23.9592 20.6117 23.9592C20.1064 23.9592 19.7104 23.646 19.7104 23.1421C19.7104 21.9575 19.7104 20.1192 19.7104 18.9481L19.724 18.9345ZM22.742 22.0936C22.5781 22.0936 22.4142 22.0936 22.2504 22.0936C22.0319 22.0936 21.8953 22.2434 21.8953 22.4204C21.8953 22.5838 22.0319 22.7336 22.2367 22.7336C22.5644 22.7336 22.8922 22.7336 23.2199 22.7336C23.4248 22.7336 23.5613 22.5838 23.5613 22.4204C23.5613 22.2434 23.4248 22.1073 23.2063 22.0936C23.0561 22.0936 22.8922 22.0936 22.742 22.0936Z" fill="white"/>
<path d="M14.5349 23.8366C13.3195 23.8366 12.1041 23.8366 10.9024 23.8366C10.6293 23.8366 10.4791 23.7141 10.4518 23.4826C10.4245 23.2375 10.5747 23.0468 10.8342 23.0468C11.2302 23.0468 11.6125 23.0468 12.0085 23.0468C12.1724 23.0468 12.227 22.9924 12.227 22.8153C12.227 21.9711 12.227 21.1268 12.227 20.2826C12.227 20.0783 12.2817 20.0102 12.4728 20.0102C13.8521 20.0102 15.3815 20.0102 16.7744 20.0102C16.9656 20.0102 17.0339 20.0647 17.0339 20.2826C17.0339 21.1132 16.9792 21.9575 16.9792 22.7881C16.9792 22.9787 17.0066 23.183 17.1977 23.1694C17.5528 23.1694 17.6893 23.183 18.0581 23.1966C18.3585 23.1966 18.5497 23.2102 18.6179 23.4417C18.6862 23.6868 18.5087 23.8366 18.2219 23.8366C17.0066 23.8366 15.7775 23.8366 14.5622 23.8366H14.5349Z" fill="white"/>
<path d="M14.8763 8.80341C17.1021 8.80341 19.328 8.80341 21.5539 8.80341C22.3869 8.80341 22.8922 9.30724 22.8922 10.1379C22.8922 11.2409 22.8922 12.3438 22.8922 13.4332C22.8922 13.7192 22.8922 13.7192 22.6191 13.7192C21.8817 13.7192 21.1306 13.7192 20.3932 13.7192C19.724 13.7192 19.2051 14.1004 19.0413 14.686C18.9866 14.8494 18.973 15.0264 18.973 15.2034C18.973 16.4698 18.973 17.7362 18.973 18.9889C18.973 19.1932 18.9047 19.2477 18.6999 19.2477C15.1767 19.2477 11.6398 19.2477 8.11665 19.2477C7.36558 19.2477 6.83301 18.7166 6.83301 17.9677C6.83301 15.326 6.83301 12.6979 6.83301 10.0562C6.83301 9.30724 7.36558 8.78979 8.10299 8.78979C10.3562 8.78979 12.6094 8.78979 14.8626 8.78979L14.8763 8.80341ZM14.8216 17.2596C14.6851 17.2596 14.5349 17.2596 14.3983 17.2596C14.3983 17.2596 14.371 17.2596 14.3573 17.2596C14.1662 17.2596 14.0296 17.3821 14.0296 17.5592C14.0296 17.7226 14.0296 18.0358 14.412 18.0902C14.726 18.0902 15.0401 18.0902 15.3542 18.0902C15.6273 18.0494 15.6273 17.7226 15.6273 17.5592C15.6273 17.3821 15.4908 17.2596 15.2859 17.2596C15.1357 17.2596 14.9855 17.2596 14.8353 17.2596H14.8216Z" fill="#E2E2E2"/>
<path d="M20.2566 19.5336C20.2566 18.3353 20.2566 17.1234 20.2566 15.9251C20.2566 15.394 20.5297 15.1217 21.0623 15.1217C22.1684 15.1217 23.2882 15.1217 24.3943 15.1217C24.9269 15.1217 25.2 15.394 25.2 15.9251C25.2 18.3353 25.2 20.7455 25.2 23.1558C25.2 23.6732 24.9269 23.9455 24.4079 23.9455C23.2882 23.9455 22.1684 23.9455 21.0623 23.9455C20.5434 23.9455 20.2702 23.6732 20.2702 23.1558C20.2702 21.9438 20.2702 20.7319 20.2702 19.5336H20.2566ZM22.7419 22.1072C22.5917 22.1072 22.4279 22.1072 22.2776 22.1072C22.0728 22.1072 21.9363 22.257 21.9363 22.4204C21.9363 22.5838 21.8816 22.9243 22.264 22.9515C22.5781 22.9787 22.8922 22.9515 23.1926 22.9515C23.5749 22.9515 23.5203 22.5838 23.5203 22.4204C23.5203 22.257 23.3838 22.1209 23.1926 22.1072C23.0424 22.1072 22.8922 22.1072 22.7419 22.1072Z" fill="#E2E2E2"/>
<path d="M14.8626 23.8366C13.7428 23.8366 12.6231 23.8366 11.5169 23.8366C11.2711 23.8366 11.1209 23.7277 11.1073 23.537C11.0799 23.3192 11.2302 23.1694 11.4623 23.1558C11.8174 23.1558 12.1861 23.1558 12.5411 23.1558C12.6913 23.1558 12.746 23.1013 12.746 22.9515C12.746 22.2298 12.746 21.4945 12.746 20.7728C12.746 20.5958 12.8006 20.5413 12.9781 20.5413C14.2481 20.5413 15.5317 20.5413 16.8017 20.5413C16.9792 20.5413 17.0339 20.5958 17.0339 20.7728C17.0339 21.4945 17.0339 22.2162 17.0339 22.9379C17.0339 23.1013 17.0748 23.1694 17.2524 23.1558C17.5801 23.1558 17.9215 23.1558 18.2492 23.1558C18.5223 23.1558 18.6589 23.2783 18.6726 23.4962C18.6726 23.7141 18.536 23.8366 18.2629 23.8366C17.1431 23.8366 16.0097 23.8366 14.8899 23.8366H14.8626Z" fill="#E2E2E2"/>
</g>
<defs>
<filter id="filter0_d_1_326" x="2" y="8" width="27.2" height="23.9592" filterUnits="userSpaceOnUse" color-interpolation-filters="sRGB">
<feFlood flood-opacity="0" result="BackgroundImageFix"/>
<feColorMatrix in="SourceAlpha" type="matrix" values="0 0 0 0 0 0 0 0 0 0 0 0 0 0 0 0 0 0 127 0" result="hardAlpha"/>
<feOffset dy="4"/>
<feGaussianBlur stdDeviation="2"/>
<feComposite in2="hardAlpha" operator="out"/>
<feColorMatrix type="matrix" values="0 0 0 0 0.0489583 0 0 0 0 0.165479 0 0 0 0 0.391667 0 0 0 0.25 0"/>
<feBlend mode="normal" in2="BackgroundImageFix" result="effect1_dropShadow_1_326"/>
<feBlend mode="normal" in="SourceGraphic" in2="effect1_dropShadow_1_326" result="shape"/>
</filter>
<linearGradient id="paint0_linear_1_326" x1="28.7859" y1="-0.146027" x2="-0.228312" y2="34.6839" gradientUnits="userSpaceOnUse">
<stop stop-color="#49A9BE"/>
<stop offset="1" stop-color="#185A96"/>
</linearGradient>
</defs>
</svg>
