<svg width="32" height="32" viewBox="0 0 32 32" fill="none" xmlns="http://www.w3.org/2000/svg">
<path d="M10.04 32L21.96 32C27.5049 32 32 27.5049 32 21.96V10.04C32 4.49506 27.5049 0 21.96 0H10.04C4.49506 0 0 4.49506 0 10.04L0 21.96C0 27.5049 4.49506 32 10.04 32Z" fill="url(#paint0_linear_1_368)"/>
<g filter="url(#filter0_d_1_368)">
<path d="M12.5355 24.0001C11.6284 24.0001 10.7213 24.0001 9.8142 24.0001C9.3224 24.0001 8.9836 23.6377 9.01639 23.1655C9.01639 23.0337 9.07103 22.9129 9.1366 22.8031C9.23496 22.6384 9.56283 22.0014 9.66119 21.8367C9.85792 21.5073 9.83606 21.1998 9.59562 20.9033C8.66666 19.7832 8.27322 18.0261 8.07649 16.5876C7.78141 14.3693 8.33879 12.3817 9.77048 10.6686C10.9836 9.219 12.5464 8.34048 14.4044 8.07693C16.6776 7.75847 19.235 8.42834 20.9727 9.94378C23.9126 12.8758 23.2896 13.7543 23.6065 15.4675C23.9781 17.499 22.7869 18.0701 21.6284 19.7502C20.3606 21.5841 18.1858 23.5937 15.9891 23.9232C15.5738 23.9891 15.1585 24.0001 14.7322 24.0001C14 24.0001 13.2678 24.0001 12.5355 24.0001ZM16.9399 16.5C16.9399 15.9399 16.9399 15.7969 16.9399 15.2368C16.9399 14.8964 16.7213 14.6329 16.3825 14.5889C16.0328 14.545 15.6721 14.545 15.3224 14.5889C14.9836 14.6438 14.7759 14.9294 14.7978 15.2918C14.8197 15.6102 15.071 15.9726 15.388 15.9946C15.6175 16.0055 15.8361 16.1922 15.8361 16.4119C15.8361 17.499 15.6175 18.2897 15.6175 19.3769C15.6175 19.7722 15.8361 20.0357 16.2186 20.0797C16.5355 20.1126 16.8634 20.1236 17.1912 20.0797C17.5847 20.0248 17.8033 19.7393 17.7705 19.3549C17.7486 19.0255 17.4973 19.2341 17.1257 19.2231C16.9945 19.2231 16.9508 19.1682 16.9508 19.0364C16.9508 18.4764 16.9508 17.4661 16.9508 16.906L16.9399 16.5ZM15.2568 12.3048C15.2568 12.8758 15.7049 13.3261 16.2732 13.3261C16.8415 13.3261 17.2896 12.8758 17.2896 12.2938C17.2896 11.7118 16.8415 11.2616 16.2732 11.2616C15.694 11.2616 15.2459 11.7118 15.2459 12.2938L15.2568 12.3048Z" fill="white"/>
<path d="M13.9672 24C13.0601 24 12.153 24 11.2459 24C10.7541 24 10.4153 23.6376 10.4481 23.1654C10.4481 23.0336 10.5028 22.9128 10.5683 22.803C10.6667 22.6383 10.776 22.4736 10.8743 22.2979C11.0711 21.9684 11.0492 21.6609 10.8088 21.3644C9.86887 20.2553 9.27871 18.9705 9.08199 17.5319C8.78691 15.3137 9.34428 13.326 10.776 11.6129C12 10.1524 13.5629 9.28483 15.4208 9.02127C17.694 8.70281 19.7268 9.30679 21.4536 10.8332C22.7541 11.9753 23.5519 13.4139 23.8689 15.116C24.2405 17.1476 23.8033 19.0144 22.6339 20.6946C21.3661 22.5285 19.6066 23.5937 17.4099 23.9231C16.9946 23.989 16.5793 24 16.153 24C15.4208 24 14.6885 24 13.9563 24H13.9672ZM17.1694 16.9336C17.1694 16.3735 17.1694 16.2471 17.1694 15.687C17.1694 15.3466 16.9508 15.083 16.612 15.0391C16.2623 14.9952 15.9017 14.9952 15.5519 15.0391C15.2131 15.094 15.0055 15.3795 15.0273 15.7419C15.0492 16.0604 15.3006 16.313 15.6284 16.3349C15.7814 16.3423 15.8579 16.4228 15.8579 16.5765C15.8579 17.6637 15.8579 18.7509 15.8579 19.838C15.8579 20.2334 16.0765 20.4969 16.459 20.5408C16.776 20.5738 17.1038 20.5848 17.4317 20.5408C17.8252 20.4859 18.0437 20.2004 18.0109 19.8161C17.9891 19.4866 17.7268 19.245 17.3552 19.234C17.2241 19.234 17.1803 19.1791 17.1803 19.0474C17.1803 18.4873 17.1803 17.9272 17.1803 17.3672L17.1694 16.9336ZM15.4754 12.8203C15.4754 13.3913 15.9344 13.7762 16.5028 13.7762C17.0711 13.7762 17.5191 13.326 17.5191 12.744C17.5191 12.162 17.0711 11.7117 16.5028 11.7117C15.9235 11.7117 15.4754 12.162 15.4754 12.744V12.8203Z" fill="#E2E2E2"/>
</g>
<defs>
<filter id="filter0_d_1_368" x="4" y="7.99936" width="24" height="24.0007" filterUnits="userSpaceOnUse" color-interpolation-filters="sRGB">
<feFlood flood-opacity="0" result="BackgroundImageFix"/>
<feColorMatrix in="SourceAlpha" type="matrix" values="0 0 0 0 0 0 0 0 0 0 0 0 0 0 0 0 0 0 127 0" result="hardAlpha"/>
<feOffset dy="4"/>
<feGaussianBlur stdDeviation="2"/>
<feComposite in2="hardAlpha" operator="out"/>
<feColorMatrix type="matrix" values="0 0 0 0 0.0489583 0 0 0 0 0.165479 0 0 0 0 0.391667 0 0 0 0.25 0"/>
<feBlend mode="normal" in2="BackgroundImageFix" result="effect1_dropShadow_1_368"/>
<feBlend mode="normal" in="SourceGraphic" in2="effect1_dropShadow_1_368" result="shape"/>
</filter>
<linearGradient id="paint0_linear_1_368" x1="28.7859" y1="-0.146027" x2="-0.228312" y2="34.6839" gradientUnits="userSpaceOnUse">
<stop stop-color="#49A9BE"/>
<stop offset="1" stop-color="#185A96"/>
</linearGradient>
</defs>
</svg>
