<svg width="17" height="12" viewBox="0 0 17 12" fill="none" xmlns="http://www.w3.org/2000/svg">
<g filter="url(#filter0_d_1_209)">
<path d="M14.7271 5.42839C14.6725 5.73816 14.603 6.04302 14.469 6.32821C14.0372 7.23786 13.3176 7.7689 12.3251 7.95083C12.1365 7.98525 11.9479 8 11.7543 8C11.4318 8 11.1142 8 10.7916 8C10.7271 8 10.6675 7.99508 10.6675 7.90657C10.6675 7.52304 10.6675 7.1346 10.6675 6.75107C10.6675 6.69207 10.7022 6.65273 10.7419 6.61831C10.9057 6.45605 11.1042 6.2397 11.2978 6.09711C11.4665 5.98893 11.6253 6.07252 11.7146 6.10694C12.4144 6.36754 12.8958 5.81684 12.8809 5.07437C12.871 4.53841 12.4392 4.08604 11.9032 4.03687C11.3722 3.99262 10.8809 4.35648 10.7717 4.87277C10.7271 5.0842 10.737 5.2858 10.8213 5.48248C10.8511 5.55623 10.8362 5.60049 10.7866 5.64966C10.5782 5.85126 10.3747 6.06269 10.1613 6.26429C10.0521 6.36754 10.0075 6.48064 10.0124 6.62815C10.0174 7.03626 10.0124 7.44437 10.0124 7.85249C10.0124 7.96066 9.98264 8.00983 9.86353 8.00491C9.67495 7.99508 9.49132 8.00491 9.30274 8.00491C9.22333 8.00491 9.19356 7.97541 9.19356 7.89674C9.19356 6.84449 9.19356 5.78734 9.19356 4.73509C9.19356 4.67117 9.21341 4.63183 9.27792 4.60725C9.66502 4.43515 9.88834 4.13521 9.91812 3.71235C9.95782 3.15673 9.58065 2.6306 8.97023 2.58635C8.32011 2.53718 7.83375 2.95021 7.79405 3.59434C7.76924 3.99754 7.97767 4.39582 8.4144 4.5925C8.49877 4.63183 8.52358 4.67609 8.52358 4.76459C8.52358 5.79717 8.52358 6.82974 8.52358 7.8574C8.52358 7.97049 8.4938 8.00983 8.3747 8.00491C8.201 7.99508 8.02234 7.99508 7.84864 8.00491C7.7345 8.00983 7.70472 7.96558 7.70472 7.8574C7.70472 7.43946 7.70472 7.01659 7.70472 6.59864C7.70472 6.4708 7.66502 6.37246 7.57569 6.28395C7.36725 6.08236 7.16378 5.87092 6.95038 5.66933C6.8809 5.60049 6.86601 5.5464 6.90075 5.45298C7.11415 4.88752 6.79157 4.25322 6.21093 4.07621C5.63524 3.8992 5.00993 4.24831 4.86601 4.82852C4.76676 5.22188 4.86601 5.5759 5.16378 5.85126C5.4814 6.14136 6.17619 6.16103 6.59306 6.0086C6.67743 5.9791 6.73202 5.98893 6.79157 6.05286C6.95038 6.22003 7.11911 6.3823 7.28289 6.54456C7.33748 6.59373 7.36229 6.64781 7.36229 6.72157C7.36229 7.08051 7.03971 7.51321 7.04467 7.87215C7.04467 7.98033 7.00497 8.00983 6.90571 8.00491C6.54839 8 6.18611 8.01475 5.82879 8.00491C4.24566 7.94591 3.1737 6.85925 3.00497 5.47756C2.89579 4.57283 3.12408 3.76644 3.75435 3.09281C4.18611 2.63552 4.72705 2.37492 5.33748 2.24708C5.42681 2.22741 5.47643 2.18807 5.51117 2.1094C6.10671 0.904729 7.05956 0.216346 8.36477 0.0344157C9.92805 -0.181933 11.4615 0.565454 12.1613 2.02089C12.2258 2.15857 12.3102 2.22249 12.4591 2.25691C13.7047 2.5421 14.5285 3.43208 14.7122 4.67117C14.7122 4.69084 14.7221 4.70559 14.7271 4.72526V5.42839Z" fill="#E0E0E0"/>
<path d="M8.63773 3.45175C8.63773 3.21573 8.80646 3.04363 9.03971 3.04855C9.25807 3.04855 9.43673 3.23048 9.4417 3.44683C9.4417 3.66318 9.26304 3.85002 9.04467 3.85002C8.81142 3.85002 8.63773 3.68285 8.63773 3.45175Z" fill="#E0E0E0"/>
<path d="M12.3152 4.8826C12.3152 5.10387 12.1464 5.2858 11.9281 5.29071C11.6948 5.29071 11.5211 5.12353 11.5161 4.89735C11.5161 4.66625 11.6799 4.49416 11.9132 4.49416C12.1365 4.49416 12.3102 4.66133 12.3102 4.88752L12.3152 4.8826Z" fill="#E0E0E0"/>
<path d="M6.51862 4.96127C6.51862 5.19237 6.34989 5.35955 6.11664 5.35955C5.89828 5.35955 5.72458 5.17762 5.72458 4.95635C5.72458 4.73017 5.89331 4.56299 6.1216 4.55807C6.35485 4.55807 6.52359 4.72525 6.52359 4.95635L6.51862 4.96127Z" fill="#E0E0E0"/>
<path d="M6.35484 4.63184L6.62283 4.8531L6.12159 5.4579L5.87842 5.28088L6.35484 4.63184Z" fill="#E0E0E0"/>
<path d="M9.35236 3.20097L9.55583 3.46158L8.95534 3.97786L8.72705 3.71234L9.35236 3.20097Z" fill="#E0E0E0"/>
<path d="M12.4144 4.8531L12.2457 4.65642L11.6253 5.16779L11.8288 5.37922L12.4144 4.8531Z" fill="#E0E0E0"/>
<path d="M15 5.47756C14.9454 5.78242 14.8809 6.08236 14.7469 6.36263C14.3251 7.25753 13.6154 7.77381 12.6427 7.95083C12.4591 7.98525 12.2705 8 12.0868 7.99508C11.7742 7.99508 11.4566 7.99508 11.1439 7.99508C11.0794 7.99508 11.0248 7.99016 11.0248 7.90166C11.0248 7.52305 11.0248 7.14443 11.0248 6.76582C11.0248 6.70682 11.0596 6.6724 11.0993 6.63306C11.263 6.47572 11.4268 6.31837 11.5806 6.1512C11.6452 6.08727 11.6948 6.07252 11.7841 6.10694C12.4739 6.36263 13.2134 5.84142 13.1985 5.1137C13.1886 4.58758 12.7668 4.14505 12.2357 4.09588C11.7146 4.05163 11.2333 4.40565 11.1241 4.91702C11.0794 5.12354 11.0893 5.32514 11.1737 5.5169C11.2035 5.58574 11.1886 5.62999 11.139 5.68408C10.9355 5.88568 10.732 6.09219 10.5236 6.28887C10.4194 6.38721 10.3747 6.5003 10.3747 6.6429C10.3797 7.04118 10.3747 7.44437 10.3747 7.84265C10.3747 7.95083 10.3449 7.99508 10.2308 7.99016C10.0471 7.98033 9.86352 7.99016 9.6799 7.99016C9.6005 7.99016 9.57568 7.96066 9.57568 7.88691C9.57568 6.85433 9.57568 5.81684 9.57568 4.78426C9.57568 4.72034 9.59553 4.68592 9.66005 4.65642C10.0422 4.48924 10.2605 4.19422 10.2903 3.78119C10.33 3.2354 9.95782 2.71911 9.35732 2.67486C8.71712 2.62569 8.2407 3.0338 8.20596 3.66318C8.18114 4.06146 8.38462 4.4499 8.81142 4.64167C8.89082 4.67609 8.9206 4.72526 8.9206 4.80885C8.9206 5.82175 8.9206 6.83466 8.9206 7.84265C8.9206 7.95574 8.89082 7.99508 8.77668 7.99016C8.60298 7.98033 8.43424 7.98033 8.26055 7.99016C8.15137 7.99508 8.12159 7.95083 8.12159 7.84757C8.12159 7.43454 8.12159 7.02643 8.12159 6.6134C8.12159 6.49047 8.08189 6.39213 7.99256 6.30854C7.78908 6.10694 7.58561 5.90043 7.37717 5.70375C7.30769 5.63983 7.29777 5.58082 7.33251 5.49231C7.54094 4.94161 7.22333 4.31223 6.65757 4.14013C6.09181 3.96804 5.48139 4.30731 5.33747 4.87769C5.24318 5.26613 5.33747 5.61032 5.63027 5.88076C5.94293 6.16595 6.31514 6.25445 6.72209 6.10203C6.80645 6.07252 6.85608 6.08236 6.91563 6.14136C7.07444 6.30362 7.23325 6.46589 7.39702 6.62323C7.44665 6.6724 7.47643 6.72649 7.47643 6.80024C7.47643 7.15427 7.47643 7.50338 7.47643 7.8574C7.47643 7.96066 7.43673 7.99016 7.33747 7.99016C6.98511 7.99016 6.63276 8 6.2804 7.99016C4.72705 7.93608 3.67494 6.86908 3.51117 5.50707C3.40199 4.622 3.62531 3.83036 4.24566 3.16656C4.66749 2.7142 5.19851 2.46343 5.79901 2.33558C5.88834 2.31592 5.933 2.27658 5.96774 2.19791C6.54343 1.04241 7.47643 0.363858 8.75682 0.186845C10.2903 -0.0245874 11.794 0.708049 12.4839 2.13399C12.5484 2.26675 12.6278 2.33067 12.7767 2.36509C13.9975 2.64044 14.8065 3.51567 14.9851 4.73509C14.9851 4.75476 14.995 4.76951 15 4.78918V5.47756Z" fill="white"/>
<path d="M8.86104 3.71235C8.86104 3.48125 9.02481 3.31407 9.2531 3.31407C9.4665 3.31407 9.64516 3.49108 9.64516 3.70743C9.64516 3.91887 9.47146 4.1008 9.25806 4.10571C9.02977 4.10571 8.86104 3.94345 8.86104 3.71727V3.71235Z" fill="white"/>
<path d="M12.5385 5.13829C12.5385 5.35464 12.3697 5.53165 12.1563 5.53657C11.928 5.53657 11.7543 5.37431 11.7543 5.14813C11.7543 4.92194 11.9181 4.75476 12.1464 4.74985C12.3648 4.74985 12.5385 4.91703 12.5385 5.13338V5.13829Z" fill="white"/>
<path d="M6.7469 5.14812C6.7469 5.3743 6.57816 5.54148 6.34988 5.54148C6.13648 5.54148 5.96774 5.36447 5.96774 5.14812C5.96774 4.92685 6.13648 4.75967 6.35484 4.75967C6.58313 4.75967 6.7469 4.92194 6.7469 5.15304V5.14812Z" fill="white"/>
</g>
<defs>
<filter id="filter0_d_1_209" x="0.978745" y="-0.00238037" width="16.0213" height="12.0108" filterUnits="userSpaceOnUse" color-interpolation-filters="sRGB">
<feFlood flood-opacity="0" result="BackgroundImageFix"/>
<feColorMatrix in="SourceAlpha" type="matrix" values="0 0 0 0 0 0 0 0 0 0 0 0 0 0 0 0 0 0 127 0" result="hardAlpha"/>
<feOffset dy="2"/>
<feGaussianBlur stdDeviation="1"/>
<feComposite in2="hardAlpha" operator="out"/>
<feColorMatrix type="matrix" values="0 0 0 0 0 0 0 0 0 0 0 0 0 0 0 0 0 0 0.3 0"/>
<feBlend mode="normal" in2="BackgroundImageFix" result="effect1_dropShadow_1_209"/>
<feBlend mode="normal" in="SourceGraphic" in2="effect1_dropShadow_1_209" result="shape"/>
</filter>
</defs>
</svg>
