<svg width="32" height="32" viewBox="0 0 32 32" fill="none" xmlns="http://www.w3.org/2000/svg">
<path d="M10.04 32L21.96 32C27.5049 32 32 27.5049 32 21.96V10.04C32 4.49506 27.5049 0 21.96 0H10.04C4.49506 0 0 4.49506 0 10.04L0 21.96C0 27.5049 4.49506 32 10.04 32Z" fill="url(#paint0_linear_1_315)"/>
<g filter="url(#filter0_d_1_315)">
<path d="M22.1592 23.9782C19.9224 23.9782 17.7605 24 15.5237 24C15.6736 23.8142 16.2301 23.1585 16.2943 23.082C16.8187 22.4044 16.8401 22.4481 17.3752 21.7814C17.8462 21.2568 17.8354 21.1476 17.6 19.7705C17.5037 18.9618 17.4074 18.153 17.3003 17.3333C17.1933 16.5027 17.097 15.6612 16.99 14.8306C16.8936 14 16.7866 13.1803 16.6903 12.3607C16.6261 11.8579 16.5726 11.3552 16.5084 10.8634C16.4977 10.765 16.5084 10.6885 16.6368 10.6885C18.392 10.6885 20.1472 10.6885 21.9023 10.6885C22.1913 10.6885 22.6087 10.776 22.8441 10.9618C23.5826 11.4645 23.9037 12.3935 23.9893 12.6995C23.9893 16.1093 23.1652 18.6011 23.1652 22.0219C23.0903 22.2077 23.0368 22.4044 22.9084 22.5683C22.705 22.8306 22.4589 23.8798 22.1485 23.9782H22.1592Z" fill="white"/>
<path d="M8 14.6667C8 12.929 8 11.2022 8 9.46448C8 8.76503 8.40669 8.22951 9.08094 8.04372C9.22007 8 9.3592 8 9.49833 8C11.0823 8 12.6769 8 14.2609 8C15.0957 8 15.6843 8.54645 15.7806 9.36612C15.909 10.4481 16.0482 11.5301 16.1873 12.612C16.3264 13.7596 16.4656 14.9071 16.6154 16.0546C16.7545 17.2022 16.9043 18.3497 17.0435 19.4863C17.097 19.9126 17.1505 20.3388 17.204 20.765C17.2468 21.082 17.0221 21.3224 16.7117 21.3224C14.3037 21.3224 11.8957 21.3224 9.48763 21.3224C8.79197 21.3224 8.25686 20.918 8.06421 20.2514C8 20.1093 8 19.9563 8 19.8033C8 18.0874 8 16.3825 8 14.6667Z" fill="white"/>
<path d="M14.1539 21.9344C14.4856 21.9344 15.4381 21.9344 15.7699 21.9344C15.8127 21.9344 15.8769 21.9781 15.8876 22.0328C15.8983 22.0765 15.8876 22.1202 15.8662 22.153C15.4381 22.6339 14.7318 23.2678 14.3037 23.7486C14.2288 23.8251 14.1753 23.8251 14.0896 23.7705C13.7044 23.5191 13.1157 22.929 13.0622 22.459C13.0515 22.3279 13.0087 22.2186 13.0194 22.0765C13.0194 21.9672 13.0408 21.9235 13.1478 21.9235C13.4796 21.9235 13.8221 21.9235 14.1539 21.9235V21.9344Z" fill="white"/>
<path d="M22.9619 24H16.2515C16.2515 23.9235 16.3157 23.8798 16.3585 23.8361C16.9151 23.1803 17.4823 22.5246 18.0495 21.8689C18.3492 21.5301 18.4776 21.1366 18.4241 20.6885C18.3278 19.8798 18.2315 19.071 18.1244 18.2514C18.0174 17.4208 17.9211 16.5792 17.8141 15.7486C17.7177 14.918 17.6107 14.0984 17.5144 13.2787C17.4502 12.776 17.3967 12.2732 17.3325 11.7814C17.3218 11.6831 17.3325 11.6066 17.4609 11.6066C19.2161 11.6066 20.9713 11.6066 22.7264 11.6066C23.0154 11.6066 23.2723 11.7159 23.5077 11.9016C23.7646 12.1093 23.893 12.3935 23.9893 12.6995V22.929C23.9144 23.1148 23.9893 23.1475 23.7325 23.4754C23.5291 23.7377 23.2616 23.8907 22.9512 23.9891L22.9619 24ZM19.8368 15.6284C19.6549 15.6284 19.4622 15.6284 19.2803 15.6284C19.2803 15.6284 19.2589 15.6284 19.2482 15.6284C18.9913 15.6503 18.8201 15.8142 18.8094 16.0437C18.8094 16.2623 18.9592 16.4481 19.2161 16.47C19.3338 16.4809 19.3766 16.5465 19.4087 16.6448C19.5907 17.1803 19.8261 17.6721 20.1579 18.1312C20.3719 18.4262 20.3826 18.4262 20.1044 18.6667C19.8689 18.8634 19.6335 19.0492 19.398 19.2568C19.2589 19.3771 19.2161 19.5301 19.2696 19.7049C19.3231 19.8798 19.4408 19.9672 19.6121 20C19.7512 20.0219 19.8689 19.9563 19.9652 19.8689C20.2435 19.6284 20.5325 19.3989 20.8107 19.1585C20.9177 19.0601 20.9927 19.0601 21.0997 19.1585C21.3886 19.4317 21.7097 19.6721 22.0201 19.9016C22.2983 20.0984 22.6408 19.9454 22.6836 19.6175C22.705 19.4426 22.6194 19.3115 22.4803 19.2022C22.202 18.9836 21.9345 18.7541 21.6562 18.5355C21.5492 18.4481 21.5492 18.3825 21.6348 18.2732C22.0308 17.7705 22.3305 17.2241 22.5338 16.612C22.5659 16.5246 22.6087 16.4809 22.705 16.47C23.0261 16.4372 23.1866 16.1858 23.101 15.9016C23.0368 15.7268 22.8763 15.6175 22.6408 15.6175C22.2662 15.6175 21.8917 15.6175 21.5171 15.6175C21.4101 15.6175 21.3672 15.5847 21.3779 15.4754C21.3779 15.3443 21.3886 15.2022 21.3565 15.071C21.303 14.8853 21.1425 14.7541 20.9606 14.7541C20.7786 14.7541 20.6074 14.8853 20.5646 15.082C20.5325 15.1913 20.5432 15.3006 20.5432 15.4208C20.5432 15.6394 20.5432 15.6394 20.3398 15.6394C20.1793 15.6394 20.0187 15.6394 19.8475 15.6394L19.8368 15.6284Z" fill="#E2E2E2"/>
<path d="M8.8241 15.1148C8.8241 13.4973 8.8241 11.8798 8.8241 10.2623C8.8241 9.60656 9.19868 9.11476 9.79801 8.9399C9.92644 8.90711 10.0549 8.89618 10.1833 8.89618C11.6281 8.89618 13.0729 8.89618 14.5177 8.89618C15.2776 8.89618 15.8127 9.39891 15.8983 10.1749C16.0161 11.1913 16.1445 12.1967 16.2622 13.2022C16.3907 14.2732 16.5191 15.3443 16.6475 16.4044C16.7759 17.4754 16.9044 18.5355 17.0435 19.6066C17.097 20 17.1398 20.4044 17.1933 20.7978C17.2254 21.0929 17.0221 21.3224 16.7438 21.3224C14.5498 21.3224 12.3559 21.3224 10.1619 21.3224C9.51975 21.3224 9.03814 20.9399 8.86691 20.3169C8.8241 20.1749 8.8241 20.0328 8.8241 19.8907C8.8241 18.2951 8.8241 16.6995 8.8241 15.1038V15.1148ZM14.4642 16.8962C14.4642 16.8415 14.4535 16.776 14.4321 16.7104C14.1539 15.3115 13.8863 13.9126 13.608 12.5027C13.5438 12.1967 13.394 12.0656 13.0836 12.0656C12.8482 12.0656 12.6127 12.0656 12.3773 12.0656C12.0669 12.0656 11.9171 12.1967 11.8636 12.5027C11.703 13.3224 11.5425 14.1312 11.382 14.9508C11.2642 15.5738 11.1358 16.1967 11.0181 16.8197C10.9753 17.071 11.1144 17.2678 11.3498 17.3115C11.5853 17.3552 11.7779 17.2022 11.8315 16.918C11.9064 16.5246 11.992 16.1202 12.0669 15.7268C12.0883 15.5956 12.1418 15.5519 12.2703 15.5628C12.5271 15.5628 12.784 15.5628 13.0515 15.5628C13.4047 15.5628 13.3512 15.5082 13.4154 15.8689C13.4903 16.2404 13.5545 16.623 13.6402 16.9945C13.6937 17.2131 13.8756 17.3443 14.0789 17.3115C14.293 17.2896 14.4535 17.1148 14.4535 16.8853L14.4642 16.8962Z" fill="#E2E2E2"/>
<path d="M14.6247 22.2295C14.9565 22.2295 15.2883 22.2295 15.6201 22.2295C15.6629 22.2295 15.7164 22.2076 15.7378 22.2623C15.7485 22.306 15.7057 22.3279 15.6843 22.3606C15.2562 22.8415 14.8281 23.3224 14.4107 23.8033C14.3358 23.8798 14.2823 23.8798 14.1966 23.8251C13.8114 23.5738 13.5973 23.224 13.5438 22.7541C13.501 22.6229 13.4903 22.5136 13.501 22.3716C13.501 22.2623 13.5224 22.2186 13.6294 22.2186C13.9612 22.2186 14.3037 22.2186 14.6354 22.2186L14.6247 22.2295Z" fill="#E2E2E2"/>
<path d="M21.5492 16.5137C21.5492 16.5137 21.5277 16.5683 21.517 16.6011C21.3672 16.9836 21.1532 17.3333 20.907 17.6612C20.8428 17.7486 20.8 17.7486 20.7358 17.6612C20.4896 17.3333 20.297 16.9727 20.1471 16.5902C20.1043 16.4918 20.1364 16.459 20.2328 16.459C20.6395 16.459 21.0354 16.459 21.4421 16.459C21.4849 16.459 21.5384 16.4481 21.5492 16.5137Z" fill="#E2E2E2"/>
<path d="M12.7304 14.7104C12.6448 14.7104 12.5699 14.7104 12.4843 14.7104C12.2916 14.7104 12.2809 14.7104 12.3237 14.5137C12.3986 14.1093 12.4843 13.694 12.5699 13.2896C12.5913 13.2022 12.602 13.1148 12.6234 13.0273C12.6341 12.9617 12.6769 12.918 12.7518 12.918C12.8267 12.918 12.8695 12.9508 12.8802 13.0273C12.9766 13.541 13.0836 14.0656 13.1799 14.5792C13.2013 14.6885 13.1585 14.7104 13.0622 14.7104C12.9552 14.7104 12.8374 14.7104 12.7304 14.7104Z" fill="#E2E2E2"/>
</g>
<defs>
<filter id="filter0_d_1_315" x="4" y="8" width="24" height="24" filterUnits="userSpaceOnUse" color-interpolation-filters="sRGB">
<feFlood flood-opacity="0" result="BackgroundImageFix"/>
<feColorMatrix in="SourceAlpha" type="matrix" values="0 0 0 0 0 0 0 0 0 0 0 0 0 0 0 0 0 0 127 0" result="hardAlpha"/>
<feOffset dy="4"/>
<feGaussianBlur stdDeviation="2"/>
<feComposite in2="hardAlpha" operator="out"/>
<feColorMatrix type="matrix" values="0 0 0 0 0.0489583 0 0 0 0 0.165479 0 0 0 0 0.391667 0 0 0 0.25 0"/>
<feBlend mode="normal" in2="BackgroundImageFix" result="effect1_dropShadow_1_315"/>
<feBlend mode="normal" in="SourceGraphic" in2="effect1_dropShadow_1_315" result="shape"/>
</filter>
<linearGradient id="paint0_linear_1_315" x1="28.7859" y1="-0.146027" x2="-0.228312" y2="34.6839" gradientUnits="userSpaceOnUse">
<stop stop-color="#49A9BE"/>
<stop offset="1" stop-color="#185A96"/>
</linearGradient>
</defs>
</svg>
