<svg width="49" height="49" viewBox="0 0 49 49" fill="none" xmlns="http://www.w3.org/2000/svg">
<path d="M16.0346 48.0948L33.9146 48.0948C42.232 48.0948 48.9746 41.3522 48.9746 33.0348L48.9746 15.1548C48.9746 6.83738 42.232 0.0947876 33.9146 0.0947876L16.0346 0.0947876C7.71717 0.0947876 0.974579 6.83738 0.974579 15.1548L0.974579 33.0348C0.974579 41.3522 7.71717 48.0948 16.0346 48.0948Z" fill="url(#paint0_linear_1_130)"/>
<g filter="url(#filter0_d_1_130)">
<path d="M35.4637 25.1312C35.4049 25.601 35.3462 26.0825 35.2405 26.5522C35.2053 26.7284 35.1348 26.7989 34.9352 26.7989C33.3145 26.7989 31.6939 26.7989 30.0732 26.7989C29.8971 26.7989 29.8266 26.7636 29.8383 26.564C29.8971 25.648 29.944 24.7437 29.9205 23.8276C29.8971 23.0526 29.8736 22.2657 29.7796 21.4906C29.7444 21.197 29.7561 21.1853 30.0615 21.1853C31.6117 21.1853 33.1619 21.1853 34.7121 21.1853C34.9117 21.1853 35.0057 21.244 35.0526 21.4436C35.2288 22.0896 35.3697 22.7472 35.4284 23.4166C35.4284 23.4636 35.4519 23.5223 35.4519 23.5693V25.143L35.4637 25.1312Z" fill="white"/>
<path d="M25.1408 34.4324C24.4244 34.174 24.0251 33.5986 23.6845 32.9761C23.0621 31.8722 22.7215 30.6743 22.4514 29.4412C22.3575 29.0067 22.2988 28.5722 22.2165 28.1494C22.1813 27.985 22.2165 27.9145 22.4162 27.9145C24.3892 27.9145 26.3739 27.9145 28.3469 27.9145C28.5348 27.9145 28.57 27.985 28.5465 28.1494C28.3116 29.6526 27.9711 31.1441 27.3251 32.5299C27.1255 32.9527 26.8906 33.3519 26.597 33.716C26.3387 34.0331 26.0333 34.3032 25.634 34.4324H25.1643H25.1408Z" fill="#DCDCDC"/>
<path d="M25.3639 26.7871C24.3539 26.7871 23.344 26.7871 22.334 26.7871C22.1461 26.7871 22.0521 26.7519 22.0404 26.5405C21.9817 25.601 21.923 24.6732 21.9582 23.7337C21.9817 22.9938 22.0286 22.2657 22.0874 21.5376C22.1226 21.1853 22.1109 21.1853 22.4514 21.1853C24.4127 21.1853 26.3621 21.1853 28.3234 21.1853C28.617 21.1853 28.617 21.1853 28.6522 21.4789C28.7579 22.5476 28.8166 23.6163 28.8049 24.685C28.8049 25.3191 28.7814 25.9533 28.7109 26.5875C28.6874 26.7636 28.617 26.7989 28.4643 26.7989C27.4308 26.7989 26.3974 26.7989 25.3757 26.7989L25.3639 26.7871Z" fill="white"/>
<path d="M18.2119 26.7871C17.4133 26.7871 16.6147 26.7871 15.8044 26.7871C15.6047 26.7871 15.5343 26.7166 15.4873 26.5287C15.1232 24.8024 15.182 23.0878 15.6869 21.3967C15.7339 21.2322 15.8161 21.1735 15.9923 21.1735C17.566 21.1735 19.1396 21.1735 20.7251 21.1735C20.9599 21.1735 20.9834 21.197 20.9599 21.4319C20.8308 22.5945 20.7955 23.7572 20.8073 24.9316C20.8073 25.4718 20.8543 26.0238 20.8895 26.564C20.9012 26.7519 20.8308 26.7871 20.6664 26.7871C19.8443 26.7871 19.0222 26.7871 18.2001 26.7871H18.2119Z" fill="white"/>
<path d="M25.3757 20.0461C24.4244 20.0461 23.4849 20.0461 22.5336 20.0461C22.3105 20.0461 22.287 20.0344 22.334 19.8112C22.5571 18.5781 22.8742 17.3685 23.4027 16.2176C23.661 15.6539 23.9781 15.1254 24.4244 14.6909C25.0586 14.0802 25.6927 14.0802 26.3269 14.6909C26.4678 14.8318 26.597 14.9727 26.7145 15.1372C27.1372 15.7126 27.4308 16.3468 27.6775 17.0044C28.018 17.9087 28.2412 18.8482 28.4173 19.7995C28.4643 20.0344 28.4526 20.0461 28.2059 20.0461C27.2547 20.0461 26.3152 20.0461 25.3639 20.0461H25.3757Z" fill="white"/>
<path d="M34.7943 28.0085C34.7943 28.0085 34.759 28.1141 34.7355 28.1611C33.4202 31.2028 31.1654 33.1993 27.9711 34.1153C27.8888 34.1388 27.7832 34.2092 27.7362 34.1388C27.6892 34.0683 27.7949 33.9861 27.8301 33.9274C28.5348 32.8235 28.9458 31.6138 29.2511 30.3572C29.4273 29.6526 29.5565 28.948 29.6504 28.2316C29.6857 27.9262 29.6974 27.9262 30.0027 27.9262C31.5177 27.9262 33.0327 27.9262 34.5594 27.9262C34.6416 27.9262 34.7473 27.8793 34.7825 28.0202L34.7943 28.0085Z" fill="#DCDCDC"/>
<path d="M18.4937 27.9145C19.2336 27.9145 19.9735 27.9145 20.7251 27.9145C21.0422 27.9145 21.0422 27.9145 21.0891 28.2316C21.2418 29.3708 21.4884 30.4982 21.8407 31.5904C22.1226 32.4359 22.4632 33.2462 22.9564 33.9979C22.9799 34.0448 23.0386 34.0918 23.0151 34.1388C22.9799 34.1975 22.9094 34.1505 22.8507 34.1388C21.324 33.7512 19.9735 33.0349 18.7873 32.0131C17.5777 30.9679 16.6617 29.7113 16.0393 28.2434C16.0393 28.2199 16.0275 28.2081 16.0158 28.1846C15.9101 27.938 15.9218 27.9145 16.1919 27.9145C16.9553 27.9145 17.7304 27.9145 18.4937 27.9145Z" fill="#DCDCDC"/>
<path d="M32.0697 20.0461C31.3298 20.0461 30.5899 20.0461 29.8383 20.0461C29.6739 20.0461 29.5917 20.0109 29.5682 19.823C29.3334 18.4724 29.0045 17.1336 28.4408 15.877C28.2647 15.4777 28.0533 15.1019 27.8184 14.7379C27.7832 14.6792 27.6775 14.6087 27.7362 14.5382C27.7832 14.4795 27.8771 14.5382 27.9358 14.55C29.4508 14.9493 30.7896 15.6539 31.9757 16.6756C32.9857 17.5564 33.8078 18.5899 34.4067 19.7995C34.5242 20.0344 34.5242 20.0461 34.254 20.0461C33.5259 20.0461 32.7978 20.0461 32.0697 20.0461Z" fill="white"/>
<path d="M23.0151 14.5382C23.0151 14.5382 23.0151 14.6204 22.9799 14.6557C22.1343 15.9357 21.6881 17.3802 21.3592 18.86C21.2888 19.1888 21.2183 19.5176 21.1713 19.8465C21.1478 19.9991 21.0891 20.0578 20.9365 20.0578C19.4332 20.0578 17.93 20.0578 16.4268 20.0578C16.2389 20.0578 16.2272 20.0344 16.3211 19.8465C16.9905 18.5077 17.9065 17.3802 19.0692 16.4407C20.1614 15.5717 21.3827 14.9493 22.7333 14.5852C22.8272 14.5617 22.9212 14.5147 23.0151 14.55V14.5382Z" fill="white"/>
</g>
<path d="M35.3345 25.2486C35.2758 25.6949 35.217 26.1412 35.1231 26.5874C35.0879 26.7518 35.0174 26.8223 34.8295 26.8223C33.2441 26.8223 31.6586 26.8223 30.0732 26.8223C29.9088 26.8223 29.8383 26.7871 29.8501 26.5992C29.9088 25.7419 29.9558 24.8728 29.9323 24.0155C29.9088 23.2757 29.8853 22.5358 29.7914 21.8077C29.7561 21.5376 29.7679 21.5141 30.0732 21.5141C31.5882 21.5141 33.1031 21.5141 34.6181 21.5141C34.8178 21.5141 34.9 21.5728 34.9587 21.7607C35.1348 22.3714 35.264 22.9938 35.3227 23.6162C35.3227 23.6632 35.3345 23.7102 35.3462 23.7572V25.2486H35.3345Z" fill="#DCDCDC"/>
<path d="M25.3639 26.7871C24.3657 26.7871 23.3675 26.7871 22.3692 26.7871C22.1813 26.7871 22.0874 26.7636 22.0756 26.5522C22.0169 25.6714 21.9699 24.8024 21.9934 23.9216C22.0169 23.2287 22.0521 22.5475 22.1226 21.8664C22.1578 21.5376 22.1461 21.5376 22.4867 21.5376C24.4244 21.5376 26.3504 21.5376 28.2881 21.5376C28.57 21.5376 28.5817 21.5376 28.6052 21.8077C28.7109 22.8059 28.7696 23.8041 28.7462 24.8024C28.7462 25.4013 28.7227 25.9885 28.6522 26.5874C28.6287 26.7519 28.5583 26.7871 28.4056 26.7871C27.3839 26.7871 26.3739 26.7871 25.3522 26.7871H25.3639Z" fill="#DCDCDC"/>
<path d="M18.2706 26.7871C17.4955 26.7871 16.7204 26.7871 15.9453 26.7871C15.7574 26.7871 15.6869 26.7284 15.64 26.5522C15.2877 24.9668 15.3464 23.4048 15.8279 21.8546C15.8748 21.702 15.9571 21.6432 16.1215 21.6432C17.6482 21.6432 19.1631 21.6432 20.6898 21.6432C20.9247 21.6432 20.9482 21.6667 20.9247 21.8781C20.8073 22.9468 20.7603 24.0038 20.7838 25.0725C20.7838 25.5657 20.8308 26.0707 20.866 26.5639C20.8777 26.7284 20.819 26.7636 20.6546 26.7636C19.8678 26.7636 19.0692 26.7636 18.2823 26.7636L18.2706 26.7871Z" fill="#DCDCDC"/>
<path d="M25.3639 20.0696C24.4714 20.0696 23.5788 20.0696 22.6863 20.0696C22.4749 20.0696 22.4632 20.0578 22.4984 19.8582C22.7098 18.7308 23.0034 17.6268 23.5084 16.5816C23.755 16.0649 24.0486 15.5834 24.4714 15.1841C25.0586 14.6322 25.6693 14.6322 26.2565 15.1841C26.3856 15.3133 26.5148 15.4425 26.6205 15.5952C27.0198 16.1119 27.2899 16.6991 27.5248 17.298C27.8419 18.1201 28.065 18.9774 28.2177 19.8464C28.2529 20.0578 28.2529 20.0696 28.018 20.0696C27.1255 20.0696 26.233 20.0696 25.3404 20.0696H25.3639Z" fill="#DCDCDC"/>
<path d="M32.1519 20.0578C31.4473 20.0578 30.7426 20.0578 30.038 20.0578C29.8853 20.0578 29.8031 20.0226 29.7796 19.8582C29.5565 18.6133 29.2511 17.392 28.7109 16.2411C28.5465 15.877 28.3469 15.5247 28.1237 15.1959C28.0885 15.1371 27.9946 15.0784 28.0415 15.008C28.0885 14.9492 28.1707 15.008 28.2294 15.0197C29.6622 15.3838 30.9423 16.0297 32.0579 16.9692C33.0209 17.7795 33.7843 18.7308 34.3597 19.8347C34.4772 20.0461 34.4654 20.0578 34.2071 20.0578C33.5142 20.0578 32.8213 20.0578 32.1401 20.0578H32.1519Z" fill="#DCDCDC"/>
<path d="M22.7333 14.9962C22.7333 14.9962 22.7333 15.0667 22.6981 15.1019C21.8995 16.2763 21.4767 17.5916 21.1713 18.9539C21.1009 19.2475 21.0422 19.5528 20.9952 19.8582C20.9717 19.9991 20.913 20.0578 20.7721 20.0578C19.351 20.0578 17.93 20.0578 16.509 20.0578C16.3329 20.0578 16.3211 20.0343 16.4151 19.8699C17.0492 18.6486 17.9183 17.6034 19.0222 16.7578C20.0557 15.9592 21.2066 15.3955 22.4867 15.0549C22.5689 15.0314 22.6628 14.9845 22.7568 15.0197L22.7333 14.9962Z" fill="#DCDCDC"/>
<defs>
<filter id="filter0_d_1_130" x="11.254" y="14.2329" width="28.2097" height="28.1995" filterUnits="userSpaceOnUse" color-interpolation-filters="sRGB">
<feFlood flood-opacity="0" result="BackgroundImageFix"/>
<feColorMatrix in="SourceAlpha" type="matrix" values="0 0 0 0 0 0 0 0 0 0 0 0 0 0 0 0 0 0 127 0" result="hardAlpha"/>
<feOffset dy="4"/>
<feGaussianBlur stdDeviation="2"/>
<feComposite in2="hardAlpha" operator="out"/>
<feColorMatrix type="matrix" values="0 0 0 0 0.108333 0 0 0 0 0.307667 0 0 0 0 0.541667 0 0 0 0.5 0"/>
<feBlend mode="normal" in2="BackgroundImageFix" result="effect1_dropShadow_1_130"/>
<feBlend mode="normal" in="SourceGraphic" in2="effect1_dropShadow_1_130" result="shape"/>
</filter>
<linearGradient id="paint0_linear_1_130" x1="44.1534" y1="-0.124254" x2="0.632111" y2="52.1207" gradientUnits="userSpaceOnUse">
<stop stop-color="#49A9BE"/>
<stop offset="1" stop-color="#185A96"/>
</linearGradient>
</defs>
</svg>
