<svg width="44" height="44" viewBox="0 0 44 44" fill="none" xmlns="http://www.w3.org/2000/svg">
<g filter="url(#filter0_d_1_198)">
<path d="M36 11.854V27.5339C35.9757 27.6191 35.9392 27.7164 35.9149 27.8015C35.5499 28.8963 34.6011 29.5897 33.4455 29.5897C31.6208 29.5897 29.7961 29.5897 27.9715 29.5897C27.6309 29.5897 27.6187 29.5776 27.7282 29.2613C27.9958 28.4706 28.1783 27.6677 28.2513 26.8406C28.3486 25.5876 28.3121 24.3225 28.2999 23.0696C28.2878 22.0113 27.8255 21.1841 26.8402 20.7462C25.3318 20.0771 23.7383 19.7365 22.0839 19.6757C20.1862 19.6027 18.3616 19.9312 16.5977 20.6124C15.43 21.0625 14.8096 21.914 14.8096 23.1669C14.8096 24.0549 14.8096 24.9307 14.8096 25.8187C14.8217 26.9744 14.9799 28.1178 15.3691 29.2248C15.5029 29.5897 15.4908 29.6019 15.1015 29.6019C13.3133 29.6019 11.5252 29.6019 9.74917 29.6019C8.17996 29.6019 7.09732 28.5192 7.09732 26.9379C7.09732 22.8871 7.09732 19.7365 7.09732 15.6858C7.09732 15.3776 7.2514 15.2235 7.55957 15.2235C11.7563 15.2235 16.2815 15.2235 20.466 15.2235C20.9161 15.2235 21.2446 15.0654 21.5 14.6761C22.0474 13.8246 22.6191 13.0096 23.1665 12.1581C23.3247 11.9148 23.495 11.8297 23.7869 11.8297C27.8498 11.8297 31.5722 11.8297 35.6351 11.8297C35.7567 11.8297 35.8784 11.8418 36 11.854Z" fill="#EAEFF4"/>
<path d="M35.9149 9.26296C35.7689 9.26296 35.6107 9.28729 35.4648 9.28729C31.2559 9.28729 27.047 9.28729 22.8381 9.28729C22.3393 9.28729 21.9866 9.45759 21.719 9.88335C21.1837 10.7349 20.5998 11.562 20.0524 12.4014C19.9308 12.596 19.7848 12.6812 19.5537 12.6812C15.5029 12.6812 11.4522 12.6812 7.40143 12.6812C7.02433 12.6812 7.02433 12.6812 7.02433 12.3162C7.02433 11.0146 7 10.82 7 9.51841C7 8.13167 8.13129 7.00038 9.50587 7.00038C17.4614 7.00038 25.4291 7.00038 33.3847 7.00038C34.4794 7.00038 35.1728 6.96388 35.8054 7.6086C35.8419 7.71808 35.8784 7.82756 35.9149 7.92487V9.27513V9.26296ZM11.2819 10.078C11.7076 10.078 12.0969 9.67655 12.0847 9.26296C12.0847 8.83721 11.6955 8.44794 11.2697 8.44794C10.844 8.44794 10.4304 8.86154 10.4425 9.28729C10.4547 9.71305 10.8561 10.0901 11.2697 10.0901L11.2819 10.078ZM15.4786 9.26296C15.4786 8.84937 15.1015 8.44794 14.6758 8.43578C14.2622 8.43578 13.8607 8.81288 13.8486 9.23863C13.8364 9.66439 14.2378 10.078 14.6636 10.078C15.0772 10.078 15.4786 9.68872 15.4786 9.26296ZM18.021 10.078C18.4346 10.0901 18.836 9.71305 18.8603 9.28729C18.8846 8.8737 18.5076 8.47227 18.0818 8.44794C17.6682 8.42362 17.2424 8.81288 17.2303 9.2508C17.2303 9.66439 17.6074 10.0658 18.021 10.078Z" fill="url(#paint0_linear_1_198)"/>
<g filter="url(#filter1_d_1_198)">
<path d="M17 25.4471C17 24.7902 17 24.2428 17 23.6954C17 23.2818 17.1825 22.9899 17.5717 22.8439C20.4182 21.7248 23.2768 21.7126 26.1355 22.8439C26.5612 23.0142 26.7194 23.2575 26.7194 23.7076C26.7194 24.7416 26.768 25.7755 26.7194 26.7974C26.5248 29.8993 25.0285 32.1984 22.2915 33.6946C21.9996 33.8527 21.7076 33.8406 21.4157 33.6946C19.0558 32.4173 17.6204 30.4588 17.1095 27.8192C16.9513 27.0041 17.0243 26.177 17 25.4714V25.4471ZM24.323 26.8217C24.323 26.3594 24.0067 26.0432 23.581 26.031C23.3255 26.031 23.1309 26.1283 22.9606 26.2986C22.5105 26.7487 22.0604 27.1988 21.6103 27.6489C21.2454 28.0138 21.3184 28.0016 20.9534 27.6489C20.8805 27.5759 20.8075 27.4907 20.7223 27.4177C20.3695 27.0893 19.9073 27.0771 19.591 27.3934C19.2991 27.6854 19.2991 28.1719 19.6275 28.5125C19.9803 28.8775 20.3452 29.2424 20.7102 29.5952C21.0629 29.9358 21.513 29.9358 21.8658 29.5952C22.6078 28.8653 23.3498 28.1111 24.0919 27.3691C24.25 27.2109 24.3352 27.0163 24.323 26.8217Z" fill="#60C9E0"/>
</g>
</g>
<defs>
<filter id="filter0_d_1_198" x="1" y="6" width="37" height="34.8087" filterUnits="userSpaceOnUse" color-interpolation-filters="sRGB">
<feFlood flood-opacity="0" result="BackgroundImageFix"/>
<feColorMatrix in="SourceAlpha" type="matrix" values="0 0 0 0 0 0 0 0 0 0 0 0 0 0 0 0 0 0 127 0" result="hardAlpha"/>
<feOffset dx="-2" dy="3"/>
<feGaussianBlur stdDeviation="2"/>
<feComposite in2="hardAlpha" operator="out"/>
<feColorMatrix type="matrix" values="0 0 0 0 0.0489583 0 0 0 0 0.165479 0 0 0 0 0.391667 0 0 0 0.25 0"/>
<feBlend mode="normal" in2="BackgroundImageFix" result="effect1_dropShadow_1_198"/>
<feBlend mode="normal" in="SourceGraphic" in2="effect1_dropShadow_1_198" result="shape"/>
</filter>
<filter id="filter1_d_1_198" x="13" y="18" width="17.741" height="19.8087" filterUnits="userSpaceOnUse" color-interpolation-filters="sRGB">
<feFlood flood-opacity="0" result="BackgroundImageFix"/>
<feColorMatrix in="SourceAlpha" type="matrix" values="0 0 0 0 0 0 0 0 0 0 0 0 0 0 0 0 0 0 127 0" result="hardAlpha"/>
<feOffset/>
<feGaussianBlur stdDeviation="2"/>
<feComposite in2="hardAlpha" operator="out"/>
<feColorMatrix type="matrix" values="0 0 0 0 0.5 0 0 0 0 0.94 0 0 0 0 1 0 0 0 0.9 0"/>
<feBlend mode="normal" in2="BackgroundImageFix" result="effect1_dropShadow_1_198"/>
<feBlend mode="normal" in="SourceGraphic" in2="effect1_dropShadow_1_198" result="shape"/>
</filter>
<linearGradient id="paint0_linear_1_198" x1="11" y1="5.5" x2="24" y2="14.5" gradientUnits="userSpaceOnUse">
<stop stop-color="#185A96"/>
<stop offset="1" stop-color="#60C9E0"/>
</linearGradient>
</defs>
</svg>
