<svg width="32" height="33" viewBox="0 0 32 33" fill="none" xmlns="http://www.w3.org/2000/svg">
<path d="M10.04 32L21.96 32C27.5049 32 32 27.5049 32 21.96V10.04C32 4.49506 27.5049 0 21.96 0H10.04C4.49506 0 0 4.49506 0 10.04L0 21.96C0 27.5049 4.49506 32 10.04 32Z" fill="url(#paint0_linear_1_358)"/>
<g filter="url(#filter0_d_1_358)">
<path d="M15.89 9.02C17.78 9.02 20.1 9 21.98 9C22.49 9 22.89 9.21 23.11 9.69C23.18 9.85 23.21 10.02 23.21 10.2C23.21 10.8 23.21 11.4 23.21 12C23.21 12.71 22.28 13.22 21.58 13.22C17.79 13.22 14 13.69 10.2 13.69C9.5 13.69 9.01 13.2 9 12.49C9 11.89 9 10.83 9 10.23C9 9.51 9.5 9.02 10.22 9.02C12.11 9.02 14 9.02 15.89 9.02ZM19.74 10.65C19.42 10.65 19.24 10.82 18.93 10.83C18.65 10.83 18.44 11.05 18.45 11.3C18.45 11.54 18.66 11.76 18.93 11.76C19.56 11.76 20.19 11.76 20.81 11.76C21.02 11.76 21.2 11.62 21.26 11.45C21.37 11.14 21.14 10.84 20.8 10.83C20.5 10.83 20.05 10.65 19.74 10.65ZM14.85 11.29C14.85 10.95 14.58 10.67 14.24 10.67C13.89 10.67 13.61 10.94 13.61 11.29C13.61 11.63 13.89 11.91 14.23 11.91C14.57 11.91 14.85 11.63 14.85 11.29ZM12.61 11.29C12.61 10.95 12.34 10.67 12 10.67C11.66 10.67 11.38 10.95 11.37 11.28C11.37 11.62 11.65 11.91 12 11.91C12.34 11.91 12.61 11.63 12.61 11.29Z" fill="white"/>
<path d="M15.88 18.86C14 18.86 12.12 18.86 10.24 18.86C9.73001 18.86 9.33001 18.65 9.11001 18.17C9.04001 18.01 9.01001 17.84 9.01001 17.66C9.01001 17.06 9.01001 15.99 9.01001 15.39C9.01001 14.68 9.51001 14.19 10.21 14.19C14 14.19 18.23 14.19 22.02 14.19C22.73 14.19 23.21 14.68 23.22 15.39C23.22 15.98 23.22 16.58 23.22 17.17C23.22 17.89 22.29 18.39 21.57 18.39C19.67 18.39 17.78 18.86 15.88 18.86ZM19.87 16.88C19.87 16.88 20.51 16.88 20.83 16.88C21.1 16.88 21.31 16.66 21.31 16.42C21.31 16.17 21.1 16 20.83 15.99C20.2 15.99 19.42 15.82 18.79 15.83C18.57 15.83 18.56 16.12 18.49 16.31C18.38 16.62 18.61 16.88 18.96 16.89C19.26 16.89 19.57 16.89 19.87 16.89V16.88ZM13.56 16.46C13.56 16.8 13.83 17.08 14.17 17.08C14.51 17.08 14.79 16.81 14.8 16.47C14.8 16.12 14.52 15.84 14.18 15.84C13.84 15.84 13.56 16.11 13.56 16.46ZM12.56 16.46C12.56 16.11 12.29 15.84 11.95 15.84C11.6 15.84 11.31 16.13 11.32 16.47C11.32 16.81 11.61 17.08 11.95 17.08C12.29 17.08 12.56 16.81 12.56 16.46Z" fill="white"/>
<path d="M15.9 19.37C17.79 19.37 20.11 19.37 21.99 19.37C22.5 19.37 22.89 19.58 23.12 20.06C23.19 20.22 23.22 20.39 23.22 20.57C23.22 21.16 23.22 21.76 23.22 22.35C23.22 23.07 22.3 24.03 21.59 24.03C17.8 24.03 14.01 24.03 10.22 24.03C9.51001 24.03 9.01001 23.54 9.01001 22.82C9.01001 22.24 9.01001 21.18 9.01001 20.6C9.01001 19.85 9.50001 19.36 10.25 19.36C12.14 19.36 14.02 19.36 15.91 19.36L15.9 19.37ZM19.73 21C19.42 21 19.1 21 18.79 21C18.51 21 18.3 21.22 18.31 21.47C18.31 21.71 18.65 22.01 18.92 22.01C19.55 22.01 20.18 22.01 20.8 22.01C21.01 22.01 21.19 21.87 21.25 21.7C21.36 21.39 21.15 21.08 20.8 21.07C20.49 21.07 20.04 21 19.73 21ZM14.8 21.62C14.8 21.28 14.52 21 14.18 21C13.83 21 13.55 21.27 13.56 21.63C13.56 21.97 13.84 22.24 14.18 22.24C14.52 22.24 14.8 21.96 14.8 21.62ZM12.56 21.62C12.56 21.28 12.29 21 11.94 21C11.6 21 11.32 21.28 11.32 21.62C11.32 21.96 11.61 22.25 11.95 22.24C12.29 22.24 12.56 21.96 12.56 21.62Z" fill="white"/>
<path d="M16.33 9.48999C18.22 9.48999 20.1 9.48999 21.99 9.48999C22.5 9.48999 22.9 9.69999 23.12 10.18C23.19 10.34 23.22 10.51 23.22 10.69C23.22 11.29 23.22 11.89 23.22 12.49C23.22 13.2 22.72 13.69 22.02 13.69C18.23 13.69 14.44 13.69 10.64 13.69C9.94 13.69 9.45 13.2 9.44 12.49C9.44 11.9 9.44 11.3 9.44 10.71C9.44 9.98999 9.93 9.49999 10.66 9.49999C12.55 9.49999 14.44 9.49999 16.33 9.49999V9.48999ZM20.18 11.12C19.86 11.12 19.54 11.12 19.22 11.12C18.94 11.12 18.73 11.34 18.74 11.59C18.74 11.83 18.95 12.05 19.22 12.05C19.85 12.05 20.48 12.05 21.1 12.05C21.31 12.05 21.49 11.91 21.55 11.74C21.66 11.43 21.43 11.13 21.09 11.12C20.79 11.12 20.48 11.12 20.18 11.12ZM15.04 11.59C15.04 11.25 14.77 10.97 14.43 10.97C14.08 10.97 13.8 11.24 13.8 11.59C13.8 11.93 14.08 12.21 14.42 12.21C14.76 12.21 15.04 11.93 15.04 11.59ZM12.8 11.59C12.8 11.25 12.53 10.97 12.19 10.97C11.85 10.97 11.57 11.25 11.56 11.58C11.56 11.92 11.84 12.21 12.19 12.21C12.53 12.21 12.8 11.93 12.8 11.59Z" fill="#E2E2E2"/>
<path d="M16.31 18.86C14.43 18.86 12.55 18.86 10.67 18.86C10.16 18.86 9.76 18.65 9.54 18.17C9.47 18.01 9.44 17.84 9.44 17.66C9.44 17.06 9.44 16.46 9.44 15.86C9.44 15.15 9.94 14.66 10.64 14.66C14.43 14.66 18.22 14.66 22.02 14.66C22.73 14.66 23.21 15.15 23.22 15.86C23.22 16.45 23.22 17.05 23.22 17.64C23.22 18.36 22.73 18.85 22 18.85C20.1 18.85 18.21 18.85 16.31 18.85V18.86ZM20.14 17.23C20.46 17.23 20.78 17.23 21.1 17.23C21.37 17.23 21.58 17.01 21.58 16.77C21.58 16.52 21.37 16.3 21.1 16.3C20.47 16.3 19.84 16.3 19.22 16.3C19 16.3 18.83 16.43 18.77 16.61C18.66 16.92 18.89 17.22 19.24 17.23C19.54 17.23 19.85 17.23 20.15 17.23H20.14ZM13.79 16.76C13.79 17.1 14.06 17.38 14.4 17.38C14.74 17.38 15.02 17.11 15.03 16.77C15.03 16.42 14.75 16.14 14.41 16.14C14.07 16.14 13.79 16.41 13.79 16.76ZM12.79 16.76C12.79 16.41 12.52 16.14 12.18 16.14C11.83 16.14 11.54 16.43 11.55 16.77C11.55 17.11 11.84 17.38 12.18 17.38C12.52 17.38 12.79 17.11 12.79 16.76Z" fill="#E2E2E2"/>
<path d="M16.33 19.84C18.22 19.84 20.1 19.84 21.99 19.84C22.5 19.84 22.89 20.05 23.12 20.53C23.19 20.69 23.22 20.86 23.22 21.04C23.22 21.63 23.22 22.23 23.22 22.82C23.22 23.54 22.73 24.03 22.01 24.03C18.22 24.03 14.44 24.03 10.65 24.03C9.94 24.03 9.44 23.54 9.44 22.82C9.44 22.24 9.44 21.65 9.44 21.07C9.44 20.32 9.93 19.83 10.68 19.83C12.57 19.83 14.45 19.83 16.34 19.83L16.33 19.84ZM20.16 21.47C19.85 21.47 19.53 21.47 19.22 21.47C18.94 21.47 18.73 21.69 18.74 21.94C18.74 22.18 18.95 22.4 19.22 22.4C19.85 22.4 20.48 22.4 21.1 22.4C21.31 22.4 21.49 22.26 21.55 22.09C21.66 21.78 21.43 21.48 21.08 21.47C20.77 21.47 20.46 21.47 20.15 21.47H20.16ZM15.03 21.94C15.03 21.6 14.75 21.32 14.41 21.32C14.06 21.32 13.78 21.59 13.79 21.95C13.79 22.29 14.07 22.56 14.41 22.56C14.75 22.56 15.03 22.28 15.03 21.94ZM12.79 21.94C12.79 21.6 12.52 21.32 12.17 21.32C11.83 21.32 11.55 21.6 11.55 21.94C11.55 22.28 11.84 22.57 12.18 22.56C12.52 22.56 12.79 22.28 12.79 21.94Z" fill="#E2E2E2"/>
</g>
<defs>
<filter id="filter0_d_1_358" x="5" y="9" width="22.22" height="23.04" filterUnits="userSpaceOnUse" color-interpolation-filters="sRGB">
<feFlood flood-opacity="0" result="BackgroundImageFix"/>
<feColorMatrix in="SourceAlpha" type="matrix" values="0 0 0 0 0 0 0 0 0 0 0 0 0 0 0 0 0 0 127 0" result="hardAlpha"/>
<feOffset dy="4"/>
<feGaussianBlur stdDeviation="2"/>
<feComposite in2="hardAlpha" operator="out"/>
<feColorMatrix type="matrix" values="0 0 0 0 0.0489583 0 0 0 0 0.165479 0 0 0 0 0.391667 0 0 0 0.25 0"/>
<feBlend mode="normal" in2="BackgroundImageFix" result="effect1_dropShadow_1_358"/>
<feBlend mode="normal" in="SourceGraphic" in2="effect1_dropShadow_1_358" result="shape"/>
</filter>
<linearGradient id="paint0_linear_1_358" x1="28.7859" y1="-0.146027" x2="-0.228312" y2="34.6839" gradientUnits="userSpaceOnUse">
<stop stop-color="#49A9BE"/>
<stop offset="1" stop-color="#185A96"/>
</linearGradient>
</defs>
</svg>
