<svg width="32" height="33" viewBox="0 0 32 33" fill="none" xmlns="http://www.w3.org/2000/svg">
<path d="M10.04 32L21.96 32C27.5049 32 32 27.5049 32 21.96V10.04C32 4.49506 27.5049 0 21.96 0H10.04C4.49506 0 0 4.49506 0 10.04L0 21.96C0 27.5049 4.49506 32 10.04 32Z" fill="url(#paint0_linear_1_340)"/>
<g filter="url(#filter0_d_1_340)">
<path d="M25.926 18.7073C25.6422 19.1342 25.2721 18.8659 24.7786 18.7073C24.4331 18.5976 24.0876 18.4878 23.7422 18.3781C23.3597 18.2439 23.1623 17.9146 23.2734 17.5732C23.3844 17.2073 23.7422 17.0366 24.1493 17.1585C24.5071 17.2683 24.8773 17.4025 25.235 17.5C25.4941 17.5732 25.8766 17.8781 25.9753 18.122C26.0617 18.5366 25.926 18.5732 25.926 18.7073Z" fill="white"/>
<path d="M11.5032 20.0122C11.5403 19.561 11.639 19.122 11.713 18.6829C11.8117 18.0854 11.9227 17.4878 12.0214 16.8902C12.0461 16.7561 12.0214 16.6707 11.9104 16.5732C11.2071 15.9024 10.5039 15.2439 9.81298 14.561C9.12207 13.8781 9.20844 12.8049 9.97337 12.2683C10.2448 12.0854 10.5532 12.0244 10.874 11.9756C11.7623 11.8537 12.6383 11.7195 13.5266 11.5976C13.6747 11.5732 13.7487 11.5122 13.8227 11.3902C14.2545 10.5122 14.6864 9.63415 15.1429 8.7561C15.6117 7.84147 17.413 7.7561 18.1162 8.5C18.2273 8.62196 18.3136 8.7683 18.3877 8.91464C18.8071 9.7561 19.1156 10.3293 19.5351 11.1707C19.6091 11.3171 19.6831 11.6342 19.8312 11.6463C20.8058 11.7805 22.0396 12.0244 23.0143 12.1707C23.6188 12.2683 24.2727 12.6707 24.4455 13.2439C24.6182 13.8049 24.8896 14.7805 24.4578 15.1951C23.8286 15.8171 21.8545 15.7683 21.2006 16.3659C20.9662 16.5854 20.8675 16.7805 20.9292 17.122C21.1019 17.9878 21.25 18.8537 21.3857 19.7195C21.4844 20.3049 21.3117 20.8049 20.8305 21.1707C20.337 21.5366 19.7942 21.5854 19.2513 21.3171C18.4123 20.8902 17.561 20.4634 16.7344 20.0122C16.5247 19.9024 16.3643 19.9024 16.1669 20.0122C15.3403 20.4634 14.9825 22.0244 14.1312 22.4512C13.2552 22.8902 11.3182 21.3537 11.5156 20.3415C11.4909 20.2317 11.4909 20.122 11.4786 20.0122H11.5032Z" fill="white"/>
<path d="M7 18.0854C7 17.8049 7.14805 17.5732 7.41948 17.4878C7.8513 17.3415 8.28312 17.1951 8.71493 17.0732C9.04805 16.9756 9.38117 17.1585 9.49221 17.4756C9.60325 17.7927 9.88701 18.1829 9.56623 18.3049C9.12208 18.4634 8.15974 18.8293 7.70325 18.9512C7.2961 19.0488 7 18.5 7 18.0854Z" fill="white"/>
<path d="M12.2929 9.08538C12.2929 9.40245 12.2312 9.68294 11.9474 9.81709C11.676 9.93904 11.2318 9.84148 11.0344 9.60977C10.652 9.17075 10.3065 8.69514 9.99807 8.20733C9.78833 7.87806 9.92404 7.46343 10.2448 7.25611C10.5656 7.04879 11.1455 7.13416 11.3799 7.43904C11.713 7.85367 11.8734 8.24392 12.1818 8.68294C12.2682 8.80489 12.2929 8.93904 12.2929 9.08538Z" fill="white"/>
<path d="M22.274 7C22.7182 7 23.039 7.52439 22.7675 7.95122C22.5208 8.34146 22.2247 8.71951 21.9286 9.08537C21.7065 9.35366 21.3364 9.37805 21.0649 9.17073C20.7935 8.96341 20.7195 8.59756 20.9169 8.30488C21.1636 7.93902 21.4351 7.58537 21.7065 7.23171C21.8299 7.07317 22.0026 7 22.274 7Z" fill="white"/>
<path d="M17.2156 23.439C17.2156 23.6585 17.0305 23.8658 17.0182 24.0854C17.0182 24.439 16.7837 24.9756 16.4259 24.9756C16.0682 24.9756 15.7474 24.439 15.7474 24.0854C15.7474 23.6463 15.7474 23.2073 15.7474 22.7683C15.7474 22.4146 16.0311 22.1463 16.3889 22.1463C16.7467 22.1463 17.2156 22.5122 17.2279 22.8658C17.2279 23.0854 17.2279 23.2195 17.2279 23.439H17.2156Z" fill="white"/>
<path d="M21.0649 9.17073L21.4968 9.54878L23.076 7.52439L22.6195 7.12195L21.0649 9.17073Z" fill="white"/>
<path d="M25.926 18.7073C25.6422 19.1342 25.4325 19.2073 24.9266 19.0488C24.5812 18.939 24.2357 18.8293 23.8903 18.7195C23.5078 18.5854 23.3104 18.2561 23.4214 17.9146C23.5325 17.5488 23.8903 17.3781 24.2974 17.5C24.6552 17.6098 25.0253 17.7439 25.3831 17.8415C25.6422 17.9146 25.8519 18.0732 25.9506 18.3049C25.9877 18.4756 25.963 18.561 25.9136 18.6951L25.926 18.7073Z" fill="#E2E2E2"/>
<path d="M12.6013 21.1341C12.6383 20.6829 12.737 20.2439 12.811 19.8049C12.9097 19.2073 13.0207 18.6098 13.1194 18.0122C13.1441 17.878 13.1194 17.7927 13.0084 17.6951C12.3052 17.0244 11.6019 16.3659 10.911 15.6829C10.2201 15 10.3065 13.9268 11.0714 13.3902C11.3428 13.2073 11.6513 13.1463 11.972 13.0976C12.8604 12.9756 13.7363 12.8415 14.6246 12.7195C14.7727 12.6951 14.8467 12.6341 14.9207 12.5122C15.3526 11.6341 15.7844 10.7561 16.2409 9.87805C16.7097 8.96341 17.9558 8.79268 18.6591 9.54878C18.7701 9.67073 18.8565 9.81707 18.9305 9.96341C19.35 10.8049 19.7818 11.6463 20.2013 12.5C20.2753 12.6463 20.3617 12.7073 20.522 12.7195C21.4967 12.8537 22.4714 12.9878 23.4461 13.1463C24.0506 13.2439 24.4454 13.5976 24.6181 14.1707C24.7909 14.7317 24.6552 15.2317 24.2357 15.6463C23.6065 16.2683 22.9649 16.8902 22.311 17.4878C22.0766 17.7073 21.9779 17.9024 22.0396 18.2439C22.2123 19.1098 22.3604 19.9756 22.4961 20.8415C22.5948 21.4268 22.422 21.9268 21.9409 22.2927C21.4474 22.6585 20.9045 22.7073 20.3617 22.439C19.5227 22.0122 18.6714 21.5854 17.8448 21.1341C17.635 21.0244 17.4746 21.0244 17.2772 21.1341C16.4506 21.5854 15.6117 22.0244 14.7604 22.439C13.8844 22.878 12.8604 22.3902 12.6259 21.4512C12.6013 21.3415 12.6013 21.2317 12.5889 21.1219L12.6013 21.1341Z" fill="#E2E2E2"/>
<path d="M7.20972 18.5C7.20972 18.2195 7.35777 17.9878 7.6292 17.9025C8.06102 17.7561 8.49283 17.6098 8.92465 17.4878C9.25777 17.3903 9.59089 17.5732 9.70192 17.8903C9.81296 18.2073 9.66491 18.561 9.34413 18.6829C8.89998 18.8415 8.45582 18.9878 7.99933 19.1098C7.59218 19.2195 7.20972 18.9025 7.20972 18.5Z" fill="#E2E2E2"/>
<path d="M12.5026 9.19512C12.5026 9.46341 12.3668 9.65853 12.1201 9.76829C11.8857 9.87804 11.5896 9.84146 11.4168 9.64634C11.0837 9.26829 10.7876 8.86585 10.5285 8.43902C10.3558 8.15853 10.4668 7.80487 10.7383 7.62195C11.0097 7.43902 11.3798 7.4756 11.5896 7.7439C11.8733 8.09756 12.1324 8.4756 12.4039 8.85365C12.4779 8.95121 12.5026 9.07317 12.5026 9.19512Z" fill="#E2E2E2"/>
<path d="M22.6811 7.35367C23.1253 7.35367 23.4461 7.87806 23.1746 8.30489C22.9279 8.69513 22.6318 9.07318 22.3357 9.43903C22.1136 9.70733 21.7435 9.73172 21.472 9.5244C21.2006 9.31708 21.1266 8.95123 21.324 8.65855C21.5707 8.29269 21.8422 7.93903 22.1136 7.58538C22.237 7.42684 22.4097 7.35367 22.6688 7.35367H22.6811Z" fill="#E2E2E2"/>
<path d="M17.2526 23.7317C17.2526 23.9512 17.2526 24.1707 17.2526 24.3903C17.2526 24.7439 16.9688 25 16.5987 25C16.2409 25 15.9695 24.7439 15.9695 24.3903C15.9695 23.9512 15.9695 23.5122 15.9695 23.0732C15.9695 22.7195 16.2532 22.4512 16.611 22.4512C16.9688 22.4512 17.2403 22.7195 17.2526 23.0732C17.2526 23.2927 17.2526 23.5122 17.2526 23.7317Z" fill="#E2E2E2"/>
</g>
<defs>
<filter id="filter0_d_1_340" x="3" y="7" width="27.0041" height="26" filterUnits="userSpaceOnUse" color-interpolation-filters="sRGB">
<feFlood flood-opacity="0" result="BackgroundImageFix"/>
<feColorMatrix in="SourceAlpha" type="matrix" values="0 0 0 0 0 0 0 0 0 0 0 0 0 0 0 0 0 0 127 0" result="hardAlpha"/>
<feOffset dy="4"/>
<feGaussianBlur stdDeviation="2"/>
<feComposite in2="hardAlpha" operator="out"/>
<feColorMatrix type="matrix" values="0 0 0 0 0.0489583 0 0 0 0 0.165479 0 0 0 0 0.391667 0 0 0 0.25 0"/>
<feBlend mode="normal" in2="BackgroundImageFix" result="effect1_dropShadow_1_340"/>
<feBlend mode="normal" in="SourceGraphic" in2="effect1_dropShadow_1_340" result="shape"/>
</filter>
<linearGradient id="paint0_linear_1_340" x1="28.7859" y1="-0.146027" x2="-0.228312" y2="34.6839" gradientUnits="userSpaceOnUse">
<stop stop-color="#49A9BE"/>
<stop offset="1" stop-color="#185A96"/>
</linearGradient>
</defs>
</svg>
