<svg width="32" height="32" viewBox="0 0 32 32" fill="none" xmlns="http://www.w3.org/2000/svg">
<path d="M10.04 32L21.96 32C27.5049 32 32 27.5049 32 21.96V10.04C32 4.49506 27.5049 0 21.96 0H10.04C4.49506 0 0 4.49506 0 10.04L0 21.96C0 27.5049 4.49506 32 10.04 32Z" fill="url(#paint0_linear_1_335)"/>
<g filter="url(#filter0_d_1_335)">
<path d="M24.9448 14.3017V14.9549C24.8454 15.4666 24.5582 15.8585 24.1936 16.2177C22.9896 17.3935 21.7966 18.5692 20.6036 19.7449C20.4821 19.8647 20.3606 19.9844 20.217 20.0715C19.8525 20.3002 19.488 20.3328 19.2008 20.1913C18.9246 20.0715 18.7148 19.7885 18.6485 19.3748C18.6264 19.2224 18.6153 19.0591 18.6153 18.9067C18.6043 18.6128 18.6264 18.3188 18.6153 18.0249C18.6153 17.8652 18.5343 17.789 18.3723 17.7963C16.6602 17.8725 15.0253 18.297 13.4899 19.0482C11.7005 19.9082 10.2203 21.1384 9.0052 22.6843C8.92788 22.7823 8.85055 22.8911 8.718 22.9456C8.67382 22.9673 8.62963 22.9782 8.58545 22.9891C8.2872 23.0435 8.01105 22.8149 8 22.4774C7.98896 21.3779 8.1436 20.311 8.48603 19.2659C9.65692 15.7387 12.0208 13.3546 15.5556 12.0918C16.4172 11.7869 17.3119 11.6128 18.2287 11.5474C18.4865 11.5329 18.6153 11.3914 18.6153 11.1229C18.6264 10.7201 18.5822 10.3064 18.6485 9.90358C18.6706 9.79471 18.6927 9.69673 18.7368 9.58787C18.9467 9.06532 19.4769 8.85848 19.9961 9.08709C20.2281 9.18507 20.4159 9.33748 20.5815 9.50078C21.8298 10.7309 23.078 11.9611 24.3262 13.1913C24.6465 13.4961 24.8454 13.8771 24.9448 14.3017Z" fill="white"/>
<path d="M24.9448 14.3344C25.1767 15.1835 24.5582 15.8585 24.1936 16.2177C22.9896 17.3935 21.7966 18.5692 20.6036 19.745C20.4821 19.8647 20.3606 19.9845 20.217 20.0716C19.8525 20.3002 19.488 20.3328 19.2008 20.1913C18.8804 20.0389 18.6043 19.7558 18.6153 18.9067C18.6043 18.6128 18.6264 18.3188 18.6153 18.0249C18.6153 17.8652 18.5343 17.789 18.3723 17.7963C16.6602 17.8725 15.0253 18.2971 13.4899 19.0482C11.7005 19.9083 10.2203 21.1384 9.0052 22.6843C8.92788 22.7823 8.85056 22.8912 8.718 22.9456C8.67382 22.9674 8.62963 22.9782 8.58545 22.9891C8.61859 22.0964 8.77323 21.2146 9.04939 20.3655C10.2203 16.8383 12.5952 14.4432 16.13 13.1804C16.9916 12.8756 17.8863 12.7123 18.7921 12.647C19.1897 12.6252 19.1787 12.6252 19.1897 12.2224C19.2008 11.8196 19.1566 11.4059 19.2229 11.0031C19.2339 10.8943 19.2671 10.7854 19.3112 10.6874C19.5211 10.1649 20.0513 9.95802 20.5705 10.1866C20.7914 10.2737 20.9792 10.4261 21.1559 10.6003C22.4042 11.8305 23.6524 13.0607 24.9006 14.28C24.9227 14.3017 24.9337 14.3126 24.9448 14.3344Z" fill="#E2E2E2"/>
</g>
<defs>
<filter id="filter0_d_1_335" x="3.99945" y="8.99478" width="25.0005" height="22.0052" filterUnits="userSpaceOnUse" color-interpolation-filters="sRGB">
<feFlood flood-opacity="0" result="BackgroundImageFix"/>
<feColorMatrix in="SourceAlpha" type="matrix" values="0 0 0 0 0 0 0 0 0 0 0 0 0 0 0 0 0 0 127 0" result="hardAlpha"/>
<feOffset dy="4"/>
<feGaussianBlur stdDeviation="2"/>
<feComposite in2="hardAlpha" operator="out"/>
<feColorMatrix type="matrix" values="0 0 0 0 0.0489583 0 0 0 0 0.165479 0 0 0 0 0.391667 0 0 0 0.25 0"/>
<feBlend mode="normal" in2="BackgroundImageFix" result="effect1_dropShadow_1_335"/>
<feBlend mode="normal" in="SourceGraphic" in2="effect1_dropShadow_1_335" result="shape"/>
</filter>
<linearGradient id="paint0_linear_1_335" x1="28.7859" y1="-0.146027" x2="-0.228312" y2="34.6839" gradientUnits="userSpaceOnUse">
<stop stop-color="#49A9BE"/>
<stop offset="1" stop-color="#185A96"/>
</linearGradient>
</defs>
</svg>
