<svg width="32" height="32" viewBox="0 0 32 32" fill="none" xmlns="http://www.w3.org/2000/svg">
<path d="M10.04 32L21.96 32C27.5049 32 32 27.5049 32 21.96V10.04C32 4.49506 27.5049 0 21.96 0H10.04C4.49506 0 0 4.49506 0 10.04L0 21.96C0 27.5049 4.49506 32 10.04 32Z" fill="url(#paint0_linear_1_308)"/>
<g filter="url(#filter0_d_1_308)">
<path d="M21.0605 15.2206C21.1868 17.6444 19.5824 19.7202 17.258 20.1456C16.3863 20.3003 15.5399 20.223 14.7187 19.9135C14.5545 19.8491 14.4408 19.8749 14.2892 19.9522C13.9734 20.1456 13.885 20.6871 13.5691 20.8676C13.4049 20.9579 13.0007 20.6484 12.8491 20.5066C12.6975 20.3777 12.6722 20.1972 12.7227 19.9909C12.8112 19.617 12.8743 19.256 12.9628 18.8821C12.988 18.779 12.9628 18.7016 12.8996 18.6243C12.129 17.7218 11.7374 16.6517 11.7374 15.4655C11.7374 12.8225 13.6197 10.9917 15.7926 10.7081C18.3318 10.3857 20.5678 12.036 21.0226 14.6017C21.0605 14.808 21.0858 15.0143 21.0731 15.2077L21.0605 15.2206ZM16.3863 16.3293C16.8664 16.3293 17.258 15.9426 17.258 15.4526C17.258 14.9756 16.879 14.5759 16.4116 14.5759C15.9441 14.5759 15.5399 14.9756 15.5399 15.4526C15.5399 15.9297 15.9189 16.3164 16.3863 16.3293ZM14.883 15.4655C14.883 14.9756 14.504 14.5759 14.0366 14.5759C13.5691 14.5759 13.1902 14.9627 13.1902 15.4526C13.1902 15.9426 13.5565 16.3293 14.0239 16.3293C14.504 16.3293 14.883 15.9554 14.883 15.4655ZM19.6203 15.4655C19.6203 14.9756 19.254 14.5888 18.7739 14.5888C18.3065 14.5888 17.9275 14.9756 17.9149 15.4526C17.9149 15.9554 18.2812 16.3422 18.7613 16.3422C19.2414 16.3422 19.6077 15.9554 19.6077 15.4655H19.6203Z" fill="white"/>
<path d="M15.9947 21.4478C17.8896 21.5122 19.3929 20.816 20.631 19.501C21.1742 18.9208 21.5784 18.2504 21.8437 17.5026C21.9701 17.1416 22.0837 16.7548 22.1469 16.368C22.2101 15.9812 22.2732 15.646 22.3238 15.2592C22.3996 14.7048 22.1722 14.086 22.008 13.5703C21.2247 11.0433 19.5319 9.5477 16.98 9.12224C14.5798 8.72256 12.0153 10.0634 10.853 12.2423C10.4235 13.0545 10.1582 13.9055 10.0951 14.8209C10.0698 15.1561 10.1709 15.5042 10.2214 15.8394C10.3477 16.7419 10.6509 18.2633 10.7646 19.1657C10.8151 19.6041 10.7393 19.9135 10.3351 20.0554C9.99399 20.1714 9.58973 20.1843 9.22338 20.1456C8.5033 20.0554 7.65689 19.011 7.45476 18.3535C6.83574 17.1931 6.84838 15.9941 7.2779 14.7435C7.53056 14.0215 8.02324 13.5187 8.74332 13.2608C8.80649 13.235 8.86965 13.235 8.92019 13.2093C9.22338 13.1319 9.29917 13.0545 9.38761 12.8096C10.3982 10.1666 12.2679 8.51627 15.0093 8.03924C18.5212 7.40749 21.8816 9.52191 23.0186 12.9643C23.0691 13.1319 23.1323 13.2093 23.3218 13.2222C23.6123 13.9055 23.9661 14.086 24.8883 14.3567C25.5957 15.9039 25.482 17.3994 24.4966 18.8047C24.2187 19.2044 23.8271 19.4752 23.3344 19.5525C23.0186 19.6041 22.7154 19.5139 22.4248 19.4107C22.2353 19.3462 22.1343 19.3978 22.0332 19.5525C21.0478 20.945 19.7466 21.8732 18.1423 22.3503C17.9907 22.389 17.9275 22.4534 17.9022 22.621C17.8391 23.1238 17.6117 23.9232 17.1064 23.9232C16.5 23.9232 15.881 23.9232 15.2746 23.9232C14.5166 23.9232 14.5292 23.111 14.4661 22.6597C14.4408 22.4663 14.4408 22.26 14.4787 22.0666C14.5292 21.7572 14.7693 21.5251 15.0724 21.4736C15.4009 21.422 15.742 21.4736 15.9947 21.4478Z" fill="white"/>
<path d="M21.5153 15.5042C21.6416 17.928 20.0372 20.0038 17.7127 20.4292C16.8411 20.584 15.9947 20.5066 15.1735 20.1972C15.0093 20.1327 14.8956 20.1585 14.744 20.2359C14.4282 20.4292 14.1124 20.5969 13.7839 20.7774C13.6197 20.8676 13.4554 20.9321 13.2912 20.7902C13.1396 20.6613 13.1143 20.4808 13.1649 20.2745C13.2533 19.9006 13.3165 19.5396 13.4049 19.1657C13.4302 19.0626 13.4049 18.9853 13.3417 18.9079C12.5711 18.0054 12.1795 16.9353 12.1795 15.7491C12.1795 13.1061 14.0618 11.2753 16.2347 10.9917C18.7739 10.6694 21.01 12.3197 21.4647 14.8853C21.5026 15.0916 21.5279 15.2979 21.5153 15.4913V15.5042ZM16.8411 16.613C17.3211 16.613 17.7127 16.2262 17.7127 15.7363C17.7127 15.2592 17.3338 14.8595 16.8663 14.8595C16.3989 14.8595 15.9947 15.2592 15.9947 15.7363C15.9947 16.2133 16.3737 16.6001 16.8411 16.613ZM15.3377 15.7491C15.3377 15.2592 14.9588 14.8595 14.4913 14.8595C14.0239 14.8595 13.6449 15.2463 13.6449 15.7363C13.6449 16.2262 14.0113 16.613 14.4787 16.613C14.9588 16.613 15.3377 16.2391 15.3377 15.7491ZM20.0751 15.7491C20.0751 15.2592 19.7088 14.8724 19.2287 14.8724C18.7613 14.8724 18.3823 15.2592 18.3697 15.7363C18.3697 16.2391 18.736 16.6259 19.2161 16.6259C19.6961 16.6259 20.0625 16.2391 20.0625 15.7491H20.0751Z" fill="#E2E2E2"/>
<path d="M16.6516 22.0151C18.5465 22.0796 20.0499 21.3834 21.2879 20.0683C21.8311 19.4881 22.2354 18.8177 22.5007 18.0699C22.627 17.7089 22.627 17.3092 22.7028 16.9224C22.7659 16.5356 22.8165 16.1489 22.867 15.7621C22.9428 15.2077 22.8417 14.6662 22.6775 14.1505C21.8943 11.6235 20.2014 10.1279 17.6496 9.70245C15.2493 9.30277 12.6848 10.6436 11.5226 12.8225C11.0931 13.6348 10.8278 14.4857 10.7646 15.4011C10.7393 15.7363 10.8404 16.0844 10.8909 16.4196C11.0173 17.3221 11.1562 18.2375 11.2699 19.14C11.3205 19.5784 11.1689 19.7975 10.7646 19.9265C10.4235 20.0425 10.0824 20.1585 9.71608 20.107C8.996 20.0167 8.52858 19.5397 8.20012 18.9337C7.5811 17.7734 7.49267 16.5614 7.92219 15.3237C8.17485 14.6017 8.66754 14.0989 9.38762 13.841C9.45078 13.8153 9.50131 13.8024 9.56448 13.7895C9.81714 13.7379 9.94347 13.6348 10.0319 13.3898C11.0552 10.7339 12.9249 9.09649 15.6662 8.60656C19.1782 7.97481 22.5385 10.0892 23.6755 13.5316C23.726 13.6992 23.7892 13.7766 23.9787 13.7895C24.7114 13.8539 25.242 14.2536 25.5452 14.924C26.2526 16.4712 26.1389 17.9668 25.1536 19.3721C24.8757 19.7717 24.484 20.0425 23.9913 20.1199C23.6755 20.1714 23.3723 20.0812 23.0818 19.978C22.8923 19.9136 22.7912 19.9651 22.6901 20.1199C21.7048 21.5123 20.4036 22.4406 18.7992 22.9176C18.6476 22.9563 18.5844 23.0207 18.5592 23.1883C18.496 23.6912 18.2433 23.9232 17.738 23.9232C17.1316 23.9232 16.5126 23.9232 15.9062 23.9232C15.4641 23.9232 15.1862 23.6783 15.123 23.227C15.0977 23.0336 15.0977 22.8273 15.1356 22.634C15.1862 22.3245 15.4262 22.0925 15.7294 22.0409C16.0578 21.9893 16.3989 22.0409 16.6516 22.0151Z" fill="#E2E2E2"/>
</g>
<defs>
<filter id="filter0_d_1_308" x="2.9707" y="7.92322" width="27.0293" height="24" filterUnits="userSpaceOnUse" color-interpolation-filters="sRGB">
<feFlood flood-opacity="0" result="BackgroundImageFix"/>
<feColorMatrix in="SourceAlpha" type="matrix" values="0 0 0 0 0 0 0 0 0 0 0 0 0 0 0 0 0 0 127 0" result="hardAlpha"/>
<feOffset dy="4"/>
<feGaussianBlur stdDeviation="2"/>
<feComposite in2="hardAlpha" operator="out"/>
<feColorMatrix type="matrix" values="0 0 0 0 0.0489583 0 0 0 0 0.165479 0 0 0 0 0.391667 0 0 0 0.25 0"/>
<feBlend mode="normal" in2="BackgroundImageFix" result="effect1_dropShadow_1_308"/>
<feBlend mode="normal" in="SourceGraphic" in2="effect1_dropShadow_1_308" result="shape"/>
</filter>
<linearGradient id="paint0_linear_1_308" x1="28.7859" y1="-0.146027" x2="-0.22401" y2="34.6875" gradientUnits="userSpaceOnUse">
<stop stop-color="#49A9BE"/>
<stop offset="1" stop-color="#185A96"/>
</linearGradient>
</defs>
</svg>
