<svg width="13" height="19" viewBox="0 0 13 19" fill="none" xmlns="http://www.w3.org/2000/svg">
<g filter="url(#filter0_d_1_206)">
<path d="M7.74593 0.030304C7.82215 0.109092 7.83387 0.200001 7.81629 0.309092C7.53485 1.81818 7.25928 3.33333 6.97785 4.84242C6.94853 5.01212 6.94853 5.01818 7.11857 5C7.85733 4.89697 8.59609 4.79394 9.32899 4.69091C9.76873 4.6303 10.2085 4.5697 10.6423 4.50909C10.7713 4.49091 10.8769 4.54546 10.9472 4.65455C11.0293 4.77576 11.0059 4.89697 10.9414 5.01212C10.7537 5.35152 10.5603 5.69697 10.3668 6.03636C9.31726 7.90909 8.26775 9.77576 7.21238 11.6485C6.61433 12.7091 6.01628 13.7697 5.41824 14.8303C5.39479 14.8727 5.37133 14.9152 5.33615 14.9515C5.29511 15 5.23648 15.0121 5.17785 14.9879C5.11922 14.9636 5.0899 14.9212 5.07817 14.8545C5.06645 14.7758 5.0899 14.697 5.10749 14.6242C5.4886 12.5939 5.86971 10.5576 6.25081 8.52727C6.29772 8.29091 6.3329 8.04849 6.38567 7.81212C6.41498 7.68485 6.36808 7.65455 6.25668 7.66667C5.78762 7.72121 5.31857 7.7697 4.85537 7.82424C4.26319 7.89091 3.66515 7.95152 3.07296 8.01818C2.86189 8.04243 2.65081 8.05455 2.43974 8.09091C2.26971 8.11515 2.12313 8.10303 2.03518 7.9394C1.94723 7.78182 2.01172 7.64243 2.1114 7.50909C3.02606 6.26061 3.94658 5.01212 4.86124 3.75758C5.72313 2.58182 6.58501 1.40606 7.4469 0.224243C7.49381 0.157577 7.54658 0.0969706 7.59935 0.030304C7.64625 0.030304 7.69316 0.030304 7.74006 0.030304H7.74593Z" fill="#E0E0E0"/>
<path d="M7.74593 0.0302976C7.82216 0.109085 7.83388 0.199995 7.81629 0.309085C7.53486 1.81818 7.25929 3.33333 6.97786 4.84242C6.94854 5.01212 6.94854 5.01818 7.11857 4.99999C7.85733 4.89696 8.5961 4.79393 9.329 4.6909C9.76873 4.6303 10.2085 4.56969 10.6424 4.50909C10.7713 4.4909 10.8769 4.54545 10.9472 4.65454C11.0293 4.77575 11.0059 4.89696 10.9414 5.01212C10.7538 5.35151 10.5603 5.69696 10.3668 6.03636C9.31727 7.90908 8.26776 9.77575 7.21238 11.6485C6.61434 12.7091 6.01629 13.7697 5.41825 14.8303C5.39479 14.8727 5.37134 14.9151 5.33616 14.9515C5.29512 15 5.49447 14.6061 5.50619 14.5333C5.8873 12.503 6.25668 10.5394 6.64365 8.50908C6.69056 8.27272 6.74919 8.01212 6.80196 7.77575C6.83128 7.64848 6.90163 7.23636 6.67883 7.2606C6.20978 7.31515 5.4417 7.39393 4.97264 7.44242C4.38046 7.50908 4.5974 7.47272 3.99935 7.53939C3.78828 7.56363 3.5772 7.57575 3.36613 7.61212C3.1961 7.63636 3.04952 7.62424 2.96157 7.4606C2.87362 7.30302 2.93812 7.16363 3.03779 7.0303C3.95245 5.78181 4.34528 5.2909 5.25994 4.04242C6.02802 2.89696 6.66124 1.78181 7.49968 0.412116C7.54072 0.339388 7.54659 0.0969642 7.59935 0.0363582C7.65212 -0.0121267 7.69903 -5.46407e-06 7.74007 0.0363582L7.74593 0.0302976Z" fill="white"/>
</g>
<defs>
<filter id="filter0_d_1_206" x="-0.00630188" y="0" width="13.0063" height="19" filterUnits="userSpaceOnUse" color-interpolation-filters="sRGB">
<feFlood flood-opacity="0" result="BackgroundImageFix"/>
<feColorMatrix in="SourceAlpha" type="matrix" values="0 0 0 0 0 0 0 0 0 0 0 0 0 0 0 0 0 0 127 0" result="hardAlpha"/>
<feOffset dy="2"/>
<feGaussianBlur stdDeviation="1"/>
<feComposite in2="hardAlpha" operator="out"/>
<feColorMatrix type="matrix" values="0 0 0 0 0 0 0 0 0 0 0 0 0 0 0 0 0 0 0.3 0"/>
<feBlend mode="normal" in2="BackgroundImageFix" result="effect1_dropShadow_1_206"/>
<feBlend mode="normal" in="SourceGraphic" in2="effect1_dropShadow_1_206" result="shape"/>
</filter>
</defs>
</svg>
