<svg width="15" height="15" viewBox="0 0 15 15" fill="none" xmlns="http://www.w3.org/2000/svg">
<g filter="url(#filter0_d_1_223)">
<path d="M2.02743 5.03133C2.07315 4.75564 2.10058 4.47076 2.17373 4.19967C2.2103 4.07101 2.24688 3.93776 2.28345 3.80911C2.30174 3.74478 2.33374 3.71721 2.40232 3.71721C3.23441 3.71721 4.37739 3.71721 5.20947 3.71721C5.29177 3.71721 5.31005 3.74937 5.30091 3.82748C5.21862 4.5259 4.88029 5.2289 4.89858 5.93191C4.90315 6.15246 4.92144 6.37301 4.93973 6.59357C4.9443 6.66249 4.92144 6.70384 4.86201 6.7406C4.63341 6.86466 4.45054 7.15873 4.35453 7.39766C4.32709 7.46658 4.28595 7.48496 4.21737 7.48496C3.62302 7.48496 3.07439 7.47577 2.48005 7.48037C2.39775 7.48037 2.36118 7.4528 2.33374 7.37469C2.20116 6.97034 2.08229 6.45113 2.04571 6.02381C2.04571 6.00083 2.03657 5.97327 2.032 5.95029C1.98171 5.59649 2.00914 5.3254 2.032 5.02673L2.02743 5.03133Z" fill="#E0E0E0"/>
<path d="M7.63716 0.0137843C8.04863 0.156224 8.28637 0.482456 8.49668 0.836257C8.78013 1.31871 8.95844 1.83793 9.10017 2.37552C9.11846 2.43985 9.10017 2.47661 9.04531 2.50877C8.85329 2.62824 8.71613 2.80284 8.63383 3.0142C8.6064 3.07853 8.56983 3.1015 8.50582 3.1015C7.6143 3.1015 6.67249 3.34043 5.78097 3.34043C5.71239 3.34043 5.66667 3.32665 5.68496 3.24394C5.84954 2.43525 6.11929 1.40601 6.56276 0.698413C6.6222 0.601921 6.69077 0.510025 6.76393 0.422723C6.91937 0.238931 7.10225 0.0873015 7.33541 0.00918951C7.43599 -1.28057e-07 7.52743 -0.0183794 7.63259 0.00918951L7.63716 0.0137843Z" fill="#E0E0E0"/>
<path d="M7.12053 3.71721C7.57315 3.71721 8.09435 3.71721 8.55154 3.71721C8.63383 3.71721 8.67955 3.74478 8.71156 3.82289C8.83957 4.12615 8.93558 4.48914 9.44306 4.62698C9.52993 4.64996 9.5665 4.68672 9.57107 4.7878C9.60765 5.33918 9.47964 5.68839 9.44763 6.23976C9.42935 6.57519 9.3882 6.90601 9.36077 7.24144C9.35162 7.34712 9.3059 7.38388 9.20075 7.38388C8.30008 7.38388 7.5823 7.48496 6.6862 7.48956C6.59019 7.48956 6.51247 7.29657 6.47132 7.20927C6.33874 6.90142 6.00956 6.81871 5.6941 6.72222C5.62552 6.69925 5.54323 6.60735 5.53865 6.53843C5.5158 6.13868 5.49294 5.73893 5.50208 5.33918C5.5158 4.83375 5.54323 4.32832 5.60266 3.82289C5.61181 3.73099 5.6621 3.7264 5.73525 3.7264C6.19701 3.7264 6.65877 3.7264 7.12053 3.7264V3.71721Z" fill="#E0E0E0"/>
<path d="M11.3038 7.37009C10.9061 7.37009 10.5083 7.48496 10.1105 7.48037C9.97796 7.48037 9.96882 7.46658 9.98253 7.33793C10.0694 6.63033 10.0968 5.81245 10.0831 5.10025C10.0831 4.90267 10.0648 4.7005 10.0465 4.50293C10.042 4.42941 10.0557 4.37886 10.1288 4.33751C10.3483 4.21805 10.5083 4.04344 10.6043 3.80911C10.6363 3.731 10.6775 3.71262 10.7552 3.71262C11.3541 3.71262 11.9484 3.71262 12.5474 3.71262C12.6388 3.71262 12.6754 3.74937 12.7028 3.83208C13.0594 4.98079 13.0457 6.1203 12.6708 7.26441C12.6434 7.34712 12.6022 7.37469 12.5154 7.37469C12.1085 7.37469 11.7061 7.37469 11.2992 7.37469L11.3038 7.37009Z" fill="#E0E0E0"/>
<path d="M7.80632 7.9858C8.24522 7.9858 8.86243 7.9858 9.3059 7.9858C9.37905 7.9858 9.4202 7.99499 9.40191 8.08688C9.2419 8.84962 8.84871 9.59858 8.43724 10.2694C8.29551 10.5038 8.12635 10.7105 7.89318 10.8667C7.62344 11.0459 7.3537 11.0459 7.08396 10.8667C6.82336 10.6921 6.64048 10.444 6.48504 10.1775C6.2153 9.71804 6.03699 9.21721 5.89526 8.70259C5.87698 8.64286 5.88612 8.6015 5.94098 8.56474C6.12843 8.44068 6.26101 8.27067 6.33874 8.06391C6.36617 7.99039 6.41646 7.9812 6.48047 7.9812C6.91937 7.9812 7.36284 7.9812 7.80175 7.9812L7.80632 7.9858Z" fill="#E0E0E0"/>
<path d="M8.82127 0.197573C8.87004 0.191446 8.90662 0.191446 8.931 0.197573C10.4534 0.638675 11.6513 1.80576 12.4011 3.20259C12.4742 3.33583 12.4651 3.34502 12.3188 3.34502C11.825 3.34502 11.2672 3.1015 10.7735 3.1015C10.682 3.1015 10.6317 3.07853 10.5952 2.99122C10.4489 2.64661 10.4169 2.72472 10.0557 2.64661C9.97797 2.62823 9.81338 2.41228 9.79052 2.33876C9.62136 1.70008 9.31047 0.978692 8.963 0.418124C8.91728 0.344607 8.86699 0.27109 8.82127 0.197573Z" fill="#E0E0E0"/>
<path d="M3.48129 7.98579C3.72817 7.98579 4.22651 7.98579 4.47339 7.98579C4.54654 7.98579 4.58769 8.01336 4.61512 8.08229C4.76142 8.43609 4.78428 8.65664 5.15917 8.73016C5.24147 8.74853 5.27804 8.7807 5.3009 8.85881C5.43349 9.35046 5.59808 9.82832 5.83582 10.2786C5.91811 10.4348 6.25643 10.5957 6.35701 10.7427C6.37073 10.7657 6.41645 10.7886 6.38902 10.8208C6.37073 10.8438 6.33415 10.8208 6.31129 10.8162C5.6758 10.6416 4.84371 10.3613 4.31337 9.97535C3.63673 9.4883 3.09725 8.87259 2.69035 8.14202C2.6812 8.12823 2.67663 8.10985 2.66292 8.09607C2.6172 8.02255 2.63548 7.98579 2.72692 7.99039C2.97838 7.99039 3.22983 7.99039 3.48586 7.99039L3.48129 7.98579Z" fill="#E0E0E0"/>
<path d="M6.64506 0.11947C6.53533 0.284884 6.42561 0.450298 6.33874 0.624901C5.97756 1.31872 5.27806 2.132 5.12718 2.89474C5.11804 2.9315 5.1089 2.96366 5.1089 3.00042C5.10433 3.07853 5.05861 3.10151 4.98546 3.10151C4.87573 3.10151 4.72943 3.34044 4.6197 3.34044C3.97507 3.34044 3.27556 3.34044 2.62635 3.34044C2.48462 3.34044 2.48005 3.33125 2.54406 3.20719C2.67207 2.96366 2.90524 2.4904 3.06526 2.26525C3.1064 2.20552 3.15212 2.18254 3.22527 2.19633C3.83791 2.3112 4.50083 1.81036 4.45054 1.07519C4.4414 0.960323 4.48255 0.905185 4.57398 0.845452C5.04489 0.555978 5.53866 0.330832 6.07357 0.188393C6.09643 0.183798 6.36617 0.0781171 6.64963 0.11947H6.64506Z" fill="#E0E0E0"/>
<path d="M8.80756 10.8254C8.96757 10.5957 9.09559 10.3797 9.20531 10.1545C9.5162 9.50668 9.70822 8.82205 9.84538 8.11904C9.86367 8.01796 9.90938 7.98579 10.0054 7.98579C10.746 7.98579 11.5781 7.98579 12.3188 7.98579C12.4559 7.98579 12.4605 7.99498 12.3965 8.11445C12.2776 8.33041 12.049 8.54177 11.9073 8.73935C11.8616 8.79908 11.8159 8.82205 11.7473 8.80827C11.2215 8.70718 10.6272 9.07477 10.5312 9.69507C10.5174 9.79615 10.5174 9.89264 10.5266 9.99373C10.5266 10.0443 10.5174 10.081 10.4717 10.1086C9.97796 10.4302 9.57106 10.6738 9.00415 10.83C8.99043 10.83 8.8487 10.8208 8.80756 10.8254Z" fill="#E0E0E0"/>
<path d="M9.62136 3.85505C9.37447 3.85505 9.17331 3.64369 9.17331 3.40016C9.17331 3.15664 9.38362 2.95447 9.6305 2.95906C9.86824 2.95906 10.074 3.16583 10.0694 3.40476C10.0694 3.64828 9.85909 3.85965 9.61678 3.85505H9.62136Z" fill="#E0E0E0"/>
<path d="M3.45843 1.65414C3.21155 1.65414 3.01038 1.44278 3.01495 1.19925C3.01953 0.96032 3.22526 0.758148 3.463 0.758148C3.70531 0.758148 3.91105 0.964915 3.91105 1.20844C3.91105 1.45656 3.70531 1.65414 3.45843 1.65414Z" fill="#E0E0E0"/>
<path d="M11.5827 10.3062C11.3404 10.3062 11.1347 10.104 11.1301 9.85588C11.1301 9.60776 11.3312 9.41019 11.5827 9.41019C11.8296 9.41019 12.0307 9.61695 12.0307 9.86048C12.0307 10.0994 11.825 10.3016 11.5873 10.3062H11.5827Z" fill="#E0E0E0"/>
<path d="M5.39235 8.02715C5.14089 8.02715 4.93973 7.82958 4.93973 7.58605C4.93973 7.34252 5.14546 7.13576 5.38777 7.13576C5.63466 7.13576 5.84039 7.34252 5.83582 7.58605C5.83582 7.82958 5.63466 8.02715 5.39235 8.02715Z" fill="#E0E0E0"/>
<path d="M3.76932 0.882202L3.97049 1.08897L3.44014 1.769L3.15211 1.52548L3.76932 0.882202Z" fill="#E0E0E0"/>
<path d="M9.4202 3.8964L9.25104 3.65288L10.01 3.1842L10.1563 3.4553L9.4202 3.8964Z" fill="#E0E0E0"/>
<path d="M5.38777 8.14202L5.1226 7.94444L5.72152 7.28738L5.94098 7.48496L5.38777 8.14202Z" fill="#E0E0E0"/>
<path d="M2.40233 5.21053C2.44348 4.93943 2.47091 4.66834 2.54406 4.40643C2.57606 4.27778 2.61721 4.15372 2.64921 4.02506C2.6675 3.96533 2.6995 3.93317 2.76808 3.93317C3.57274 3.93317 4.37739 3.93317 5.18662 3.93317C5.26891 3.93317 5.28263 3.96533 5.27348 4.03885C5.19576 4.71429 5.16833 5.39891 5.18662 6.07895C5.19119 6.2949 5.20948 6.50627 5.22319 6.72222C5.22776 6.79114 5.20491 6.8279 5.14547 6.86466C4.92602 6.98413 4.766 7.16333 4.67456 7.39307C4.64713 7.46199 4.60599 7.48037 4.54198 7.48037C3.96592 7.48037 3.38986 7.48037 2.81837 7.48037C2.74065 7.48037 2.6995 7.4528 2.67664 7.37928C2.54863 6.98872 2.45719 6.58897 2.42062 6.17544C2.42062 6.15246 2.41147 6.12949 2.4069 6.10652C2.4069 5.80785 2.4069 5.50919 2.4069 5.21512L2.40233 5.21053Z" fill="white"/>
<path d="M7.83832 0.349209C8.23607 0.487054 8.46924 0.804096 8.6704 1.14871C8.94472 1.61278 9.11845 2.12281 9.25561 2.64202C9.27389 2.70635 9.25561 2.73852 9.20532 2.77068C9.01787 2.89015 8.88528 3.05556 8.80756 3.26233C8.7847 3.32665 8.74355 3.34503 8.68412 3.34503C7.82003 3.34503 6.95594 3.34503 6.08728 3.34503C6.02327 3.34503 5.97755 3.33125 5.99584 3.25314C6.15586 2.46742 6.36616 1.70468 6.80049 1.02005C6.85993 0.928157 6.92851 0.83626 6.99709 0.753553C7.14796 0.574355 7.32626 0.427321 7.55486 0.353804C7.65544 0.317045 7.74688 0.326235 7.84289 0.353804L7.83832 0.349209Z" fill="white"/>
<path d="M7.33998 3.93776C7.77888 3.93776 8.22236 3.93776 8.66126 3.93776C8.74355 3.93776 8.7847 3.96073 8.8167 4.03885C8.94014 4.33291 9.15502 4.53049 9.46134 4.62698C9.54364 4.65455 9.58021 4.68672 9.58478 4.78321C9.62136 5.31621 9.62593 5.84921 9.5985 6.3822C9.58021 6.70844 9.54364 7.03007 9.5162 7.35171C9.50706 7.4528 9.46591 7.48956 9.36076 7.48956C8.48753 7.48956 7.61886 7.48956 6.74563 7.48956C6.65419 7.48956 6.60847 7.46199 6.56733 7.37468C6.43931 7.07602 6.21072 6.88763 5.9044 6.79114C5.83582 6.77276 5.80839 6.7406 5.80382 6.67168C5.78553 6.28571 5.7581 5.89975 5.76724 5.50919C5.78096 5.01754 5.80382 4.5259 5.86325 4.03885C5.8724 3.95154 5.92269 3.94235 5.99127 3.94235C6.43931 3.94235 6.88736 3.94235 7.33541 3.94235L7.33998 3.93776Z" fill="white"/>
<path d="M11.3953 7.48037C11.0112 7.48037 10.6226 7.48037 10.2386 7.48037C10.1106 7.48037 10.1014 7.46658 10.1151 7.34252C10.202 6.65789 10.2249 5.96867 10.2111 5.28404C10.2111 5.09106 10.1928 4.89808 10.1791 4.7051C10.1746 4.63158 10.1883 4.58104 10.2569 4.54428C10.4717 4.42941 10.6272 4.2548 10.7186 4.02966C10.7506 3.95614 10.7918 3.93317 10.8649 3.93317C11.4455 3.93317 12.0216 3.93317 12.6022 3.93317C12.6937 3.93317 12.7303 3.96533 12.7531 4.04804C13.096 5.15998 13.0869 6.26733 12.7257 7.37469C12.6983 7.4528 12.6571 7.48037 12.5748 7.48037C12.1816 7.48037 11.7884 7.48037 11.3953 7.48037Z" fill="white"/>
<path d="M8.00291 8.0777C8.4281 8.0777 8.85786 8.0777 9.28304 8.0777C9.35162 8.0777 9.39277 8.08689 9.37448 8.17878C9.21904 8.91855 9.00873 9.64453 8.61097 10.2924C8.47382 10.5175 8.30923 10.7243 8.08521 10.8713C7.82461 11.046 7.56401 11.046 7.30341 10.8713C7.04738 10.7013 6.87365 10.4624 6.72278 10.2051C6.46218 9.7594 6.28845 9.27235 6.15129 8.77611C6.133 8.71638 6.14215 8.67962 6.19701 8.64286C6.37531 8.5234 6.5079 8.35798 6.58562 8.15581C6.61305 8.08229 6.66334 8.0777 6.72278 8.0777C7.14797 8.0777 7.57772 8.0777 8.00291 8.0777Z" fill="white"/>
<path d="M9.02245 0.51003C9.06359 0.482461 9.14589 0.519219 9.17789 0.528409C10.6546 0.955727 11.6696 1.84712 12.4011 3.20259C12.4697 3.33125 12.4651 3.34044 12.3234 3.34044C11.8433 3.34044 11.3678 3.34044 10.8878 3.34044C10.8009 3.34044 10.7506 3.31746 10.714 3.23016C10.5723 2.89934 10.3209 2.69716 9.96883 2.61905C9.89111 2.60067 9.8591 2.56851 9.84082 2.49499C9.67623 1.87929 9.49335 1.27277 9.15503 0.725986C9.10931 0.652469 9.06816 0.574357 9.02245 0.50084V0.51003Z" fill="white"/>
<path d="M3.81048 8.0777C4.05279 8.0777 4.29053 8.0777 4.53284 8.0777C4.60599 8.0777 4.64256 8.10067 4.66999 8.16959C4.81172 8.51421 5.07232 8.72557 5.43807 8.79449C5.52037 8.80827 5.55237 8.84503 5.57523 8.91855C5.70324 9.39641 5.86326 9.85589 6.09186 10.297C6.16958 10.4486 6.26102 10.6003 6.35703 10.7427C6.37074 10.7657 6.41189 10.7886 6.38903 10.8208C6.37074 10.8438 6.33874 10.8208 6.31131 10.8162C5.69867 10.6508 5.13176 10.3797 4.61056 10.0075C3.95221 9.53426 3.43101 8.94152 3.03782 8.22933C3.02868 8.21554 3.02411 8.19716 3.01496 8.18338C2.96925 8.10986 2.98753 8.0777 3.0744 8.0777C3.31671 8.0777 3.56359 8.0777 3.8059 8.0777H3.81048Z" fill="white"/>
<path d="M6.40732 0.523817C6.2976 0.684636 6.19701 0.845454 6.11015 1.01087C5.75811 1.68171 5.55695 2.4031 5.41065 3.14286C5.40608 3.17503 5.39236 3.21179 5.39236 3.24395C5.38779 3.32206 5.34207 3.34044 5.27349 3.34044C5.16834 3.34044 5.05861 3.34044 4.95346 3.34044C4.32711 3.34044 3.70076 3.34044 3.0744 3.34044C2.93725 3.34044 2.93268 3.33125 2.99668 3.21179C3.12012 2.97286 3.26185 2.74771 3.4173 2.53175C3.45844 2.47202 3.50416 2.44905 3.57274 2.46283C4.16709 2.5777 4.80716 2.09065 4.76144 1.37845C4.75229 1.26818 4.79344 1.21304 4.88031 1.1579C5.33293 0.877618 5.81755 0.661661 6.33417 0.519222C6.35703 0.514627 6.37989 0.500843 6.41647 0.519222L6.40732 0.523817Z" fill="white"/>
<path d="M8.97673 10.83C9.1276 10.6094 9.25562 10.3981 9.36077 10.1775C9.66252 9.54804 9.84996 8.88639 9.98255 8.20635C10.0008 8.10527 10.042 8.0777 10.138 8.0777C10.8558 8.0777 11.569 8.0777 12.2868 8.0777C12.4194 8.0777 12.4239 8.08689 12.3645 8.20176C12.2502 8.41312 12.1222 8.6107 11.985 8.80827C11.9439 8.86801 11.8982 8.88639 11.8296 8.8726C11.3221 8.77611 10.7461 9.12991 10.65 9.73183C10.6363 9.82832 10.6363 9.92482 10.6455 10.0213C10.6455 10.0718 10.6363 10.104 10.5952 10.1316C10.1197 10.444 9.60308 10.6738 9.05445 10.8208C9.04074 10.8208 9.02245 10.8208 8.9813 10.8208L8.97673 10.83Z" fill="white"/>
<path d="M9.7631 4.07561C9.52536 4.07561 9.32877 3.87344 9.32877 3.6345C9.32877 3.40017 9.5345 3.20259 9.77224 3.20719C10.0054 3.20719 10.202 3.40936 10.1974 3.6391C10.1974 3.87803 9.99626 4.0802 9.75852 4.07561H9.7631Z" fill="white"/>
<path d="M3.72361 1.87929C3.48588 1.87929 3.28928 1.67711 3.29386 1.43818C3.29843 1.20385 3.49502 1.01086 3.72819 1.01086C3.96593 1.01086 4.16252 1.21304 4.16252 1.44737C4.16252 1.6863 3.96593 1.87929 3.72361 1.87929Z" fill="white"/>
<path d="M11.665 10.3292C11.4273 10.3292 11.2307 10.1316 11.2261 9.89265C11.2261 9.65372 11.4227 9.46074 11.665 9.46074C11.9027 9.46074 12.0993 9.65832 12.0993 9.89725C12.0993 10.127 11.8982 10.3292 11.6696 10.3292H11.665Z" fill="white"/>
<path d="M5.6301 8.21095C5.38778 8.21095 5.19119 8.02256 5.19119 7.78363C5.19119 7.5447 5.38778 7.34712 5.62552 7.34712C5.86326 7.34712 6.06443 7.54929 6.05985 7.78363C6.05985 8.01797 5.86326 8.21095 5.6301 8.21095Z" fill="white"/>
</g>
<defs>
<filter id="filter0_d_1_223" x="0" y="-0.00537109" width="15.0036" height="15.0077" filterUnits="userSpaceOnUse" color-interpolation-filters="sRGB">
<feFlood flood-opacity="0" result="BackgroundImageFix"/>
<feColorMatrix in="SourceAlpha" type="matrix" values="0 0 0 0 0 0 0 0 0 0 0 0 0 0 0 0 0 0 127 0" result="hardAlpha"/>
<feOffset dy="2"/>
<feGaussianBlur stdDeviation="1"/>
<feComposite in2="hardAlpha" operator="out"/>
<feColorMatrix type="matrix" values="0 0 0 0 0 0 0 0 0 0 0 0 0 0 0 0 0 0 0.3 0"/>
<feBlend mode="normal" in2="BackgroundImageFix" result="effect1_dropShadow_1_223"/>
<feBlend mode="normal" in="SourceGraphic" in2="effect1_dropShadow_1_223" result="shape"/>
</filter>
</defs>
</svg>
