<svg width="18" height="13" viewBox="0 0 18 13" fill="none" xmlns="http://www.w3.org/2000/svg">
<g clip-path="url(#clip0_1_1141)">
<path d="M8.96401 13C6.80574 13 4.64747 13 2.48919 13C1.97121 13 1.74099 12.8147 1.64027 12.3158C1.1079 9.94956 0.575524 7.58333 0.0575384 5.20285C0.0287614 5.07456 -0.014404 4.94627 0.014373 4.80373C0.100704 4.29057 0.589912 4.03399 1.07912 4.27632C2.02876 4.7182 2.96401 5.17434 3.91365 5.63048C4.2302 5.78728 4.56114 5.92982 4.87768 6.10088C5.00718 6.17215 5.07912 6.14364 5.15106 6.01535C6.14387 4.27632 7.13668 2.53728 8.12948 0.798246C8.20142 0.669956 8.27337 0.555921 8.34531 0.427632C8.46042 0.156798 8.67624 0 8.99279 0C9.29495 0 9.49639 0.156798 9.64027 0.413377C10.518 1.95285 11.3957 3.47807 12.259 5.01754C12.4316 5.31689 12.6043 5.63048 12.777 5.92982C12.9208 6.17215 12.9208 6.17215 13.1798 6.05811C14.0288 5.64474 14.8777 5.23136 15.741 4.83224C16.1295 4.64693 16.518 4.46162 16.9065 4.27632C17.1798 4.13377 17.4532 4.11952 17.7122 4.31908C17.9712 4.51864 18.0431 4.78947 17.9712 5.10307C17.4101 7.51206 16.8633 9.92105 16.3165 12.33C16.2014 12.8575 15.9856 13.0143 15.4388 13.0143C13.2806 13.0143 11.1223 13.0143 8.96401 13.0143V13Z" fill="#FFBF5F"/>
</g>
<defs>
<clipPath id="clip0_1_1141">
<rect width="18" height="13" fill="white"/>
</clipPath>
</defs>
</svg>
