<svg width="20" height="20" viewBox="0 0 20 20" fill="none" xmlns="http://www.w3.org/2000/svg">
<path d="M10.23 14.12C8.73 14.12 7.23 14.12 5.73 14.12C5.37 14.12 5.21 13.99 5.14 13.64C4.77 11.98 4.4 10.32 4.04 8.65C4.02 8.56 3.99 8.47 4.01 8.37C4.07 8.01 4.41 7.83 4.75 8C5.41 8.31 6.06 8.63 6.72 8.95C6.94 9.06 7.17 9.16 7.39 9.28C7.48 9.33 7.53 9.31 7.58 9.22C8.27 8 8.96 6.78 9.65 5.56C9.7 5.47 9.75 5.39 9.8 5.3C9.88 5.11 10.03 5 10.25 5C10.46 5 10.6 5.11 10.7 5.29C11.31 6.37 11.92 7.44 12.52 8.52C12.64 8.73 12.76 8.95 12.88 9.16C12.98 9.33 12.98 9.33 13.16 9.25C13.75 8.96 14.34 8.67 14.94 8.39C15.21 8.26 15.48 8.13 15.75 8C15.94 7.9 16.13 7.89 16.31 8.03C16.49 8.17 16.54 8.36 16.49 8.58C16.1 10.27 15.72 11.96 15.34 13.65C15.26 14.02 15.11 14.13 14.73 14.13C13.23 14.13 11.73 14.13 10.23 14.13V14.12Z" fill="white"/>
</svg>
