<svg width="24" height="24" viewBox="0 0 24 24" fill="none" xmlns="http://www.w3.org/2000/svg">
<path d="M11.7216 7.54717C9.25698 7.54717 6.79236 7.54717 4.33952 7.54717C3.63198 7.54717 3.10132 7.09906 3.01877 6.43868C2.92443 5.70755 3.45509 5.04717 4.19801 5C4.24518 5 4.29235 5 4.33952 5C9.26877 5 14.198 5 19.1391 5C19.8348 5 20.3537 5.42453 20.4598 6.04953C20.5895 6.83962 20.0117 7.53538 19.198 7.54717C18.2546 7.54717 17.323 7.54717 16.3796 7.54717C14.8348 7.54717 13.29 7.54717 11.7452 7.54717H11.7216Z" fill="#555555"/>
<path d="M11.7332 17.4528C14.1978 17.4528 16.6742 17.4528 19.1388 17.4528C19.8346 17.4528 20.3535 17.9009 20.4478 18.5495C20.5539 19.2924 20.0115 19.9528 19.2568 20C19.1978 20 19.1388 20 19.0917 20C14.186 20 9.28033 20 4.37467 20C3.65533 20 3.12467 19.5872 3.01854 18.9505C2.88882 18.1722 3.45486 17.4646 4.24496 17.4528C4.90534 17.441 5.55392 17.4528 6.2143 17.4528C8.05392 17.4528 9.89355 17.4528 11.7332 17.4528Z" fill="#555555"/>
<path d="M7.99495 13.7736C6.75674 13.7736 5.51853 13.7736 4.28033 13.7736C3.76146 13.7736 3.36051 13.526 3.13646 13.0543C2.9124 12.5826 2.97136 12.1227 3.28976 11.7099C3.5374 11.3915 3.86759 11.2382 4.25674 11.2382C6.75674 11.2382 9.24495 11.2382 11.745 11.2382C12.4525 11.2382 13.0185 11.8161 13.0185 12.5118C13.0185 13.2076 12.4525 13.7736 11.745 13.7854C10.495 13.7854 9.24495 13.7854 8.00674 13.7854L7.99495 13.7736Z" fill="#555555"/>
</svg>
