<svg width="200" height="200" viewBox="0 0 200 200" fill="none" xmlns="http://www.w3.org/2000/svg">
<g filter="url(#filter0_di_1_378)">
<path d="M178.529 121.693C190.262 79.0965 165.235 35.0777 122.631 23.3743C80.0263 11.6708 35.9771 36.7146 24.2442 79.311C12.5114 121.908 37.5378 165.926 80.1424 177.63C122.747 189.333 166.796 164.289 178.529 121.693Z" fill="url(#paint0_linear_1_378)"/>
</g>
<g filter="url(#filter1_f_1_378)">
<path d="M178.529 121.254C190.262 78.6577 165.235 34.639 122.631 22.9355C80.0263 11.2321 35.9771 36.2759 24.2442 78.8723C12.5114 121.469 37.5378 165.488 80.1424 177.191C122.747 188.894 166.796 163.851 178.529 121.254Z" fill="url(#paint1_linear_1_378)"/>
</g>
<g filter="url(#filter2_d_1_378)">
<path d="M159.691 114.454C167.408 82.2282 147.537 49.8638 115.306 42.166C83.0753 34.4683 50.6911 54.3523 42.9736 86.5782C35.2562 118.804 55.1281 151.169 87.3586 158.866C119.589 166.564 151.974 146.68 159.691 114.454Z" fill="#DCDCDC"/>
</g>
<g filter="url(#filter3_d_1_378)">
<path d="M159.691 114.454C167.408 82.2282 147.537 49.8638 115.306 42.166C83.0753 34.4683 50.6911 54.3523 42.9736 86.5782C35.2562 118.804 55.1281 151.169 87.3586 158.866C119.589 166.564 151.974 146.68 159.691 114.454Z" fill="#DCDCDC"/>
</g>
<g filter="url(#filter4_d_1_378)">
<path d="M150.078 112.058C156.628 84.6639 139.728 57.16 112.33 50.6265C84.9312 44.093 57.4105 61.004 50.8603 88.3983C44.31 115.793 61.2107 143.296 88.609 149.83C116.007 156.364 143.528 139.453 150.078 112.058Z" fill="#DCDCDC"/>
</g>
<g filter="url(#filter5_d_1_378)">
<path d="M150.078 112.058C156.628 84.6639 139.728 57.16 112.33 50.6265C84.9312 44.093 57.4105 61.004 50.8603 88.3983C44.31 115.793 61.2107 143.296 88.609 149.83C116.007 156.364 143.528 139.453 150.078 112.058Z" fill="#DCDCDC"/>
</g>
<path d="M85.4701 121.877L86.6146 122.875C87.1973 123.394 87.114 124.309 86.4481 124.683L81.3916 127.696C81.3916 127.696 81.3292 127.738 81.2876 127.758C81.1211 127.821 80.9546 127.758 80.8298 127.634C80.7674 127.55 80.7466 127.467 80.7466 127.384C80.7466 127.26 80.7882 127.156 80.8922 127.052L82.7234 124.974C83.1396 124.517 83.0979 123.81 82.6402 123.394L80.8298 121.794L80.7674 121.732C80.2471 121.275 80.1431 120.464 80.6841 119.903C81.9951 118.552 83.4101 117.326 84.9707 115.622C85.0123 115.622 85.054 115.622 85.1164 115.622L88.9036 118.324C87.8215 118.906 86.7603 119.488 85.6782 120.069C84.9915 120.423 84.8875 121.379 85.4701 121.898V121.877Z" fill="#DCDCDC"/>
<path d="M115.497 103.362C115.372 103.757 115.102 103.985 114.769 104.172C112.771 105.274 110.774 106.354 108.797 107.435C104.26 109.908 99.7033 112.381 95.167 114.895C94.7509 115.103 94.2723 115.082 93.8977 114.812L90.4851 112.36C89.8816 111.924 89.8192 111.051 90.3602 110.531C91.0261 109.887 91.692 109.243 92.3579 108.599C94.1058 106.895 95.8537 105.211 97.6225 103.528C97.8097 103.341 97.7889 103.05 97.5808 102.905C94.9173 101.035 92.2746 99.1227 89.6319 97.2317C89.2782 96.9823 88.9452 96.7121 88.8828 96.255C88.7788 95.59 89.0493 95.112 89.6735 94.8003C92.9821 93.1587 104.718 87.4232 108.672 85.4698C109.109 85.262 109.629 85.3036 110.024 85.5945L113.541 88.109C114.145 88.5454 114.207 89.4182 113.687 89.9377C112.417 91.1637 111.127 92.3898 109.858 93.5951C109.046 94.3847 108.235 95.1536 107.423 95.9225C107.111 96.1719 107.153 96.3173 107.465 96.5251C109.92 98.2707 112.376 100.037 114.81 101.783C115.476 102.261 115.684 102.78 115.497 103.362Z" fill="#DCDCDC"/>
<path d="M122.489 81.2306C122.406 81.5215 122.239 81.7501 122.01 81.9579C121.115 82.8099 120.241 83.6619 119.347 84.5139C119.097 84.7425 118.743 84.7633 118.473 84.5762L116.163 82.9346C115.747 82.6229 115.809 81.9994 116.267 81.7709C117.786 81.0435 119.284 80.3162 120.803 79.5681H121.636C122.406 80.0668 122.676 80.6072 122.489 81.2306Z" fill="#DCDCDC"/>
<path d="M115.172 103.794C115.047 104.189 114.777 104.417 114.444 104.604C112.446 105.706 110.449 106.786 108.472 107.867C103.936 110.34 99.3786 112.813 94.8423 115.327C94.4261 115.535 93.9475 115.514 93.5729 115.244L90.1603 112.792C89.5569 112.355 89.4944 111.483 90.0355 110.963C90.7013 110.319 91.3672 109.675 92.0331 109.03C93.781 107.326 95.529 105.643 97.2977 103.96C97.485 103.773 97.4642 103.482 97.2561 103.337C94.5926 101.466 91.9499 99.5545 89.3072 97.6635C88.9534 97.4141 88.6205 97.144 88.558 96.6868C88.454 96.0218 88.7245 95.5439 89.3488 95.2322C92.6574 93.5905 104.393 87.855 108.347 85.9017C108.784 85.6939 109.304 85.7354 109.7 86.0264L113.216 88.5408C113.82 88.9772 113.882 89.85 113.362 90.3695C112.093 91.5956 110.803 92.8216 109.533 94.0269C108.722 94.8165 107.91 95.5854 107.099 96.3543C106.786 96.6037 106.828 96.7491 107.14 96.9569C109.596 98.7025 112.051 100.469 114.486 102.214C115.152 102.692 115.36 103.212 115.172 103.794Z" fill="url(#paint2_linear_1_378)"/>
<path d="M122.164 81.6625C122.081 81.9534 121.914 82.182 121.685 82.3898C120.791 83.2418 119.917 84.0938 119.022 84.9458C118.772 85.1744 118.418 85.1951 118.148 85.0081L115.838 83.3665C115.422 83.0548 115.484 82.4313 115.942 82.2027C117.461 81.4754 118.96 80.7481 120.479 80H121.311C122.081 80.4987 122.351 81.039 122.164 81.6625Z" fill="url(#paint3_linear_1_378)"/>
<path d="M86.2899 123.307C86.8725 123.826 86.7893 124.741 86.1234 125.115L81.0669 128.128C81.0669 128.128 81.0045 128.169 80.9629 128.19C80.7964 128.253 80.6299 128.19 80.5051 128.065C80.4427 127.982 80.4219 127.899 80.4219 127.816C80.4219 127.691 80.4635 127.588 80.5675 127.484L82.3987 125.406C82.8149 124.948 82.7732 124.242 82.3154 123.826L80.5051 122.226L80.4427 122.164C79.9224 121.707 79.8184 120.896 80.3594 120.335C81.6704 118.984 83.0854 117.758 84.646 116.054C84.6876 116.054 84.7292 116.054 84.7917 116.054L88.5789 118.756C87.4968 119.338 86.4356 119.92 85.3535 120.501C84.6668 120.855 84.5628 121.811 85.1454 122.33L86.2899 123.328V123.307Z" fill="url(#paint4_linear_1_378)"/>
<g filter="url(#filter6_d_1_378)">
<path d="M109.254 85.3451C109.525 85.3451 109.796 85.4282 110.024 85.5944L113.541 88.1089C114.145 88.5453 114.207 89.4181 113.687 89.9376C112.417 91.1636 111.148 92.3897 109.858 93.595C109.046 94.3846 108.235 95.1535 107.423 95.9224C107.111 96.1718 107.153 96.3172 107.465 96.525C109.92 98.2706 112.376 100.037 114.81 101.783C115.476 102.26 115.684 102.78 115.497 103.362C115.372 103.757 115.102 103.985 114.769 104.172C112.771 105.274 110.774 106.354 108.797 107.435C104.26 109.908 99.7033 112.381 95.167 114.895C94.9797 114.999 94.7924 115.041 94.5844 115.041C94.3347 115.041 94.085 114.957 93.8769 114.812L90.4642 112.36C89.8608 111.923 89.7984 111.051 90.3394 110.531C91.0053 109.887 91.6711 109.243 92.337 108.599C94.085 106.895 95.8329 105.211 97.6016 103.528C97.8097 103.341 97.7889 103.05 97.56 102.905C94.8965 101.034 92.2538 99.1226 89.6111 97.2316C89.2573 96.9822 88.9244 96.7121 88.862 96.2549C88.7579 95.5899 89.0284 95.112 89.6527 94.8002C92.9613 93.1586 104.697 87.4231 108.651 85.4698C108.838 85.3866 109.026 85.3451 109.213 85.3451M109.213 84.8256C108.942 84.8256 108.672 84.8879 108.422 85.0126C104.448 86.9452 92.7324 92.7014 89.403 94.3431C88.5707 94.7587 88.1961 95.4652 88.3209 96.338C88.4042 97.003 88.862 97.3563 89.2781 97.668L91.4006 99.1849C93.2942 100.536 95.1878 101.907 97.1022 103.258C95.3751 104.92 93.648 106.562 91.9417 108.245C91.4423 108.723 90.922 109.222 90.4226 109.721L89.944 110.178C89.5695 110.531 89.3822 111.03 89.4238 111.529C89.4654 112.027 89.7151 112.505 90.1313 112.796L93.5439 115.248C93.8353 115.456 94.189 115.56 94.5427 115.56C94.8341 115.56 95.1254 115.477 95.3751 115.352C99.9114 112.859 104.448 110.386 108.984 107.913L111.106 106.77C112.397 106.063 113.687 105.357 114.998 104.65C115.331 104.463 115.768 104.152 115.976 103.549C116.163 102.988 116.163 102.157 115.102 101.388L113.52 100.245C111.647 98.894 109.775 97.5433 107.881 96.2133C108.651 95.486 109.442 94.7379 110.212 93.9898C111.481 92.7845 112.771 91.5585 114.04 90.3324C114.415 89.9791 114.602 89.4804 114.561 88.9817C114.519 88.4622 114.269 88.005 113.853 87.7141L110.337 85.1996C110.024 84.971 109.65 84.8463 109.254 84.8463L109.213 84.8256Z" fill="#BABABA"/>
<path d="M121.636 79.5681C122.406 80.0668 122.676 80.6071 122.489 81.2306C122.406 81.5215 122.239 81.7501 122.01 81.9579C121.115 82.8099 120.241 83.6619 119.347 84.5139C119.222 84.6386 119.055 84.7009 118.868 84.7009C118.722 84.7009 118.598 84.6593 118.473 84.5762L116.163 82.9346C115.747 82.6436 115.809 81.9994 116.267 81.7708C117.786 81.0435 119.284 80.3162 120.803 79.5681H121.636ZM121.781 79.0486H120.678L120.574 79.1109C119.055 79.859 117.557 80.5863 116.038 81.3137C115.664 81.5007 115.414 81.854 115.372 82.2904C115.331 82.706 115.518 83.1216 115.872 83.371L118.181 85.0126C118.39 85.1581 118.639 85.2412 118.889 85.2412C119.201 85.2412 119.492 85.1165 119.721 84.9087C120.262 84.3892 120.824 83.8697 121.365 83.3294L122.406 82.3319C122.718 82.041 122.926 81.7293 123.03 81.376C123.196 80.7942 123.175 79.9214 121.969 79.1317L121.844 79.0486H121.781Z" fill="#BABABA"/>
<path d="M85.1164 115.602L88.9036 118.303C87.8215 118.885 86.7603 119.467 85.6782 120.049C84.9916 120.402 84.8875 121.358 85.4702 121.877L86.6146 122.875C87.1973 123.394 87.114 124.309 86.4482 124.683L81.3917 127.696C81.3917 127.696 81.3292 127.738 81.2876 127.758C81.246 127.758 81.2044 127.779 81.1628 127.779C81.0379 127.779 80.9339 127.717 80.8298 127.634C80.7674 127.55 80.7466 127.467 80.7466 127.384C80.7466 127.26 80.7882 127.156 80.8923 127.052L82.7234 124.974C83.1396 124.517 83.098 123.81 82.6402 123.394L80.8298 121.794L80.7674 121.732C80.2472 121.275 80.1431 120.464 80.6842 119.903C81.9951 118.552 83.4101 117.326 84.9707 115.622C85.0124 115.622 85.054 115.622 85.1164 115.622M85.2829 115.103H84.9083L84.6794 115.124L84.5754 115.29C83.639 116.308 82.7858 117.139 81.9327 117.95C81.3708 118.49 80.8298 119.01 80.2888 119.55C79.935 119.903 79.7686 120.36 79.7894 120.859C79.7894 121.337 80.0391 121.815 80.4137 122.148L82.2864 123.81C82.4113 123.914 82.4737 124.059 82.4737 124.226C82.4737 124.392 82.4321 124.537 82.328 124.662L80.4969 126.74C80.3096 126.927 80.2264 127.156 80.2264 127.426C80.2264 127.634 80.2888 127.821 80.4137 127.987C80.6634 128.236 80.8923 128.34 81.1628 128.34C81.2668 128.34 81.3708 128.34 81.4749 128.278H81.5373L81.6206 128.215L86.7395 125.161C87.1973 124.911 87.4886 124.454 87.5302 123.935C87.5926 123.415 87.3846 122.875 86.9684 122.522L85.8239 121.524C85.6782 121.399 85.595 121.192 85.6366 120.984C85.6574 120.797 85.7615 120.631 85.928 120.547L87.551 119.675L89.1533 118.802L89.8816 118.407L89.1949 117.929L85.4077 115.228L85.2621 115.124L85.2829 115.103Z" fill="#BABABA"/>
</g>
<path d="M109.255 85.3451C109.525 85.3451 109.796 85.4282 110.024 85.5944L113.541 88.1089C114.145 88.5453 114.207 89.4181 113.687 89.9376C112.417 91.1636 111.148 92.3897 109.858 93.595C109.046 94.3846 108.235 95.1535 107.423 95.9224C107.111 96.1718 107.153 96.3172 107.465 96.525C109.92 98.2706 112.376 100.037 114.81 101.783C115.476 102.26 115.684 102.78 115.497 103.362C115.372 103.757 115.102 103.985 114.769 104.172C112.771 105.274 110.774 106.354 108.797 107.435C104.26 109.908 99.7033 112.381 95.167 114.895C94.9798 114.999 94.7925 115.041 94.5844 115.041C94.3347 115.041 94.085 114.957 93.8769 114.812L90.4643 112.36C89.8608 111.923 89.7984 111.051 90.3394 110.531C91.0053 109.887 91.6712 109.243 92.3371 108.599C94.085 106.895 95.8329 105.211 97.6016 103.528C97.8097 103.341 97.7889 103.05 97.56 102.905C94.8965 101.034 92.2538 99.1226 89.6111 97.2316C89.2574 96.9822 88.9244 96.7121 88.862 96.2549C88.758 95.5899 89.0285 95.112 89.6527 94.8002C92.9613 93.1586 104.697 87.4231 108.651 85.4698C108.838 85.3866 109.026 85.3451 109.213 85.3451M109.213 84.8256C108.942 84.8256 108.672 84.8879 108.422 85.0126C104.448 86.9452 92.7324 92.7014 89.403 94.3431C88.5707 94.7587 88.1961 95.4652 88.321 96.338C88.4042 97.003 88.862 97.3563 89.2782 97.668L91.4007 99.1849C93.2943 100.536 95.1878 101.907 97.1022 103.258C95.3751 104.92 93.648 106.562 91.9417 108.245C91.4423 108.723 90.9221 109.222 90.4227 109.721L89.9441 110.178C89.5695 110.531 89.3822 111.03 89.4238 111.529C89.4655 112.027 89.7152 112.505 90.1313 112.796L93.544 115.248C93.8353 115.456 94.189 115.56 94.5428 115.56C94.8341 115.56 95.1254 115.477 95.3751 115.352C99.9114 112.859 104.448 110.386 108.984 107.913L111.106 106.77C112.397 106.063 113.687 105.357 114.998 104.65C115.331 104.463 115.768 104.152 115.976 103.549C116.163 102.988 116.163 102.157 115.102 101.388L113.52 100.245C111.648 98.894 109.775 97.5433 107.881 96.2133C108.651 95.486 109.442 94.7379 110.212 93.9898C111.481 92.7845 112.771 91.5585 114.041 90.3324C114.415 89.9791 114.602 89.4804 114.561 88.9817C114.519 88.4622 114.269 88.005 113.853 87.7141L110.337 85.1996C110.024 84.971 109.65 84.8463 109.255 84.8463L109.213 84.8256Z" fill="#BABABA"/>
<path d="M121.636 79.5681C122.406 80.0668 122.676 80.6071 122.489 81.2306C122.406 81.5215 122.239 81.7501 122.01 81.9579C121.115 82.8099 120.241 83.6619 119.347 84.5139C119.222 84.6386 119.055 84.7009 118.868 84.7009C118.722 84.7009 118.598 84.6593 118.473 84.5762L116.163 82.9346C115.747 82.6436 115.809 81.9994 116.267 81.7708C117.786 81.0435 119.284 80.3162 120.803 79.5681H121.636ZM121.781 79.0486H120.678L120.574 79.1109C119.055 79.859 117.557 80.5863 116.038 81.3137C115.664 81.5007 115.414 81.854 115.372 82.2904C115.331 82.706 115.518 83.1216 115.872 83.371L118.181 85.0126C118.39 85.1581 118.639 85.2412 118.889 85.2412C119.201 85.2412 119.492 85.1165 119.721 84.9087C120.262 84.3892 120.824 83.8697 121.365 83.3294L122.406 82.3319C122.718 82.041 122.926 81.7293 123.03 81.376C123.196 80.7942 123.175 79.9214 121.969 79.1317L121.844 79.0486H121.781Z" fill="#BABABA"/>
<path d="M85.1164 115.602L88.9036 118.303C87.8215 118.885 86.7603 119.467 85.6782 120.049C84.9916 120.402 84.8875 121.358 85.4702 121.877L86.6146 122.875C87.1973 123.394 87.114 124.309 86.4482 124.683L81.3917 127.696C81.3917 127.696 81.3292 127.738 81.2876 127.758C81.246 127.758 81.2044 127.779 81.1628 127.779C81.0379 127.779 80.9339 127.717 80.8298 127.634C80.7674 127.55 80.7466 127.467 80.7466 127.384C80.7466 127.26 80.7882 127.156 80.8923 127.052L82.7234 124.974C83.1396 124.517 83.098 123.81 82.6402 123.394L80.8298 121.794L80.7674 121.732C80.2472 121.275 80.1431 120.464 80.6842 119.903C81.9951 118.552 83.4101 117.326 84.9707 115.622C85.0124 115.622 85.054 115.622 85.1164 115.622M85.2829 115.103H84.9083L84.6794 115.124L84.5754 115.29C83.639 116.308 82.7858 117.139 81.9327 117.95C81.3708 118.49 80.8298 119.01 80.2888 119.55C79.935 119.903 79.7686 120.36 79.7894 120.859C79.7894 121.337 80.0391 121.815 80.4137 122.148L82.2864 123.81C82.4113 123.914 82.4737 124.059 82.4737 124.226C82.4737 124.392 82.4321 124.537 82.328 124.662L80.4969 126.74C80.3096 126.927 80.2264 127.156 80.2264 127.426C80.2264 127.634 80.2888 127.821 80.4137 127.987C80.6634 128.236 80.8923 128.34 81.1628 128.34C81.2668 128.34 81.3708 128.34 81.4749 128.278H81.5373L81.6206 128.215L86.7395 125.161C87.1973 124.911 87.4886 124.454 87.5302 123.935C87.5926 123.415 87.3846 122.875 86.9684 122.522L85.8239 121.524C85.6782 121.399 85.595 121.192 85.6366 120.984C85.6574 120.797 85.7615 120.631 85.928 120.547L87.551 119.675L89.1533 118.802L89.8816 118.407L89.1949 117.929L85.4077 115.228L85.2621 115.124L85.2829 115.103Z" fill="#BABABA"/>
<g filter="url(#filter7_f_1_378)">
<path d="M115.021 103.209L115.02 103.211C114.95 103.434 114.804 103.579 114.525 103.735C113.234 104.447 111.944 105.15 110.659 105.85C109.957 106.232 109.256 106.614 108.557 106.996C107.757 107.432 106.956 107.868 106.155 108.305C102.418 110.341 98.6691 112.382 94.935 114.452C94.6725 114.58 94.3983 114.557 94.1901 114.406L94.1894 114.406L90.778 111.955C90.7778 111.955 90.7776 111.954 90.7774 111.954C90.4275 111.701 90.3904 111.195 90.7065 110.892L90.7078 110.891L92.7055 108.958L92.7068 108.957C94.4533 107.254 96.1998 105.572 97.9671 103.89L97.9672 103.89L97.9757 103.882C98.3688 103.489 98.3466 102.831 97.8681 102.495C95.9231 101.13 93.9901 99.7425 92.0577 98.3556C91.3462 97.845 90.6348 97.3344 89.9228 96.825L89.9199 96.8229C89.5606 96.5696 89.4085 96.4095 89.3782 96.1873L89.3783 96.1873L89.3767 96.1776C89.3382 95.9315 89.374 95.762 89.4433 95.6358C89.5144 95.5062 89.6491 95.3714 89.8963 95.2479C91.6581 94.3737 95.7996 92.3436 99.887 90.34C103.482 88.578 107.034 86.8365 108.89 85.9199C109.164 85.7906 109.486 85.8191 109.728 85.9972L109.728 85.9972L109.734 86.0012L113.248 88.5141C113.248 88.5143 113.249 88.5145 113.249 88.5147C113.599 88.7687 113.637 89.2775 113.336 89.5812C112.069 90.8045 110.782 92.0281 109.514 93.2324L109.514 93.2324L109.509 93.2366C108.705 94.019 107.901 94.7812 107.094 95.5459C107.004 95.6192 106.911 95.7072 106.84 95.8126C106.76 95.9315 106.691 96.0969 106.713 96.2946C106.734 96.4847 106.831 96.6251 106.914 96.7164C106.995 96.8044 107.092 96.8771 107.181 96.9368C109.094 98.2966 111.006 99.6688 112.91 101.035C113.447 101.42 113.983 101.805 114.519 102.189C114.806 102.395 114.949 102.579 115.014 102.729C115.073 102.868 115.082 103.018 115.021 103.209Z" stroke="#77CCEE"/>
<path d="M122.01 81.0867L122.01 81.0867L122.008 81.093C121.957 81.2711 121.855 81.4239 121.674 81.5877L121.674 81.5876L121.665 81.5958C121.217 82.0228 120.774 82.4497 120.332 82.8753L120.332 82.8758C119.891 83.3006 119.451 83.7241 119.006 84.1475C118.93 84.2154 118.837 84.2189 118.759 84.1663L116.459 82.5317C116.348 82.4451 116.363 82.2839 116.488 82.2195C117.972 81.5089 119.436 80.7982 120.92 80.0681H121.482C121.751 80.2592 121.9 80.4321 121.976 80.5798C122.053 80.7313 122.07 80.8883 122.01 81.0867Z" stroke="#77CCEE"/>
<path d="M86.1922 124.253L81.628 126.973L83.0961 125.307C83.6996 124.641 83.6327 123.62 82.9762 123.024L82.9763 123.024L82.9713 123.02L81.1723 121.43L81.1207 121.378L81.1094 121.367L81.0974 121.356C80.7699 121.069 80.7206 120.586 81.0436 120.251C81.5605 119.718 82.0928 119.206 82.6514 118.669C82.7929 118.533 82.9361 118.395 83.0811 118.255C83.7226 117.635 84.3944 116.975 85.0968 116.223L87.96 118.265C87.6567 118.429 87.3545 118.593 87.0527 118.757L87.0523 118.757C86.5176 119.048 85.9838 119.337 85.4451 119.627C84.4348 120.151 84.3072 121.531 85.1374 122.271L85.1374 122.271L85.1416 122.275L86.2861 123.273L86.3782 123.353C86.6044 123.656 86.5154 124.071 86.2033 124.247L86.2032 124.247L86.1922 124.253Z" stroke="#77CCEE"/>
</g>
<defs>
<filter id="filter0_di_1_378" x="14.3523" y="13.496" width="172.069" height="172.012" filterUnits="userSpaceOnUse" color-interpolation-filters="sRGB">
<feFlood flood-opacity="0" result="BackgroundImageFix"/>
<feColorMatrix in="SourceAlpha" type="matrix" values="0 0 0 0 0 0 0 0 0 0 0 0 0 0 0 0 0 0 127 0" result="hardAlpha"/>
<feOffset dx="-1" dy="-1"/>
<feGaussianBlur stdDeviation="3"/>
<feColorMatrix type="matrix" values="0 0 0 0 1 0 0 0 0 1 0 0 0 0 1 0 0 0 0.7 0"/>
<feBlend mode="normal" in2="BackgroundImageFix" result="effect1_dropShadow_1_378"/>
<feBlend mode="normal" in="SourceGraphic" in2="effect1_dropShadow_1_378" result="shape"/>
<feColorMatrix in="SourceAlpha" type="matrix" values="0 0 0 0 0 0 0 0 0 0 0 0 0 0 0 0 0 0 127 0" result="hardAlpha"/>
<feOffset dy="4"/>
<feGaussianBlur stdDeviation="2"/>
<feComposite in2="hardAlpha" operator="arithmetic" k2="-1" k3="1"/>
<feColorMatrix type="matrix" values="0 0 0 0 0 0 0 0 0 0 0 0 0 0 0 0 0 0 0.25 0"/>
<feBlend mode="normal" in2="shape" result="effect2_innerShadow_1_378"/>
</filter>
<filter id="filter1_f_1_378" x="8.35226" y="7.05719" width="186.069" height="186.012" filterUnits="userSpaceOnUse" color-interpolation-filters="sRGB">
<feFlood flood-opacity="0" result="BackgroundImageFix"/>
<feBlend mode="normal" in="SourceGraphic" in2="BackgroundImageFix" result="shape"/>
<feGaussianBlur stdDeviation="6.5" result="effect1_foregroundBlur_1_378"/>
</filter>
<filter id="filter2_d_1_378" x="38.3103" y="37.5107" width="128.044" height="128.011" filterUnits="userSpaceOnUse" color-interpolation-filters="sRGB">
<feFlood flood-opacity="0" result="BackgroundImageFix"/>
<feColorMatrix in="SourceAlpha" type="matrix" values="0 0 0 0 0 0 0 0 0 0 0 0 0 0 0 0 0 0 127 0" result="hardAlpha"/>
<feOffset dx="1" dy="1"/>
<feGaussianBlur stdDeviation="2"/>
<feColorMatrix type="matrix" values="0 0 0 0 0.345098 0 0 0 0 0.345098 0 0 0 0 0.345098 0 0 0 0.9 0"/>
<feBlend mode="normal" in2="BackgroundImageFix" result="effect1_dropShadow_1_378"/>
<feBlend mode="normal" in="SourceGraphic" in2="effect1_dropShadow_1_378" result="shape"/>
</filter>
<filter id="filter3_d_1_378" x="36.3103" y="35.5107" width="128.044" height="128.011" filterUnits="userSpaceOnUse" color-interpolation-filters="sRGB">
<feFlood flood-opacity="0" result="BackgroundImageFix"/>
<feColorMatrix in="SourceAlpha" type="matrix" values="0 0 0 0 0 0 0 0 0 0 0 0 0 0 0 0 0 0 127 0" result="hardAlpha"/>
<feOffset dx="-1" dy="-1"/>
<feGaussianBlur stdDeviation="2"/>
<feColorMatrix type="matrix" values="0 0 0 0 1 0 0 0 0 1 0 0 0 0 1 0 0 0 0.2 0"/>
<feBlend mode="normal" in2="BackgroundImageFix" result="effect1_dropShadow_1_378"/>
<feBlend mode="normal" in="SourceGraphic" in2="effect1_dropShadow_1_378" result="shape"/>
</filter>
<filter id="filter4_d_1_378" x="46.4506" y="46.2236" width="110.037" height="110.009" filterUnits="userSpaceOnUse" color-interpolation-filters="sRGB">
<feFlood flood-opacity="0" result="BackgroundImageFix"/>
<feColorMatrix in="SourceAlpha" type="matrix" values="0 0 0 0 0 0 0 0 0 0 0 0 0 0 0 0 0 0 127 0" result="hardAlpha"/>
<feOffset dx="1" dy="1"/>
<feGaussianBlur stdDeviation="2"/>
<feColorMatrix type="matrix" values="0 0 0 0 0.368627 0 0 0 0 0.368627 0 0 0 0 0.368627 0 0 0 0.7 0"/>
<feBlend mode="normal" in2="BackgroundImageFix" result="effect1_dropShadow_1_378"/>
<feBlend mode="normal" in="SourceGraphic" in2="effect1_dropShadow_1_378" result="shape"/>
</filter>
<filter id="filter5_d_1_378" x="44.4506" y="44.2236" width="110.037" height="110.009" filterUnits="userSpaceOnUse" color-interpolation-filters="sRGB">
<feFlood flood-opacity="0" result="BackgroundImageFix"/>
<feColorMatrix in="SourceAlpha" type="matrix" values="0 0 0 0 0 0 0 0 0 0 0 0 0 0 0 0 0 0 127 0" result="hardAlpha"/>
<feOffset dx="-1" dy="-1"/>
<feGaussianBlur stdDeviation="2"/>
<feColorMatrix type="matrix" values="0 0 0 0 1 0 0 0 0 1 0 0 0 0 1 0 0 0 1 0"/>
<feBlend mode="normal" in2="BackgroundImageFix" result="effect1_dropShadow_1_378"/>
<feBlend mode="normal" in="SourceGraphic" in2="effect1_dropShadow_1_378" result="shape"/>
</filter>
<filter id="filter6_d_1_378" x="75.7877" y="75.0486" width="51.3165" height="57.2916" filterUnits="userSpaceOnUse" color-interpolation-filters="sRGB">
<feFlood flood-opacity="0" result="BackgroundImageFix"/>
<feColorMatrix in="SourceAlpha" type="matrix" values="0 0 0 0 0 0 0 0 0 0 0 0 0 0 0 0 0 0 127 0" result="hardAlpha"/>
<feOffset/>
<feGaussianBlur stdDeviation="2"/>
<feComposite in2="hardAlpha" operator="out"/>
<feColorMatrix type="matrix" values="0 0 0 0 0 0 0 0 0 0 0 0 0 0 0 0 0 0 0.15 0"/>
<feBlend mode="normal" in2="BackgroundImageFix" result="effect1_dropShadow_1_378"/>
<feBlend mode="normal" in="SourceGraphic" in2="effect1_dropShadow_1_378" result="shape"/>
</filter>
<filter id="filter7_f_1_378" x="76.3247" y="75.5681" width="50.2212" height="56.2147" filterUnits="userSpaceOnUse" color-interpolation-filters="sRGB">
<feFlood flood-opacity="0" result="BackgroundImageFix"/>
<feBlend mode="normal" in="SourceGraphic" in2="BackgroundImageFix" result="shape"/>
<feGaussianBlur stdDeviation="2" result="effect1_foregroundBlur_1_378"/>
</filter>
<linearGradient id="paint0_linear_1_378" x1="155.177" y1="40.35" x2="48.0785" y2="160.912" gradientUnits="userSpaceOnUse">
<stop stop-color="#49A9BE"/>
<stop offset="1" stop-color="#185A96"/>
</linearGradient>
<linearGradient id="paint1_linear_1_378" x1="155.177" y1="39.9112" x2="48.0785" y2="160.473" gradientUnits="userSpaceOnUse">
<stop stop-color="#62C5DB"/>
<stop offset="1" stop-color="#2179CB"/>
</linearGradient>
<linearGradient id="paint2_linear_1_378" x1="127.858" y1="77.1074" x2="74.4738" y2="127.171" gradientUnits="userSpaceOnUse">
<stop stop-color="#8CEAFF"/>
<stop offset="1" stop-color="#3887D0"/>
</linearGradient>
<linearGradient id="paint3_linear_1_378" x1="125.37" y1="78.5019" x2="116.528" y2="90.4663" gradientUnits="userSpaceOnUse">
<stop stop-color="#8CEAFF"/>
<stop offset="1" stop-color="#3887D0"/>
</linearGradient>
<linearGradient id="paint4_linear_1_378" x1="92.6333" y1="112.506" x2="71.7194" y2="127.894" gradientUnits="userSpaceOnUse">
<stop stop-color="#8CEAFF"/>
<stop offset="1" stop-color="#3887D0"/>
</linearGradient>
</defs>
</svg>
