<svg width="15" height="15" viewBox="0 0 15 15" fill="none" xmlns="http://www.w3.org/2000/svg">
<g filter="url(#filter0_d_1_255)">
<path d="M6.30816 4.8183C6.35701 4.82807 6.37655 4.86228 6.40097 4.88672C6.8015 5.28254 7.19715 5.68325 7.59768 6.07907C7.6563 6.13283 7.68072 6.19147 7.68072 6.27454C7.68072 6.52377 7.68072 6.77299 7.68072 7.0271C7.68072 7.29098 7.82237 7.43269 8.08614 7.42781C8.34014 7.42781 8.59413 7.44736 8.84813 7.41315C8.90186 7.40826 8.94093 7.42292 8.97513 7.45713C9.56616 8.05331 10.1621 8.6446 10.758 9.23589C10.8117 9.28965 10.7971 9.32385 10.7433 9.36784C10.0058 9.98845 9.16562 10.394 8.21314 10.5504C7.04085 10.7459 5.91252 10.5846 4.86234 10.0227C3.36767 9.22123 2.42983 7.98489 2.10745 6.31852C1.78996 4.68636 2.19049 3.21057 3.24555 1.91559C3.33347 1.80808 3.33347 1.80808 3.43605 1.91559C3.97823 2.45802 4.52042 3.00533 5.06749 3.54776C5.14564 3.62106 5.15541 3.68947 5.1261 3.7872C4.80861 4.83785 4.496 5.88849 4.1785 6.93914C4.115 7.15415 4.18827 7.33985 4.37388 7.40337C4.55461 7.47179 4.85745 7.37894 4.92584 7.18836C5.00887 6.9538 5.08703 6.72412 5.1603 6.48467C5.18472 6.4016 5.22379 6.36739 5.3166 6.36739C5.56083 6.37228 5.85879 6.36739 6.10301 6.36739C6.18605 6.36739 6.2349 6.36739 6.29351 6.45535C6.32282 6.51888 6.35212 6.55797 6.37655 6.62639C6.44005 6.8072 6.47912 7.01732 6.53774 7.1737C6.58658 7.33007 6.47912 7.43269 6.63054 7.42292C6.79662 7.40826 6.92362 7.29587 6.95292 7.12483C6.96758 7.05642 6.94315 6.99289 6.92362 6.92936C6.72335 6.26477 6.52797 5.60506 6.3277 4.94047C6.31793 4.90138 6.29351 4.86717 6.31305 4.8183H6.30816Z" fill="#E0E0E0"/>
<path d="M8.42806 3.20081C8.2913 3.20081 8.18384 3.20081 8.07149 3.20081C7.82238 3.20081 7.68073 3.34252 7.68073 3.59174C7.68073 4.06087 7.68073 4.53488 7.68073 5.004C7.68073 5.03332 7.68073 5.06264 7.68073 5.09196C7.68073 5.15549 7.65142 5.15061 7.61234 5.1164C7.59281 5.09685 7.57327 5.08219 7.55861 5.06264C6.34725 3.85074 5.131 2.63395 3.91963 1.42204C3.8545 1.35688 3.85776 1.29336 3.9294 1.23146C4.73535 0.561978 5.66341 0.146607 6.7087 0.0342125C8.2278 -0.127049 9.5857 0.278548 10.7531 1.26567C11.7202 2.08175 12.3259 3.12262 12.5409 4.36873C12.8242 5.99601 12.4187 7.45714 11.3734 8.73746C11.3197 8.80098 11.2855 8.80587 11.2269 8.74723C10.7287 8.2439 10.2256 7.74057 9.71759 7.23723C9.66386 7.18348 9.65897 7.14927 9.72735 7.10529C10.2256 6.74856 10.4747 6.25989 10.4845 5.65394C10.4893 5.30698 10.5138 4.95514 10.4454 4.60818C10.3037 3.8654 9.65409 3.28388 8.90675 3.22035C8.73579 3.20569 8.56972 3.21058 8.42318 3.20569L8.42806 3.20081Z" fill="#E0E0E0"/>
<path d="M8.36945 4.90138C8.36945 4.60329 8.36945 4.3052 8.36945 4.00711C8.36945 3.91915 8.39875 3.89472 8.48179 3.88983C8.7944 3.88006 9.10213 3.88983 9.36589 4.09507C9.69804 4.31497 10.0546 4.64727 10.0644 4.99423C10.0693 5.25322 9.8055 5.44381 9.79573 5.7028C9.78108 6.1084 9.5857 6.40649 9.2389 6.61173C9.17051 6.65082 9.12167 6.64105 9.06794 6.5873C8.8579 6.37228 8.64787 6.16215 8.43783 5.95202C8.38898 5.90316 8.36945 5.85429 8.36945 5.78588C8.36945 5.49267 8.36945 5.19458 8.36945 4.90138Z" fill="#E0E0E0"/>
<path d="M5.52663 6.04487C5.50221 6.04487 5.48756 6.04487 5.46313 6.04487C5.25798 6.04487 5.36544 5.67836 5.42406 5.48289C5.48756 5.27765 5.54617 5.07241 5.60967 4.87205C5.61456 4.84762 5.63409 4.76943 5.6634 4.77921C5.69271 4.78898 5.89297 5.12128 5.94182 5.17992C6.01509 5.40959 5.90763 5.40959 5.89786 5.64416C5.86367 5.75166 5.9174 6.05464 5.84413 6.04487C5.7904 6.04487 5.58525 6.04487 5.53152 6.04487H5.52663Z" fill="#E0E0E0"/>
<path d="M6.67451 5.18482C6.72336 5.19459 6.7429 5.2288 6.76732 5.25323C7.16785 5.64906 7.5635 6.04977 7.96403 6.44559C8.02265 6.49934 8.04707 6.55799 8.04707 6.64106C8.04707 6.89028 8.04707 7.1395 8.04707 7.39361C8.04707 7.6575 8.18872 7.79921 8.45249 7.79432C8.70649 7.79432 8.96048 7.81387 9.21448 7.77966C9.26821 7.77478 9.30728 7.78944 9.34148 7.82365C9.93251 8.41982 10.5284 9.01112 11.1243 9.60241C11.1781 9.65616 11.1634 9.69037 11.1097 9.73435C10.3721 10.355 9.53197 10.7606 8.57949 10.9169C7.4072 11.1124 6.27887 10.9511 5.22869 10.3892C3.73402 9.58775 2.7913 8.35141 2.46892 6.68504C2.15142 5.05288 2.55196 3.57709 3.60702 2.28211C3.69494 2.1746 3.69494 2.1746 3.79752 2.28211C4.3397 2.82453 4.88188 3.37185 5.42895 3.91427C5.50711 3.98757 5.51688 4.05599 5.48757 4.15372C5.17007 5.20436 4.85746 6.25501 4.53997 7.30565C4.47647 7.52067 4.54974 7.70636 4.73535 7.76989C4.91608 7.8383 5.11146 7.74546 5.17984 7.54999C5.26288 7.31543 5.34103 7.08575 5.4143 6.8463C5.43872 6.76323 5.4778 6.72902 5.57061 6.72902C5.81483 6.73391 6.05418 6.72902 6.2984 6.72902C6.38144 6.72902 6.41563 6.75834 6.43517 6.83653C6.50355 7.07598 6.57194 7.31054 6.65009 7.5451C6.69894 7.70148 6.84547 7.79921 6.99201 7.78944C7.15808 7.77478 7.28508 7.66238 7.31439 7.49135C7.32904 7.42293 7.30462 7.35941 7.28508 7.29588C7.08482 6.63129 6.88943 5.97158 6.68917 5.30699C6.6794 5.26789 6.65498 5.23368 6.67451 5.18482Z" fill="white"/>
<path d="M8.79441 3.56731C8.65765 3.56731 8.55019 3.56731 8.43784 3.56731C8.18873 3.56731 8.04708 3.70902 8.04708 3.95825C8.04708 4.42737 8.04708 4.90138 8.04708 5.37051C8.04708 5.39983 8.04708 5.42915 8.04708 5.45847C8.04708 5.522 8.01777 5.51711 7.97869 5.4829C7.95916 5.46336 7.93962 5.4487 7.92496 5.42915C6.7136 4.21724 5.49734 3.00045 4.28598 1.78854C4.22085 1.72339 4.2241 1.65986 4.29574 1.59796C5.10658 0.923596 6.03464 0.508225 7.08482 0.395831C8.60392 0.234569 9.96182 0.640166 11.1292 1.62728C12.0964 2.44336 12.7021 3.48424 12.917 4.73035C13.2003 6.35763 12.7949 7.81875 11.7496 9.09907C11.6958 9.1626 11.6616 9.16749 11.603 9.10885C11.1048 8.60551 10.6017 8.10218 10.0937 7.59885C10.04 7.5451 10.0351 7.51089 10.1035 7.46691C10.6017 7.11018 10.8508 6.62151 10.8606 6.01556C10.8655 5.6686 10.8899 5.31675 10.8215 4.9698C10.6798 4.22702 10.0302 3.6455 9.28287 3.58197C9.11191 3.56731 8.94583 3.5722 8.7993 3.56731H8.79441Z" fill="white"/>
<path d="M8.73579 5.26788C8.73579 4.96979 8.73579 4.6717 8.73579 4.37361C8.73579 4.28565 8.7651 4.26122 8.84814 4.25633C9.16075 4.24656 9.46848 4.25633 9.73224 4.46157C10.0058 4.6717 10.1572 4.94536 10.1621 5.29231C10.167 5.55131 10.1719 5.81031 10.1621 6.06442C10.1474 6.47001 9.95205 6.7681 9.60524 6.97335C9.53686 7.01244 9.48801 7.00267 9.43428 6.94891C9.22425 6.7339 9.01421 6.52377 8.80418 6.31364C8.75533 6.26477 8.73579 6.2159 8.73579 6.14749C8.73579 5.85429 8.73579 5.5562 8.73579 5.26299V5.26788Z" fill="white"/>
<path d="M5.9174 6.04487C5.89298 6.04487 5.86367 6.04487 5.83925 6.04487C5.70248 6.04487 5.65364 5.97971 5.69271 5.8494C5.75621 5.64416 5.81483 5.43892 5.87833 5.23856C5.88321 5.21413 5.88321 5.17992 5.91252 5.17503C5.95159 5.17503 5.95159 5.21413 5.95648 5.23856C6.02975 5.46824 6.09325 5.7028 6.16651 5.93736C6.19094 6.02044 6.16651 6.05464 6.08348 6.04487C6.02975 6.04487 5.97113 6.04487 5.9174 6.04487Z" fill="white"/>
</g>
<defs>
<filter id="filter0_d_1_255" x="0" y="-0.000152588" width="15.0048" height="15.0002" filterUnits="userSpaceOnUse" color-interpolation-filters="sRGB">
<feFlood flood-opacity="0" result="BackgroundImageFix"/>
<feColorMatrix in="SourceAlpha" type="matrix" values="0 0 0 0 0 0 0 0 0 0 0 0 0 0 0 0 0 0 127 0" result="hardAlpha"/>
<feOffset dy="2"/>
<feGaussianBlur stdDeviation="1"/>
<feComposite in2="hardAlpha" operator="out"/>
<feColorMatrix type="matrix" values="0 0 0 0 0 0 0 0 0 0 0 0 0 0 0 0 0 0 0.3 0"/>
<feBlend mode="normal" in2="BackgroundImageFix" result="effect1_dropShadow_1_255"/>
<feBlend mode="normal" in="SourceGraphic" in2="effect1_dropShadow_1_255" result="shape"/>
</filter>
</defs>
</svg>
