<svg width="84" height="84" viewBox="0 0 84 84" fill="none" xmlns="http://www.w3.org/2000/svg">
<path d="M65.8095 41.6535C65.5998 42.3168 65.1453 42.7008 64.586 43.015C61.2299 44.8653 57.8739 46.6807 54.5528 48.4961C46.9319 52.6505 39.2759 56.805 31.655 61.0293C30.9558 61.3784 30.1518 61.3435 29.5225 60.8896L23.7893 56.7701C22.7755 56.037 22.6706 54.5707 23.5795 53.6979C24.6982 52.6156 25.8169 51.5334 26.9356 50.4511C29.8721 47.5884 32.8086 44.7606 35.7801 41.9328C36.0947 41.6186 36.0598 41.1298 35.7102 40.8854C31.2355 37.7434 26.7957 34.5315 22.356 31.3546C21.7617 30.9357 21.2024 30.4818 21.0975 29.7138C20.9227 28.5966 21.3772 27.7936 22.4259 27.27C27.9843 24.512 47.701 14.8764 54.3431 11.5948C55.0772 11.2456 55.9512 11.3155 56.6154 11.8042L62.5234 16.0285C63.5372 16.7616 63.6421 18.2279 62.7681 19.1007C60.6356 21.1605 58.4682 23.2202 56.3357 25.2451C54.9724 26.5717 53.609 27.8635 52.2456 29.1552C51.7212 29.5741 51.7911 29.8185 52.3155 30.1676C56.4406 33.1002 60.5657 36.0676 64.6559 39.0002C65.7745 39.8032 66.1241 40.6759 65.8095 41.6535Z" fill="white"/>
<path d="M77.5556 4.47291C77.4157 4.96167 77.1361 5.34569 76.7515 5.69481C75.2483 7.12617 73.78 8.55754 72.2768 9.98891C71.8573 10.3729 71.263 10.4078 70.8085 10.0936L66.9281 7.33565C66.229 6.81198 66.3338 5.76463 67.1029 5.3806C69.6549 4.15871 72.1719 2.9368 74.7239 1.67999H76.1223C77.4157 2.51787 77.8702 3.42557 77.5556 4.47291Z" fill="white"/>
<path d="M17.287 74.4353C18.2658 75.3081 18.126 76.8442 17.0073 77.4726L8.51241 82.5347C8.51241 82.5347 8.40752 82.6046 8.3376 82.6395C8.05793 82.7442 7.77827 82.6395 7.56852 82.43C7.46365 82.2904 7.42868 82.1507 7.42868 82.0111C7.42868 81.8016 7.4986 81.627 7.67339 81.4525L10.7498 77.9613C11.4489 77.1933 11.379 76.0063 10.6099 75.3081L7.56852 72.6199L7.46364 72.5152C6.58967 71.7471 6.41489 70.3856 7.32381 69.443C9.5262 67.1737 11.9034 65.114 14.5253 62.2512C14.5952 62.2512 14.6651 62.2512 14.77 62.2512L21.1325 66.7897C19.3146 67.7672 17.5317 68.7447 15.7139 69.7223C14.5602 70.3158 14.3854 71.9217 15.3643 72.7945L17.287 74.4702V74.4353Z" fill="white"/>
</svg>
