<svg width="44" height="44" viewBox="0 0 44 44" fill="none" xmlns="http://www.w3.org/2000/svg">
<g filter="url(#filter0_d_1_192)">
<path d="M14.2494 9C15.2634 9 16.2895 9 17.3035 9C18.592 9 19.4033 9.81127 19.4033 11.0997C19.4033 13.1398 19.4033 15.1799 19.4033 17.22C19.4033 18.5204 18.592 19.3317 17.2797 19.3317C15.2515 19.3317 13.2234 19.3317 11.1833 19.3317C9.88285 19.3317 9.07158 18.5204 9.07158 17.22C9.07158 15.1919 9.07158 13.1637 9.07158 11.1236C9.08351 9.79934 9.89478 9 11.219 9C12.2331 9 13.2472 9 14.2494 9Z" fill="url(#paint0_linear_1_192)"/>
<path d="M23.2449 14.142C23.2449 13.1279 23.2449 12.1138 23.2449 11.1117C23.2449 9.82321 24.0561 9.01194 25.3446 9.01194C27.3967 9.01194 29.4368 9.01194 31.4888 9.01194C32.7534 9.01194 33.5766 9.83514 33.5766 11.0998C33.5766 13.1518 33.5766 15.1919 33.5766 17.2439C33.5766 18.5205 32.7534 19.3317 31.4888 19.3317C29.4368 19.3317 27.3967 19.3317 25.3446 19.3317C24.0561 19.3317 23.2449 18.5205 23.2449 17.232C23.2449 16.206 23.2449 15.1799 23.2449 14.142Z" fill="#EAEFF4"/>
<path d="M9 28.2556C9 27.2415 9 26.2155 9 25.2014C9 23.901 9.8232 23.0778 11.1117 23.0778C13.1637 23.0778 15.2157 23.0778 17.2797 23.0778C18.592 23.0778 19.4033 23.901 19.4033 25.2134C19.4033 27.2654 19.4033 29.3055 19.4033 31.3575C19.4033 32.6699 18.592 33.4931 17.2797 33.4931C15.2277 33.4931 13.1876 33.4931 11.1355 33.4931C9.81127 33.4931 9 32.6818 9 31.3456C9 30.3196 9 29.2936 9 28.2676L9 28.2556Z" fill="#EAEFF4"/>
<g filter="url(#filter1_d_1_192)">
<path d="M27.8858 34.2208C27.4086 34.2208 26.9552 34.0419 26.5973 33.684C25.2969 32.3836 23.9846 31.0951 22.6961 29.7827C21.9683 29.043 21.9564 27.8619 22.6961 27.1223C23.9846 25.8099 25.285 24.5095 26.5973 23.221C27.337 22.4933 28.5181 22.4813 29.2697 23.221C30.5821 24.5095 31.8825 25.8099 33.171 27.1223C33.8987 27.8619 33.9106 29.043 33.171 29.7947C31.8825 31.107 30.5701 32.4074 29.2697 33.6959C28.8999 34.0657 28.4465 34.2328 27.8858 34.2328V34.2208Z" fill="#60C9E0"/>
</g>
</g>
<defs>
<filter id="filter0_d_1_192" x="5" y="9" width="32.7213" height="33.2328" filterUnits="userSpaceOnUse" color-interpolation-filters="sRGB">
<feFlood flood-opacity="0" result="BackgroundImageFix"/>
<feColorMatrix in="SourceAlpha" type="matrix" values="0 0 0 0 0 0 0 0 0 0 0 0 0 0 0 0 0 0 127 0" result="hardAlpha"/>
<feOffset dy="4"/>
<feGaussianBlur stdDeviation="2"/>
<feComposite in2="hardAlpha" operator="out"/>
<feColorMatrix type="matrix" values="0 0 0 0 0.0489583 0 0 0 0 0.165479 0 0 0 0 0.391667 0 0 0 0.25 0"/>
<feBlend mode="normal" in2="BackgroundImageFix" result="effect1_dropShadow_1_192"/>
<feBlend mode="normal" in="SourceGraphic" in2="effect1_dropShadow_1_192" result="shape"/>
</filter>
<filter id="filter1_d_1_192" x="18.1458" y="19.6707" width="19.5755" height="19.562" filterUnits="userSpaceOnUse" color-interpolation-filters="sRGB">
<feFlood flood-opacity="0" result="BackgroundImageFix"/>
<feColorMatrix in="SourceAlpha" type="matrix" values="0 0 0 0 0 0 0 0 0 0 0 0 0 0 0 0 0 0 127 0" result="hardAlpha"/>
<feOffset dy="1"/>
<feGaussianBlur stdDeviation="2"/>
<feComposite in2="hardAlpha" operator="out"/>
<feColorMatrix type="matrix" values="0 0 0 0 0.5 0 0 0 0 0.94 0 0 0 0 1 0 0 0 0.9 0"/>
<feBlend mode="normal" in2="BackgroundImageFix" result="effect1_dropShadow_1_192"/>
<feBlend mode="normal" in="SourceGraphic" in2="effect1_dropShadow_1_192" result="shape"/>
</filter>
<linearGradient id="paint0_linear_1_192" x1="20" y1="20.5" x2="9" y2="9" gradientUnits="userSpaceOnUse">
<stop stop-color="#60C9E0"/>
<stop offset="1" stop-color="#033082"/>
</linearGradient>
</defs>
</svg>
