<svg width="200" height="200" viewBox="0 0 200 200" fill="none" xmlns="http://www.w3.org/2000/svg">
<g filter="url(#filter0_d_1_87)">
<path d="M177.529 121.254C189.262 78.6577 164.235 34.6389 121.631 22.9355C79.0263 11.2321 34.9771 36.2758 23.2442 78.8723C11.5114 121.469 36.5378 165.487 79.1424 177.191C121.747 188.894 165.796 163.851 177.529 121.254Z" fill="#BABABA"/>
</g>
<g filter="url(#filter1_d_1_87)">
<path d="M158.691 114.226C166.408 82.0002 146.537 49.6357 114.306 41.9379C82.0753 34.2402 49.6911 54.1242 41.9736 86.3501C34.2562 118.576 54.1281 150.94 86.3586 158.638C118.589 166.336 150.974 146.452 158.691 114.226Z" fill="#DCDCDC"/>
</g>
<g filter="url(#filter2_d_1_87)">
<path d="M158.691 114.226C166.408 82.0002 146.537 49.6357 114.306 41.9379C82.0753 34.2402 49.6911 54.1242 41.9736 86.3501C34.2562 118.576 54.1281 150.94 86.3586 158.638C118.589 166.336 150.974 146.452 158.691 114.226Z" fill="#DCDCDC"/>
</g>
<g filter="url(#filter3_d_1_87)">
<path d="M150.078 112.058C156.628 84.6639 139.728 57.16 112.33 50.6265C84.9312 44.093 57.4105 61.004 50.8603 88.3983C44.31 115.793 61.2107 143.296 88.609 149.83C116.007 156.364 143.528 139.453 150.078 112.058Z" fill="#DCDCDC"/>
</g>
<g filter="url(#filter4_d_1_87)">
<path d="M150.078 112.058C156.628 84.6639 139.728 57.16 112.33 50.6265C84.9312 44.0929 57.4105 61.004 50.8603 88.3982C44.31 115.793 61.2107 143.296 88.609 149.83C116.007 156.364 143.528 139.453 150.078 112.058Z" fill="#DCDCDC"/>
</g>
<path d="M84.4702 121.877L85.6146 122.875C86.1973 123.394 86.114 124.309 85.4482 124.683L80.3917 127.696C80.3917 127.696 80.3292 127.737 80.2876 127.758C80.1211 127.821 79.9547 127.758 79.8298 127.634C79.7674 127.55 79.7466 127.467 79.7466 127.384C79.7466 127.26 79.7882 127.156 79.8923 127.052L81.7234 124.974C82.1396 124.516 82.098 123.81 81.6402 123.394L79.8298 121.794L79.7674 121.732C79.2472 121.275 79.1431 120.464 79.6842 119.903C80.9951 118.552 82.4101 117.326 83.9708 115.622C84.0124 115.622 84.054 115.622 84.1164 115.622L87.9036 118.324C86.8215 118.906 85.7603 119.488 84.6782 120.069C83.9916 120.423 83.8875 121.379 84.4702 121.898V121.877Z" fill="#DCDCDC"/>
<path d="M114.497 103.362C114.372 103.757 114.102 103.985 113.769 104.172C111.771 105.274 109.774 106.354 107.797 107.435C103.26 109.908 98.7033 112.381 94.167 114.895C93.7509 115.103 93.2723 115.082 92.8977 114.812L89.4851 112.36C88.8816 111.923 88.8192 111.051 89.3602 110.531C90.0261 109.887 90.692 109.243 91.3579 108.599C93.1058 106.895 94.8537 105.211 96.6225 103.528C96.8097 103.341 96.7889 103.05 96.5808 102.905C93.9173 101.034 91.2746 99.1226 88.6319 97.2316C88.2782 96.9822 87.9452 96.7121 87.8828 96.2549C87.7788 95.5899 88.0493 95.112 88.6735 94.8003C91.9821 93.1586 103.718 87.4232 107.672 85.4698C108.109 85.262 108.629 85.3035 109.024 85.5945L112.541 88.1089C113.145 88.5453 113.207 89.4181 112.687 89.9376C111.417 91.1637 110.127 92.3897 108.858 93.595C108.046 94.3847 107.235 95.1535 106.423 95.9224C106.111 96.1718 106.153 96.3172 106.465 96.5251C108.92 98.2706 111.376 100.037 113.81 101.783C114.476 102.261 114.684 102.78 114.497 103.362Z" fill="#DCDCDC"/>
<path d="M121.489 81.2305C121.406 81.5214 121.239 81.75 121.01 81.9578C120.115 82.8098 119.241 83.6618 118.347 84.5138C118.097 84.7424 117.743 84.7632 117.473 84.5762L115.163 82.9345C114.747 82.6228 114.809 81.9994 115.267 81.7708C116.786 81.0435 118.284 80.3162 119.803 79.5681H120.636C121.406 80.0668 121.676 80.6071 121.489 81.2305Z" fill="#DCDCDC"/>
<path d="M113.709 101.313C113.585 101.708 113.314 101.937 112.981 102.124C110.983 103.225 108.986 104.306 107.009 105.386C102.473 107.859 97.9156 110.332 93.3793 112.846C92.9631 113.054 92.4845 113.033 92.11 112.763L88.6974 110.311C88.0939 109.875 88.0315 109.002 88.5725 108.483C89.2384 107.838 89.9043 107.194 90.5701 106.55C92.3181 104.846 94.066 103.163 95.8347 101.479C96.022 101.292 96.0012 101.002 95.7931 100.856C93.1296 98.9858 90.4869 97.074 87.8442 95.183C87.4905 94.9336 87.1575 94.6634 87.0951 94.2063C86.9911 93.5413 87.2616 93.0633 87.8858 92.7516C91.1944 91.11 102.931 85.3745 106.884 83.4211C107.321 83.2133 107.841 83.2549 108.237 83.5458L111.753 86.0603C112.357 86.4967 112.419 87.3695 111.899 87.889C110.63 89.115 109.34 90.3411 108.07 91.5463C107.259 92.336 106.447 93.1049 105.636 93.8738C105.323 94.1231 105.365 94.2686 105.677 94.4764C108.133 96.222 110.588 97.9883 113.023 99.7339C113.689 100.212 113.897 100.731 113.709 101.313Z" fill="#BABABA"/>
<path d="M120.701 79.1819C120.618 79.4729 120.451 79.7014 120.223 79.9092C119.328 80.7612 118.454 81.6132 117.559 82.4653C117.309 82.6938 116.956 82.7146 116.685 82.5276L114.375 80.8859C113.959 80.5742 114.022 79.9508 114.479 79.7222C115.998 78.9949 117.497 78.2676 119.016 77.5195H119.848C120.618 78.0182 120.888 78.5585 120.701 79.1819Z" fill="#BABABA"/>
<path d="M84.8269 120.826C85.4096 121.346 85.3264 122.26 84.6605 122.634L79.604 125.647C79.604 125.647 79.5415 125.689 79.4999 125.71C79.3335 125.772 79.167 125.71 79.0421 125.585C78.9797 125.502 78.9589 125.419 78.9589 125.336C78.9589 125.211 79.0005 125.107 79.1046 125.003L80.9357 122.925C81.3519 122.468 81.3103 121.761 80.8525 121.346L79.0421 119.746L78.9797 119.683C78.4595 119.226 78.3555 118.416 78.8965 117.855C80.2074 116.504 81.6224 115.278 83.1831 113.574C83.2247 113.574 83.2663 113.574 83.3287 113.574L87.1159 116.275C86.0339 116.857 84.9726 117.439 83.8906 118.021C83.2039 118.374 83.0998 119.33 83.6825 119.85L84.8269 120.847V120.826Z" fill="#BABABA"/>
<g filter="url(#filter5_d_1_87)">
<path d="M107.467 83.2964C107.737 83.2964 108.008 83.3796 108.237 83.5458L111.753 86.0602C112.357 86.4966 112.419 87.3694 111.899 87.8889C110.63 89.115 109.36 90.341 108.07 91.5463C107.259 92.336 106.447 93.1049 105.636 93.8738C105.324 94.1231 105.365 94.2686 105.677 94.4764C108.133 96.222 110.588 97.9883 113.023 99.7339C113.689 100.212 113.897 100.731 113.709 101.313C113.585 101.708 113.314 101.937 112.981 102.124C110.983 103.225 108.986 104.306 107.009 105.386C102.473 107.859 97.9156 110.332 93.3793 112.846C93.1921 112.95 93.0048 112.992 92.7967 112.992C92.547 112.992 92.2973 112.909 92.0892 112.763L88.6766 110.311C88.0731 109.875 88.0107 109.002 88.5517 108.483C89.2176 107.838 89.8835 107.194 90.5494 106.55C92.2973 104.846 94.0452 103.163 95.814 101.479C96.022 101.292 96.0012 101.001 95.7723 100.856C93.1088 98.9858 90.4661 97.074 87.8234 95.1829C87.4697 94.9336 87.1367 94.6634 87.0743 94.2062C86.9703 93.5413 87.2408 93.0633 87.865 92.7516C91.1736 91.1099 102.91 85.3745 106.863 83.4211C107.051 83.338 107.238 83.2964 107.425 83.2964M107.425 82.7769C107.155 82.7769 106.884 82.8393 106.634 82.9639C102.66 84.8965 90.9447 90.6528 87.6153 92.2944C86.783 92.71 86.4084 93.4166 86.5333 94.2894C86.6165 94.9543 87.0743 95.3076 87.4905 95.6193L89.613 97.1363C91.5066 98.487 93.4002 99.8586 95.3146 101.209C93.5874 102.872 91.8603 104.513 90.154 106.197C89.6546 106.675 89.1344 107.173 88.635 107.672L88.1564 108.129C87.7818 108.483 87.5945 108.981 87.6362 109.48C87.6778 109.979 87.9275 110.457 88.3436 110.748L91.7563 113.2C92.0476 113.408 92.4013 113.511 92.7551 113.511C93.0464 113.511 93.3377 113.428 93.5874 113.304C98.1237 110.81 102.66 108.337 107.196 105.864L109.319 104.721C110.609 104.015 111.899 103.308 113.21 102.602C113.543 102.415 113.98 102.103 114.188 101.5C114.375 100.939 114.375 100.108 113.314 99.339L111.733 98.1961C109.86 96.8454 107.987 95.4946 106.093 94.1647C106.863 93.4374 107.654 92.6893 108.424 91.9412C109.693 90.7359 110.983 89.5098 112.253 88.2838C112.627 87.9305 112.815 87.4318 112.773 86.933C112.731 86.4135 112.482 85.9563 112.066 85.6654L108.549 83.151C108.237 82.9224 107.862 82.7977 107.467 82.7977L107.425 82.7769Z" fill="#BABABA"/>
<path d="M119.848 77.5195C120.618 78.0182 120.888 78.5585 120.701 79.1819C120.618 79.4728 120.451 79.7014 120.223 79.9092C119.328 80.7612 118.454 81.6132 117.559 82.4652C117.434 82.5899 117.268 82.6523 117.08 82.6523C116.935 82.6523 116.81 82.6107 116.685 82.5276L114.375 80.8859C113.959 80.595 114.022 79.9508 114.479 79.7222C115.998 78.9949 117.497 78.2676 119.016 77.5195H119.848ZM119.994 76.9999H118.891L118.787 77.0623C117.268 77.8104 115.769 78.5377 114.25 79.265C113.876 79.452 113.626 79.8053 113.585 80.2417C113.543 80.6573 113.73 81.0729 114.084 81.3223L116.394 82.964C116.602 83.1094 116.852 83.1926 117.101 83.1926C117.413 83.1926 117.705 83.0679 117.934 82.8601C118.475 82.3405 119.036 81.821 119.577 81.2807L120.618 80.2833C120.93 79.9923 121.138 79.6806 121.242 79.3274C121.409 78.7455 121.388 77.8727 120.181 77.0831L120.056 76.9999H119.994Z" fill="#BABABA"/>
<path d="M83.3288 113.553L87.1159 116.254C86.0339 116.836 84.9726 117.418 83.8906 118C83.2039 118.353 83.0999 119.309 83.6825 119.829L84.827 120.826C85.4096 121.346 85.3264 122.26 84.6605 122.634L79.604 125.647C79.604 125.647 79.5416 125.689 79.5 125.71C79.4583 125.71 79.4167 125.73 79.3751 125.73C79.2503 125.73 79.1462 125.668 79.0422 125.585C78.9797 125.502 78.9589 125.419 78.9589 125.336C78.9589 125.211 79.0005 125.107 79.1046 125.003L80.9358 122.925C81.3519 122.468 81.3103 121.761 80.8525 121.346L79.0422 119.746L78.9797 119.683C78.4595 119.226 78.3555 118.416 78.8965 117.855C80.2075 116.504 81.6224 115.278 83.1831 113.574C83.2247 113.574 83.2663 113.574 83.3288 113.574M83.4952 113.054H83.1207L82.8918 113.075L82.7877 113.241C81.8513 114.26 80.9982 115.091 80.145 115.901C79.5832 116.441 79.0422 116.961 78.5011 117.501C78.1474 117.855 77.9809 118.312 78.0017 118.81C78.0017 119.288 78.2514 119.766 78.626 120.099L80.4988 121.761C80.6236 121.865 80.6861 122.011 80.6861 122.177C80.6861 122.343 80.6444 122.489 80.5404 122.613L78.7092 124.691C78.522 124.878 78.4387 125.107 78.4387 125.377C78.4387 125.585 78.5011 125.772 78.626 125.938C78.8757 126.188 79.1046 126.291 79.3751 126.291C79.4791 126.291 79.5832 126.291 79.6872 126.229H79.7497L79.8329 126.167L84.9518 123.112C85.4096 122.863 85.7009 122.406 85.7426 121.886C85.805 121.366 85.5969 120.826 85.1807 120.473L84.0362 119.475C83.8906 119.351 83.8074 119.143 83.849 118.935C83.8698 118.748 83.9738 118.582 84.1403 118.499L85.7634 117.626L87.3656 116.753L88.0939 116.358L87.4073 115.88L83.6201 113.179L83.4744 113.075L83.4952 113.054Z" fill="#BABABA"/>
</g>
<path d="M107.467 83.2964C107.737 83.2964 108.008 83.3796 108.237 83.5458L111.753 86.0602C112.357 86.4966 112.419 87.3694 111.899 87.8889C110.63 89.115 109.36 90.341 108.07 91.5463C107.259 92.336 106.447 93.1049 105.636 93.8738C105.324 94.1231 105.365 94.2686 105.677 94.4764C108.133 96.222 110.588 97.9883 113.023 99.7339C113.689 100.212 113.897 100.731 113.709 101.313C113.585 101.708 113.314 101.937 112.981 102.124C110.983 103.225 108.986 104.306 107.009 105.386C102.473 107.859 97.9156 110.332 93.3793 112.846C93.1921 112.95 93.0048 112.992 92.7967 112.992C92.547 112.992 92.2973 112.909 92.0892 112.763L88.6766 110.311C88.0731 109.875 88.0107 109.002 88.5517 108.483C89.2176 107.838 89.8835 107.194 90.5494 106.55C92.2973 104.846 94.0452 103.163 95.814 101.479C96.022 101.292 96.0012 101.001 95.7723 100.856C93.1088 98.9858 90.4661 97.074 87.8234 95.1829C87.4697 94.9336 87.1367 94.6634 87.0743 94.2062C86.9703 93.5413 87.2408 93.0633 87.865 92.7516C91.1736 91.1099 102.91 85.3745 106.863 83.4211C107.051 83.338 107.238 83.2964 107.425 83.2964M107.425 82.7769C107.155 82.7769 106.884 82.8393 106.634 82.9639C102.66 84.8965 90.9447 90.6528 87.6153 92.2944C86.783 92.71 86.4084 93.4166 86.5333 94.2894C86.6165 94.9543 87.0743 95.3076 87.4905 95.6193L89.613 97.1363C91.5066 98.487 93.4002 99.8586 95.3146 101.209C93.5874 102.872 91.8603 104.513 90.154 106.197C89.6546 106.675 89.1344 107.173 88.635 107.672L88.1564 108.129C87.7818 108.483 87.5945 108.981 87.6362 109.48C87.6778 109.979 87.9275 110.457 88.3436 110.748L91.7563 113.2C92.0476 113.408 92.4013 113.511 92.7551 113.511C93.0464 113.511 93.3377 113.428 93.5874 113.304C98.1237 110.81 102.66 108.337 107.196 105.864L109.319 104.721C110.609 104.015 111.899 103.308 113.21 102.602C113.543 102.415 113.98 102.103 114.188 101.5C114.375 100.939 114.375 100.108 113.314 99.339L111.733 98.1961C109.86 96.8454 107.987 95.4946 106.093 94.1647C106.863 93.4374 107.654 92.6893 108.424 91.9412C109.693 90.7359 110.983 89.5098 112.253 88.2838C112.627 87.9305 112.815 87.4318 112.773 86.933C112.731 86.4135 112.482 85.9563 112.066 85.6654L108.549 83.151C108.237 82.9224 107.862 82.7977 107.467 82.7977L107.425 82.7769Z" fill="#BABABA"/>
<path d="M119.848 77.5195C120.618 78.0182 120.888 78.5585 120.701 79.1819C120.618 79.4728 120.451 79.7014 120.223 79.9092C119.328 80.7612 118.454 81.6132 117.559 82.4652C117.434 82.5899 117.268 82.6523 117.08 82.6523C116.935 82.6523 116.81 82.6107 116.685 82.5276L114.375 80.8859C113.959 80.595 114.022 79.9508 114.479 79.7222C115.998 78.9949 117.497 78.2676 119.016 77.5195H119.848ZM119.994 76.9999H118.891L118.787 77.0623C117.268 77.8104 115.769 78.5377 114.25 79.265C113.876 79.452 113.626 79.8053 113.585 80.2417C113.543 80.6573 113.73 81.0729 114.084 81.3223L116.394 82.964C116.602 83.1094 116.852 83.1926 117.101 83.1926C117.413 83.1926 117.705 83.0679 117.934 82.8601C118.475 82.3405 119.036 81.821 119.577 81.2807L120.618 80.2833C120.93 79.9923 121.138 79.6806 121.242 79.3274C121.409 78.7455 121.388 77.8727 120.181 77.0831L120.056 76.9999H119.994Z" fill="#BABABA"/>
<path d="M83.3288 113.553L87.1159 116.254C86.0339 116.836 84.9726 117.418 83.8906 118C83.2039 118.353 83.0999 119.309 83.6825 119.829L84.827 120.826C85.4096 121.346 85.3264 122.26 84.6605 122.634L79.604 125.647C79.604 125.647 79.5416 125.689 79.5 125.71C79.4583 125.71 79.4167 125.73 79.3751 125.73C79.2503 125.73 79.1462 125.668 79.0422 125.585C78.9797 125.502 78.9589 125.419 78.9589 125.336C78.9589 125.211 79.0005 125.107 79.1046 125.003L80.9358 122.925C81.3519 122.468 81.3103 121.761 80.8525 121.346L79.0422 119.746L78.9797 119.683C78.4595 119.226 78.3555 118.416 78.8965 117.855C80.2075 116.504 81.6224 115.278 83.1831 113.574C83.2247 113.574 83.2663 113.574 83.3288 113.574M83.4952 113.054H83.1207L82.8918 113.075L82.7877 113.241C81.8513 114.26 80.9982 115.091 80.145 115.901C79.5832 116.441 79.0422 116.961 78.5011 117.501C78.1474 117.855 77.9809 118.312 78.0017 118.81C78.0017 119.288 78.2514 119.766 78.626 120.099L80.4988 121.761C80.6236 121.865 80.6861 122.011 80.6861 122.177C80.6861 122.343 80.6444 122.489 80.5404 122.613L78.7092 124.691C78.522 124.878 78.4387 125.107 78.4387 125.377C78.4387 125.585 78.5011 125.772 78.626 125.938C78.8757 126.188 79.1046 126.291 79.3751 126.291C79.4791 126.291 79.5832 126.291 79.6872 126.229H79.7497L79.8329 126.167L84.9518 123.112C85.4096 122.863 85.7009 122.406 85.7426 121.886C85.805 121.366 85.5969 120.826 85.1807 120.473L84.0362 119.475C83.8906 119.351 83.8074 119.143 83.849 118.935C83.8698 118.748 83.9738 118.582 84.1403 118.499L85.7634 117.626L87.3656 116.753L88.0939 116.358L87.4073 115.88L83.6201 113.179L83.4744 113.075L83.4952 113.054Z" fill="#BABABA"/>
<defs>
<filter id="filter0_d_1_87" x="13.3523" y="13.0572" width="172.069" height="172.012" filterUnits="userSpaceOnUse" color-interpolation-filters="sRGB">
<feFlood flood-opacity="0" result="BackgroundImageFix"/>
<feColorMatrix in="SourceAlpha" type="matrix" values="0 0 0 0 0 0 0 0 0 0 0 0 0 0 0 0 0 0 127 0" result="hardAlpha"/>
<feOffset dx="-1" dy="-1"/>
<feGaussianBlur stdDeviation="3"/>
<feColorMatrix type="matrix" values="0 0 0 0 1 0 0 0 0 1 0 0 0 0 1 0 0 0 0.7 0"/>
<feBlend mode="normal" in2="BackgroundImageFix" result="effect1_dropShadow_1_87"/>
<feBlend mode="normal" in="SourceGraphic" in2="effect1_dropShadow_1_87" result="shape"/>
</filter>
<filter id="filter1_d_1_87" x="37.3103" y="37.2827" width="128.044" height="128.011" filterUnits="userSpaceOnUse" color-interpolation-filters="sRGB">
<feFlood flood-opacity="0" result="BackgroundImageFix"/>
<feColorMatrix in="SourceAlpha" type="matrix" values="0 0 0 0 0 0 0 0 0 0 0 0 0 0 0 0 0 0 127 0" result="hardAlpha"/>
<feOffset dx="1" dy="1"/>
<feGaussianBlur stdDeviation="2"/>
<feColorMatrix type="matrix" values="0 0 0 0 0.345098 0 0 0 0 0.345098 0 0 0 0 0.345098 0 0 0 0.9 0"/>
<feBlend mode="normal" in2="BackgroundImageFix" result="effect1_dropShadow_1_87"/>
<feBlend mode="normal" in="SourceGraphic" in2="effect1_dropShadow_1_87" result="shape"/>
</filter>
<filter id="filter2_d_1_87" x="35.3103" y="35.2827" width="128.044" height="128.011" filterUnits="userSpaceOnUse" color-interpolation-filters="sRGB">
<feFlood flood-opacity="0" result="BackgroundImageFix"/>
<feColorMatrix in="SourceAlpha" type="matrix" values="0 0 0 0 0 0 0 0 0 0 0 0 0 0 0 0 0 0 127 0" result="hardAlpha"/>
<feOffset dx="-1" dy="-1"/>
<feGaussianBlur stdDeviation="2"/>
<feColorMatrix type="matrix" values="0 0 0 0 1 0 0 0 0 1 0 0 0 0 1 0 0 0 0.2 0"/>
<feBlend mode="normal" in2="BackgroundImageFix" result="effect1_dropShadow_1_87"/>
<feBlend mode="normal" in="SourceGraphic" in2="effect1_dropShadow_1_87" result="shape"/>
</filter>
<filter id="filter3_d_1_87" x="46.4506" y="46.2236" width="110.037" height="110.009" filterUnits="userSpaceOnUse" color-interpolation-filters="sRGB">
<feFlood flood-opacity="0" result="BackgroundImageFix"/>
<feColorMatrix in="SourceAlpha" type="matrix" values="0 0 0 0 0 0 0 0 0 0 0 0 0 0 0 0 0 0 127 0" result="hardAlpha"/>
<feOffset dx="1" dy="1"/>
<feGaussianBlur stdDeviation="2"/>
<feColorMatrix type="matrix" values="0 0 0 0 0.368627 0 0 0 0 0.368627 0 0 0 0 0.368627 0 0 0 0.7 0"/>
<feBlend mode="normal" in2="BackgroundImageFix" result="effect1_dropShadow_1_87"/>
<feBlend mode="normal" in="SourceGraphic" in2="effect1_dropShadow_1_87" result="shape"/>
</filter>
<filter id="filter4_d_1_87" x="44.4506" y="44.2236" width="110.037" height="110.009" filterUnits="userSpaceOnUse" color-interpolation-filters="sRGB">
<feFlood flood-opacity="0" result="BackgroundImageFix"/>
<feColorMatrix in="SourceAlpha" type="matrix" values="0 0 0 0 0 0 0 0 0 0 0 0 0 0 0 0 0 0 127 0" result="hardAlpha"/>
<feOffset dx="-1" dy="-1"/>
<feGaussianBlur stdDeviation="2"/>
<feColorMatrix type="matrix" values="0 0 0 0 1 0 0 0 0 1 0 0 0 0 1 0 0 0 1 0"/>
<feBlend mode="normal" in2="BackgroundImageFix" result="effect1_dropShadow_1_87"/>
<feBlend mode="normal" in="SourceGraphic" in2="effect1_dropShadow_1_87" result="shape"/>
</filter>
<filter id="filter5_d_1_87" x="74" y="72.9999" width="51.3165" height="57.2916" filterUnits="userSpaceOnUse" color-interpolation-filters="sRGB">
<feFlood flood-opacity="0" result="BackgroundImageFix"/>
<feColorMatrix in="SourceAlpha" type="matrix" values="0 0 0 0 0 0 0 0 0 0 0 0 0 0 0 0 0 0 127 0" result="hardAlpha"/>
<feOffset/>
<feGaussianBlur stdDeviation="2"/>
<feComposite in2="hardAlpha" operator="out"/>
<feColorMatrix type="matrix" values="0 0 0 0 0 0 0 0 0 0 0 0 0 0 0 0 0 0 0.15 0"/>
<feBlend mode="normal" in2="BackgroundImageFix" result="effect1_dropShadow_1_87"/>
<feBlend mode="normal" in="SourceGraphic" in2="effect1_dropShadow_1_87" result="shape"/>
</filter>
</defs>
</svg>
