<svg width="24" height="24" viewBox="0 0 24 24" fill="none" xmlns="http://www.w3.org/2000/svg">
<path d="M18.4414 2C19.1496 2.12316 19.8167 2.3387 20.4018 2.76977C21.5102 3.57032 22.1363 4.648 22.2697 6.01305C22.475 8.25051 20.8739 10.3956 18.4825 10.724C16.0808 11.0525 13.8639 9.35897 13.5457 6.98809C13.2275 4.56589 14.8184 2.42081 17.2303 2.03079C17.2611 2.03079 17.2919 2.01026 17.333 2C17.7025 2 18.0719 2 18.4414 2Z" fill="#E13636"/>
<path d="M11.7599 19.5096C9.4095 19.5096 7.05914 19.5096 4.70879 19.5096C4.28798 19.5096 3.89796 19.3967 3.56953 19.1299C2.85108 18.5346 2.79976 17.4774 3.48742 16.8411C3.95955 16.3997 4.40088 15.9379 4.73958 15.3939C5.24249 14.5728 5.54013 13.6799 5.60172 12.7151C5.6633 11.7401 5.62224 10.7651 5.63251 9.79001C5.65303 6.79305 7.94181 4.18611 10.9182 3.80636C11.3288 3.75504 11.7393 3.71398 12.1601 3.75504C12.3346 3.77557 12.3654 3.81662 12.2936 3.98084C11.9343 4.80192 11.7701 5.6538 11.7906 6.54673C11.8317 7.95283 12.2936 9.19473 13.1865 10.2724C14.2334 11.5246 15.5779 12.243 17.1893 12.4483C17.333 12.4688 17.4767 12.4585 17.6203 12.4688C17.9077 12.4893 17.918 12.4996 17.9283 12.7767C17.9488 13.2283 18.0412 13.6696 18.1848 14.1007C18.5133 15.1271 19.0778 15.9995 19.8886 16.7077C20.4531 17.2003 20.6584 17.8572 20.4326 18.4832C20.2068 19.0991 19.5807 19.5199 18.852 19.5199C16.4811 19.5199 14.1102 19.5199 11.7393 19.5199L11.7599 19.5096Z" fill="#555555"/>
<path d="M11.7701 20.341C12.7657 20.341 13.7612 20.341 14.7568 20.341C14.9929 20.341 15.0134 20.3615 14.9518 20.5873C14.5926 21.9524 13.2686 22.9685 11.842 22.9993C10.4564 23.0301 9.05027 22.1166 8.60894 20.6489C8.52683 20.3615 8.52683 20.3513 8.82448 20.3513C9.80978 20.3513 10.7848 20.3513 11.7701 20.3513V20.341Z" fill="#555555"/>
</svg>
